<?xml version="1.0" encoding="UTF-8" standalone="no"?>
<!-- Created with Inkscape (http://www.inkscape.org/) -->

<svg
   width="2in"
   height="1in"
   viewBox="0 0 2 1"
   version="1.1"
   id="svg89971"
   inkscape:version="1.3 (1:1.3+202307231459+0e150ed6c4)"
   sodipodi:docname="backend_bucky.svg"
   xmlns:inkscape="http://www.inkscape.org/namespaces/inkscape"
   xmlns:sodipodi="http://sodipodi.sourceforge.net/DTD/sodipodi-0.dtd"
   xmlns="http://www.w3.org/2000/svg"
   xmlns:svg="http://www.w3.org/2000/svg">
  <sodipodi:namedview
     id="namedview89973"
     pagecolor="#ffffff"
     bordercolor="#666666"
     borderopacity="1.0"
     inkscape:showpageshadow="2"
     inkscape:pageopacity="0.0"
     inkscape:pagecheckerboard="0"
     inkscape:deskcolor="#d1d1d1"
     inkscape:document-units="in"
     showgrid="false"
     showguides="true"
     inkscape:zoom="1.2938725"
     inkscape:cx="204.81153"
     inkscape:cy="-47.918169"
     inkscape:window-width="1798"
     inkscape:window-height="1229"
     inkscape:window-x="548"
     inkscape:window-y="0"
     inkscape:window-maximized="0"
     inkscape:current-layer="layer1" />
  <defs
     id="defs89968">
    <linearGradient
       id="LinearGradient"
       gradientUnits="userSpaceOnUse"
       x1="0"
       y1="0"
       x2="1.175"
       y2="35.262001"
       gradientTransform="matrix(0.05564761,0,0,-0.05583144,39.374791,21.454418)">
      <stop
         offset="0"
         stop-color="#351312"
         id="stop544" />
      <stop
         offset="1"
         stop-color="#66312c"
         id="stop546" />
    </linearGradient>
    <linearGradient
       id="LinearGradient_1"
       gradientUnits="userSpaceOnUse"
       x1="0"
       y1="0"
       x2="1.161"
       y2="34.841999"
       gradientTransform="matrix(0.05564761,0,0,-0.05583144,39.311298,21.216911)">
      <stop
         offset="0"
         stop-color="#351312"
         id="stop549" />
      <stop
         offset="1"
         stop-color="#66312c"
         id="stop551" />
    </linearGradient>
    <linearGradient
       id="LinearGradient_2"
       gradientUnits="userSpaceOnUse"
       x1="0"
       y1="0"
       x2="9.2919998"
       y2="3.484"
       gradientTransform="matrix(0.05564761,0,0,-0.05583144,34.851475,24.783256)">
      <stop
         offset="0"
         stop-color="#cccccc"
         id="stop554" />
      <stop
         offset="1"
         stop-color="#ffffff"
         id="stop556" />
    </linearGradient>
    <linearGradient
       id="LinearGradient_3"
       gradientUnits="userSpaceOnUse"
       x1="0"
       y1="0"
       x2="26.714001"
       y2="19.743999"
       gradientTransform="matrix(0.05564761,0,0,-0.05583144,39.375905,25.6262)">
      <stop
         offset="0"
         stop-color="#cccccc"
         id="stop559" />
      <stop
         offset="1"
         stop-color="#ffffff"
         id="stop561" />
    </linearGradient>
  </defs>
  <g
     inkscape:label="Layer 1"
     inkscape:groupmode="layer"
     id="layer1">
    <rect
       style="fill:#ffffff;stroke:none;stroke-width:0.00862891"
       id="rect93952"
       width="1.9896581"
       height="0.99482912"
       x="-0.0022205375"
       y="0.0076074866"
       inkscape:export-filename="backend_bucky.png"
       inkscape:export-xdpi="300"
       inkscape:export-ydpi="300" />
    <g
       id="g91163"
       transform="matrix(0.02988912,0,0,0.0311066,-1.0245841,-0.87770032)">
      <g
         id="g87404"
         transform="matrix(1.0003134,0,0,0.999998,12.06565,18.955496)">
        <path
           d="m 30.0108,22.883815 -0.568774,1.193118"
           fill="none"
           stroke-linecap="round"
           stroke-linejoin="round"
           stroke="#ff0000"
           stroke-width="0.0431423"
           stroke-miterlimit="79.8403"
           id="path1131"
           style="font-size:16px;font-family:'Times New Roman';fill-rule:evenodd" />
        <path
           d="m 30.0108,22.78008 c -1.344112,-1.867506 -2.263467,-3.806029 -2.792174,-5.809931 0.351915,-3.80536 4.967885,-0.999774 8.118041,-0.466863 0.758421,-0.313717 1.516787,-0.387861 2.275152,-0.155602 -0.04519,-0.489251 -1.118628,-0.849643 -2.326849,-1.193118 1.18791,-0.144994 2.610875,0.122773 4.343463,0.933725 -0.199107,-0.665511 -1.058807,-1.236499 -2.223456,-1.763716 1.257803,-0.07018 2.777929,0.648762 4.446857,1.815584 0.009,-0.8521 -1.132485,-1.575899 -2.430243,-2.282446 1.42469,-0.432302 4.229497,1.212045 7.135527,3.008701 2.719833,-1.331245 5.681288,-1.753442 8.945409,-1.03746 0.541619,-0.100552 0.519638,0.222767 0.465381,0.570597 -0.310513,2.524531 -1.71428,4.735567 -3.102465,6.951126 1.233652,-0.459548 2.171703,0.881858 0.723919,1.608113 1.057917,1.065487 1.720013,2.528048 2.223401,4.149895 -0.47818,-0.569983 -0.899098,-0.910386 -1.240942,-0.933724 1.099207,0.768241 1.039999,2.31773 1.034099,3.579298 -0.672167,-1.049743 -1.727012,-2.586037 -2.016558,-2.697441 1.324748,1.804751 1.209168,3.32052 1.034155,4.824283 l -1.034155,-3.371827 c -0.155938,0.232565 0.01213,4.064584 -0.620525,5.135542 l -0.0517,-1.919317 c -0.27885,0.70744 -0.690476,1.348273 -1.240943,1.919317 0.19933,-0.437103 0.229102,-0.789288 0.15509,-1.089383 -0.765766,0.849812 -1.588349,1.585558 -2.637084,1.867507 -0.454697,-0.126235 -0.312127,0.226842 -0.0517,0.674332 -0.882627,-0.404946 -1.519236,-0.986262 -3.619544,-0.51873 -3.009199,0.110824 -4.922031,1.321643 -9.358927,0 -1.615729,-0.401931 -3.411421,-0.857738 -3.412701,-0.466863 l 0.155089,0.570597 c -0.831096,-0.53894 -1.760133,-0.930598 -2.2234,-2.023051 l -0.155145,0.726199 c -0.593921,-0.828315 -1.051956,-1.758913 -1.085846,-3.0087 l -0.103393,0.881913 c -0.280186,-0.203115 -0.277014,-0.690468 -0.258539,-1.193119 l -0.517077,1.452456 c -0.119866,-1.48975 0.39018,-3.776749 0.62047,-4.305554 -0.321636,0.212089 -1.11056,1.55379 -1.34439,2.438104 -0.14385,-1.186195 0.590997,-2.219764 0.827313,-2.801231 -0.469115,0.281519 -1.28162,1.379707 -2.016559,2.541838 0.400441,-1.902569 1.051128,-3.136108 1.861469,-3.942426 -0.493038,0.197141 -0.936884,0.443525 -1.292694,0.778123 l 2.171704,-3.890558 0.0517,-0.20747 c -0.828592,-1.531065 -0.954746,-2.315999 0.568774,-1.34872 z"
           stroke-linecap="round"
           fill="#770101"
           stroke-width="0.345251"
           stroke="#000000"
           stroke-linejoin="miter"
           marker-start="none"
           marker-end="none"
           stroke-miterlimit="79.8403"
           id="path1133"
           style="font-size:16px;font-family:'Times New Roman';fill-rule:evenodd"
           sodipodi:nodetypes="ccccccccccccccccccccccccccccccccccccccccccccc" />
        <path
           d="m 34.819589,16.607021 -0.620471,2.489971 -4.653699,4.87615 c -1.061255,-1.533746 -0.900433,-1.905918 0.620527,-0.985592 -2.618498,-4.288581 -2.208153,-4.236657 -2.895624,-5.758008 0.0045,-2.296794 1.44005,-2.583657 3.516095,-1.971241 z"
           stroke-linecap="round"
           stroke-linejoin="miter"
           stroke="#000000"
           stroke-width="0.345251"
           fill="#ffffff"
           marker-start="none"
           marker-end="none"
           stroke-miterlimit="79.8403"
           id="path1135"
           style="font-size:16px;font-family:'Times New Roman';fill-rule:evenodd" />
        <path
           d="m 46.608814,16.814546 c 3.755602,-1.742778 6.641265,-1.740042 9.152252,-0.985592 0.312296,1.903405 -1.289521,4.702906 -3.154162,7.625459 1.538657,-0.841325 2.223401,0.674387 0.930762,1.608111 l -0.310291,0.414996 c -4.241906,-3.102608 -9.436779,-8.367123 -6.618561,-8.662974 z"
           stroke-linecap="round"
           fill="#ffffff"
           stroke-linejoin="miter"
           stroke="#000000"
           stroke-width="0.345251"
           marker-start="none"
           marker-end="none"
           stroke-miterlimit="79.8403"
           id="path1137"
           style="font-size:16px;font-family:'Times New Roman';fill-rule:evenodd" />
        <path
           d="m 34.302512,18.837654 -0.206787,-0.155658 -0.258539,0.466863 c -1.712667,-0.01921 -2.748101,2.509233 -3.826386,4.87615 -0.274787,1.77611 -0.362544,2.950357 -0.361932,3.890558 2.217669,-2.310807 4.851861,-3.128235 3.929779,-0.622464 0.300832,-0.626317 0.778344,-1.222764 2.378546,-1.556246 -0.288811,-0.36631 -0.256647,-0.652223 0,-0.881857 1.467428,0.208196 2.153508,0.22031 2.947321,0.259392 l 0.0517,-0.881857 0.155146,0.933726 c 0.636052,0.03456 1.489687,0.06918 2.533635,0.103734 0.663152,0.237842 0.567662,0.602532 0.361988,0.985592 2.385058,-0.438835 2.843817,0.829991 3.671128,1.711848 v -1.711848 c 1.642496,-1.49846 3.624443,0.237172 5.584406,1.763772 0.252083,-0.98336 0.381854,-2.580083 0.361932,-4.928075 -0.789974,-1.586562 -1.964694,-3.102999 -4.29171,-4.409288 l -0.310236,0.414996 -0.361933,-2.126843 c -2.166585,-1.491817 -4.13612,-3.30003 -7.187278,-3.371773 1.346394,0.828036 2.546268,1.670812 2.430243,2.645573 -1.557355,-1.151468 -3.074531,-2.121651 -4.343408,-1.971241 1.139385,0.657081 2.064693,1.314161 2.06831,1.971241 -1.164203,-0.645356 -2.546546,-1.237503 -4.343463,-1.089383 0.986744,0.168611 2.039207,0.271285 2.378546,1.089383 l -2.585388,0.155602 z"
           stroke-linecap="round"
           stroke-width="0.172625"
           fill="#eb6701"
           stroke-linejoin="miter"
           stroke="#000000"
           marker-start="none"
           marker-end="none"
           stroke-miterlimit="79.8403"
           id="path1139"
           style="font-size:16px;font-family:'Times New Roman';fill-rule:evenodd" />
        <path
           d="m 33.939577,19.20402 c -0.574561,-0.736081 -1.550231,-1.06973 -2.825841,-1.102503 -0.680236,0.13997 -1.360529,0.28005 -2.040821,0.42002 l 1.360585,0.524983 -0.523255,0.682484 c 0.11814,0.649431 0.391091,1.221201 0.78491,1.732394 h -0.78491 c -0.110405,0.110937 0.305171,0.485565 0.78491,0.892409 0.881681,-1.984752 1.949614,-3.098086 3.244422,-3.149787 z"
           stroke-linecap="round"
           stroke-width="0.087344"
           stroke-linejoin="miter"
           stroke="#000000"
           marker-start="none"
           marker-end="none"
           stroke-miterlimit="79.8403"
           fill="url(#LinearGradient)"
           id="path1141"
           style="font-size:16px;font-family:'Times New Roman';fill:url(#LinearGradient);fill-rule:evenodd" />
        <path
           d="m 48.004957,18.837654 c 0.844731,-0.501199 1.830696,-0.860809 2.947322,-1.089383 0.775615,-0.207469 1.706321,0.363128 2.740476,0.466863 -0.44813,0.312544 -0.89626,0.550219 -1.344391,0.726255 l 0.206843,0.570598 0.465381,0.05186 c -0.276402,0.536038 -0.707726,1.072075 -1.137605,1.608113 l 0.775617,0.259337 -0.327819,0.343866 -0.809728,0.849252 z"
           stroke-linecap="round"
           stroke-width="0.0863404"
           stroke-linejoin="miter"
           stroke="#000000"
           marker-start="none"
           marker-end="none"
           stroke-miterlimit="79.8403"
           fill="url(#LinearGradient_1)"
           id="path1143"
           style="font-size:16px;font-family:'Times New Roman';fill:url(#LinearGradient_1);fill-rule:evenodd" />
        <path
           d="m 33.837186,30.613008 c -0.475898,-0.393444 -0.5843,-1.366251 -0.103449,-3.268038 0.146966,-2.45301 -1.415731,-1.746518 -3.878027,0.622465 l -0.05175,3.423696 c -0.114857,0.932608 0.05387,1.63748 0.620526,2.023108 0.987968,1.461891 2.456119,2.235602 4.395105,2.334313 -1.770708,-0.811902 -3.043313,-1.540501 -3.154108,-2.074976 -0.132329,-1.142869 0.568775,-2.438047 2.171705,-3.060568 z"
           stroke-linecap="round"
           stroke-width="0.172625"
           fill="#ffffff"
           stroke-linejoin="miter"
           stroke="#000000"
           marker-start="none"
           marker-end="none"
           stroke-miterlimit="79.8403"
           id="path1145"
           style="font-size:16px;font-family:'Times New Roman';fill-rule:evenodd" />
        <path
           d="m 45.316177,31.079927 c 0.881401,-0.91396 0.785131,-2.808825 0.51702,-4.876208 0.934324,-1.111993 2.879876,-0.3509 5.584462,1.81564 l 0.310235,2.178709 c 1.043114,4.65947 -2.450776,6.080212 -8.53167,5.654219 5.222362,-0.311206 6.359967,-2.697441 2.119953,-4.77236 z"
           stroke-linecap="round"
           stroke-width="0.172625"
           fill="#ffffff"
           stroke-linejoin="miter"
           stroke="#000000"
           marker-start="none"
           marker-end="none"
           stroke-miterlimit="79.8403"
           id="path1147"
           style="font-size:16px;font-family:'Times New Roman';fill-rule:evenodd" />
        <path
           d="m 37.560123,27.759965 c -0.308733,1.161741 -1.027088,2.066489 -2.430243,2.541838 l -0.672223,2.126843 c -0.216303,0.795711 0.04301,1.400644 0.517078,1.919318 1.01785,1.051475 2.427404,1.513311 4.080083,1.609453 1.334318,0.07766 2.827066,-0.08313 4.399946,-0.364468 0.802271,-1.086759 1.202043,-2.038851 1.189189,-2.853099 l -0.827257,-2.023052 c -1.692635,-0.244931 -2.781769,-1.268322 -3.516095,-2.749363 -1.344391,0.363128 -2.392235,-0.412818 -2.740478,-0.20747 z"
           stroke-linecap="round"
           stroke-width="0.172625"
           stroke-linejoin="miter"
           stroke="#000000"
           fill="#ffffff"
           marker-start="none"
           marker-end="none"
           stroke-miterlimit="79.8403"
           id="path1149"
           style="font-size:16px;font-family:'Times New Roman';fill-rule:evenodd" />
        <path
           d="m 34.926711,26.498565 c 0.651188,-0.195744 1.606769,-0.07559 2.132695,0.227626 0.525981,0.653284 0.424368,1.611908 -0.226932,2.139572 -0.651132,0.527608 -1.606713,0.425716 -2.132639,-0.227681 -0.525981,-0.653227 -0.424368,-1.611854 0.226876,-2.139517 z"
           stroke-linecap="round"
           stroke-linejoin="miter"
           stroke="#000000"
           stroke-width="0.302945"
           fill="#ffffff"
           marker-start="none"
           marker-end="none"
           stroke-miterlimit="79.8403"
           id="path1151"
           style="font-size:16px;font-family:'Times New Roman';fill-rule:evenodd" />
        <path
           d="m 42.213766,29.419946 c -1.861469,-0.674388 -1.508551,-1.462839 -1.137549,-2.178711 0.371003,-0.715871 1.768425,-0.942826 2.48194,-0.570653 0.713569,0.372229 0.991528,1.255371 0.620527,1.971242 -0.371003,0.71587 -1.251349,1.150295 -1.964918,0.778122 z"
           stroke-linecap="round"
           fill="#ffffff"
           stroke-width="0.302945"
           stroke="#000000"
           stroke-linejoin="miter"
           marker-start="none"
           marker-end="none"
           stroke-miterlimit="79.8403"
           id="path1153"
           style="font-size:16px;font-family:'Times New Roman';fill-rule:evenodd" />
        <path
           d="m 34.354264,22.313161 c 1.120297,0.417899 2.240651,0.712242 3.360948,0.985649 0.372728,0.05834 0.535887,0.326949 0.361989,0.933725 v 1.193118 c -0.327487,0.273797 -0.654973,0.247668 -0.98246,0.103734 -0.310235,-0.489195 -0.62047,-0.821447 -0.930706,-1.037516 l -0.930762,1.037516 c -0.524478,0.157948 -1.010727,0.124338 -1.396087,-0.414995 0.360151,-0.414994 0.738778,-0.82999 1.396087,-1.244985 l -1.1893,-0.466862 c 0.0086,-0.363128 0.153865,-0.726255 0.310291,-1.089384 z"
           stroke-linecap="round"
           stroke-width="0.0863404"
           stroke="#000000"
           stroke-linejoin="miter"
           marker-start="none"
           marker-end="none"
           stroke-miterlimit="79.8403"
           fill="url(#LinearGradient_2)"
           id="path1155"
           style="font-size:16px;font-family:'Times New Roman';fill:url(#LinearGradient_2);fill-rule:evenodd" />
        <path
           d="m 39.990365,23.29881 4.550195,-0.933725 0.361933,1.193062 -1.396033,0.622521 1.913109,1.03746 -0.517076,1.037459 C 43.95459,25.944606 43.006521,25.645741 42.058676,25.788724 L 41.955228,24.855 c -0.255479,1.034892 -1.065764,1.195183 -2.275098,0.726255 z"
           stroke-linecap="round"
           stroke-width="0.0863404"
           stroke="#000000"
           stroke-linejoin="miter"
           marker-start="none"
           marker-end="none"
           stroke-miterlimit="79.8403"
           fill="url(#LinearGradient_3)"
           id="path1157"
           style="font-size:16px;font-family:'Times New Roman';fill:url(#LinearGradient_3);fill-rule:evenodd" />
        <path
           d="m 36.681057,30.301803 c 1.635205,-0.980511 2.780322,-0.83736 3.464454,0.363128 -0.225039,1.307796 -0.870496,1.666346 -1.654682,1.711793 -1.786845,-0.182736 -2.001422,-1.041536 -1.809772,-2.074921 z"
           stroke-linecap="round"
           fill="#191919"
           stroke-width="0.302945"
           stroke="#000000"
           stroke-linejoin="miter"
           marker-start="none"
           marker-end="none"
           stroke-miterlimit="79.8403"
           id="path1159"
           style="font-size:16px;font-family:'Times New Roman';fill-rule:evenodd" />
        <path
           d="m 36.681057,33.569841 c 0.664488,-1.142535 2.061967,-1.267038 4.498553,0.05187"
           fill="none"
           stroke-linecap="round"
           stroke-width="0.6905"
           stroke="#191919"
           stroke-linejoin="round"
           stroke-miterlimit="79.8403"
           id="path1161"
           style="font-size:16px;font-family:'Times New Roman';fill-rule:evenodd" />
        <path
           d="m 35.526926,26.806197 c 0.496209,-0.209591 1.068657,0.02434 1.277558,0.522136 0.208901,0.497793 -0.02432,1.072075 -0.520473,1.281666 -0.496209,0.209536 -1.068656,-0.02439 -1.277558,-0.522192 -0.208901,-0.497736 0.02432,-1.072018 0.520473,-1.28161 z"
           stroke-linecap="round"
           stroke-width="0.277248"
           stroke="#000000"
           stroke-linejoin="miter"
           fill="#191919"
           marker-start="none"
           marker-end="none"
           stroke-miterlimit="79.8403"
           id="path1163"
           style="font-size:16px;font-family:'Times New Roman';fill-rule:evenodd" />
        <path
           d="m 42.395233,27.077649 c 0.496209,-0.209534 1.068656,0.02439 1.277557,0.522192 0.208901,0.497738 -0.02431,1.07202 -0.520472,1.281611 -0.49621,0.209592 -1.068656,-0.02434 -1.277558,-0.522136 -0.208901,-0.497794 0.02432,-1.072076 0.520473,-1.281667 z"
           stroke-linecap="round"
           stroke-width="0.277248"
           stroke="#000000"
           stroke-linejoin="miter"
           fill="#191919"
           marker-start="none"
           marker-end="none"
           stroke-miterlimit="79.8403"
           id="path1165"
           style="font-size:16px;font-family:'Times New Roman';fill-rule:evenodd" />
        <path
           d="m 35.698599,27.158214 c 0.119809,-0.160291 0.347018,-0.192841 0.506783,-0.07264 0.159764,0.120205 0.192206,0.348109 0.0724,0.508401 -0.119809,0.160293 -0.347018,0.192843 -0.506783,0.07264 -0.159764,-0.120205 -0.192207,-0.348166 -0.0724,-0.508402 z"
           stroke-linecap="round"
           stroke="none"
           fill="#ffffff"
           stroke-linejoin="miter"
           stroke-width="0.388169"
           marker-start="none"
           marker-end="none"
           stroke-miterlimit="79.8403"
           id="path1167"
           style="font-size:16px;font-family:'Times New Roman';fill-rule:evenodd" />
        <path
           d="m 42.38594,27.341509 c 0.119809,-0.160291 0.347018,-0.192841 0.506781,-0.07264 0.159766,0.120206 0.192208,0.34811 0.0724,0.508401 -0.11981,0.160292 -0.347018,0.192842 -0.506783,0.07264 -0.159764,-0.120207 -0.192206,-0.348166 -0.0724,-0.508403 z"
           stroke-linecap="round"
           stroke="none"
           fill="#ffffff"
           stroke-linejoin="miter"
           stroke-width="0.388169"
           marker-start="none"
           marker-end="none"
           stroke-miterlimit="79.8403"
           id="path1169"
           style="font-size:16px;font-family:'Times New Roman';fill-rule:evenodd" />
        <path
           d="m 35.966041,27.600958 c 0.07635,-0.102116 0.221144,-0.122829 0.322924,-0.04628 0.101778,0.0766 0.12248,0.221874 0.04613,0.32399 -0.07635,0.102115 -0.221144,0.122884 -0.322924,0.04628 -0.101779,-0.0766 -0.12248,-0.221819 -0.04613,-0.32399 z"
           stroke-linecap="round"
           stroke="none"
           fill="#ffffff"
           stroke-linejoin="miter"
           stroke-width="0.247316"
           marker-start="none"
           marker-end="none"
           stroke-miterlimit="79.8403"
           id="path1171"
           style="font-size:16px;font-family:'Times New Roman';fill-rule:evenodd" />
        <path
           d="m 42.709141,27.873414 c 0.07635,-0.102115 0.221089,-0.122884 0.322923,-0.04628 0.101779,0.0766 0.12248,0.221818 0.04613,0.323934 -0.07635,0.102116 -0.221144,0.122885 -0.322924,0.04628 -0.101778,-0.0766 -0.122479,-0.221817 -0.04613,-0.323935 z"
           stroke-linecap="round"
           stroke="none"
           fill="#ffffff"
           stroke-linejoin="miter"
           stroke-width="0.247316"
           marker-start="none"
           marker-end="none"
           stroke-miterlimit="79.8403"
           id="path1173"
           style="font-size:16px;font-family:'Times New Roman';fill-rule:evenodd" />
        <path
           d="m 36.697473,30.423238 c 1.63515,-0.980456 3.344589,-1.003292 3.241196,0.864158 0.51346,-0.106526 -2.676762,-1.27893 -3.241196,-0.864158 z"
           stroke-linecap="round"
           stroke="none"
           fill="#666666"
           stroke-width="0.302945"
           stroke-linejoin="miter"
           marker-start="none"
           marker-end="none"
           stroke-miterlimit="79.8403"
           id="path1175"
           style="font-size:16px;font-family:'Times New Roman';fill-rule:evenodd" />
        <path
           d="m 39.760374,27.01992 c -0.135892,-0.01787 -0.294265,-0.05047 -0.409678,-0.126849 -0.117027,-0.07744 -0.15854,-0.193958 -0.08063,-0.316677 0.02682,-0.04232 0.05821,-0.07682 0.0926,-0.113281 -0.0013,0.0172 -0.0025,0.03495 -0.003,0.05215 -0.0013,0.0393 -0.0082,0.126515 0.01993,0.158394 0.01029,0.01172 0.0217,0.0093 0.03556,0.01078 0.033,0.0035 0.06416,0.0035 0.09744,0.0033 0.02766,-1.58e-4 0.05654,-0.003 0.0842,-0.0049 0.08403,-0.0058 0.167944,-0.01608 0.251861,-0.02362 0.172229,-0.01546 0.341287,-0.02813 0.514239,-0.03528 0.315022,-0.01305 0.63494,-4.74e-4 0.949571,0.0168 0.110684,0.0061 0.221367,0.01294 0.331939,0.02015 0.03005,0.0019 0.06027,0.0042 0.09032,0.0057 0.02087,9.61e-4 0.04391,0.0045 0.0645,0.0021 -0.01809,0.0091 -0.03951,0.01396 -0.05877,0.02027 -0.04374,0.01429 -0.08803,0.02741 -0.131996,0.04115 -0.125764,0.0393 -0.252473,0.07582 -0.379238,0.111551 -0.336056,0.09475 -0.683965,0.168556 -1.032987,0.189773 -0.142569,0.0087 -0.293986,0.0071 -0.435832,-0.01156 z"
           stroke-width="0.0278697"
           stroke="none"
           fill="#191919"
           fill-rule="evenodd"
           marker-start="none"
           marker-end="none"
           stroke-miterlimit="79.8403"
           id="path1177"
           style="font-size:16px;font-family:'Times New Roman';stroke-linejoin:bevel" />
        <path
           d="m 37.974642,27.137724 0.0056,-0.237786 0.02983,-0.230751 0.07618,-0.217073 0.146019,-0.196527 0.01669,0.244542 -0.05303,0.223885 -0.0995,0.210205 z"
           stroke-width="0.0278697"
           stroke="none"
           fill="#191919"
           fill-rule="evenodd"
           marker-start="none"
           marker-end="none"
           stroke-miterlimit="79.8403"
           id="path1179"
           style="font-size:16px;font-family:'Times New Roman';stroke-linejoin:bevel" />
        <path
           d="m 37.818662,26.203719 -0.258539,0.466863"
           fill="none"
           stroke-linecap="round"
           stroke-width="0.345251"
           stroke-linejoin="round"
           stroke="#191919"
           stroke-miterlimit="79.8403"
           id="path1181"
           style="font-size:16px;font-family:'Times New Roman';fill-rule:evenodd" />
        <path
           d="m 44.231103,30.354229 0.112854,-0.181117 0.114189,-0.18028 0.115246,-0.17933 0.03884,-0.05912 -0.345794,0.0078 -0.478237,-0.01172 -0.477512,-0.04221 -0.476399,-0.08079 0.479962,-0.05477 0.479069,-0.0163 0.478235,0.01429 0.47768,0.03657 0.03723,0.01172 0.02565,0.02948 0.0066,0.03852 -0.01442,0.03629 -0.141623,0.159175 -0.143181,0.15778 -0.14435,0.156942 z"
           stroke-width="0.0278697"
           stroke="none"
           fill="#191919"
           fill-rule="evenodd"
           marker-start="none"
           marker-end="none"
           stroke-miterlimit="79.8403"
           id="path1183"
           style="font-size:16px;font-family:'Times New Roman';stroke-linejoin:bevel" />
        <path
           d="m 43.973399,29.244413 -0.311794,-0.032 0.282746,-0.135613 0.295266,-0.06382 0.303503,-0.01597 0.307563,0.007 -0.286863,0.112667 -0.291037,0.08777 z"
           stroke-width="0.0278697"
           stroke="none"
           fill="#191919"
           fill-rule="evenodd"
           marker-start="none"
           marker-end="none"
           stroke-miterlimit="79.8403"
           id="path1185"
           style="font-size:16px;font-family:'Times New Roman';stroke-linejoin:bevel" />
        <path
           d="m 35.02721,29.886361 -0.143014,-0.19245 -0.140121,-0.194071 -0.13578,-0.196525 -0.12938,-0.200156 -0.01214,-0.04824 0.01402,-0.04773 0.03628,-0.034 0.04841,-0.01082 0.271616,0.0081 0.270949,0.02451 0.269946,0.04495 0.268945,0.06879 -0.274175,0.043 -0.272952,0.01892 -0.272062,-0.0014 -0.111907,-0.0074 0.03055,0.06354 0.09694,0.218413 0.0926,0.22098 z"
           stroke-width="0.0278697"
           stroke="none"
           fill="#191919"
           fill-rule="evenodd"
           marker-start="none"
           marker-end="none"
           stroke-miterlimit="79.8403"
           id="path1187"
           style="font-size:16px;font-family:'Times New Roman';stroke-linejoin:bevel" />
        <path
           d="m 34.303402,29.523402 -0.123093,-0.175031 -0.099,-0.183016 -0.0532,-0.19837 0.01586,-0.221427 0.144962,0.167718 0.07612,0.190665 0.03022,0.206018 z"
           stroke-width="0.0278697"
           stroke="none"
           fill="#191919"
           fill-rule="evenodd"
           marker-start="none"
           marker-end="none"
           stroke-miterlimit="79.8403"
           id="path1189"
           style="font-size:16px;font-family:'Times New Roman';stroke-linejoin:bevel" />
        <path
           d="m 36.474271,17.177674 -1.240998,0.881857 0.568775,-0.881857 z"
           stroke-linecap="round"
           stroke-linejoin="miter"
           stroke-width="0.302945"
           stroke="none"
           fill="#666666"
           marker-start="none"
           marker-end="none"
           stroke-miterlimit="79.8403"
           id="path1191"
           style="font-size:16px;font-family:'Times New Roman';fill-rule:evenodd" />
        <path
           d="m 33.164963,19.265602 -0.186086,-0.120149 -0.126265,-0.161688 -0.08653,-0.18938 -0.06722,-0.202668 0.166832,0.133549 0.146186,0.147842 0.106342,0.175534 z"
           stroke="#191919"
           fill="#191919"
           stroke-width="0.0278697"
           fill-rule="evenodd"
           marker-start="none"
           marker-end="none"
           stroke-miterlimit="79.8403"
           id="path1193"
           style="font-size:16px;font-family:'Times New Roman';stroke-linejoin:bevel" />
        <path
           d="m 32.596188,19.62873 -0.145574,-0.182066 -0.07612,-0.203896 -0.03005,-0.218357 -0.0077,-0.225392 0.123315,0.189213 0.09927,0.196582 0.05309,0.211155 z"
           stroke="#191919"
           fill="#191919"
           stroke-width="0.0278697"
           fill-rule="evenodd"
           marker-start="none"
           marker-end="none"
           stroke-miterlimit="79.8403"
           id="path1195"
           style="font-size:16px;font-family:'Times New Roman';stroke-linejoin:bevel" />
        <path
           d="m 32.234257,19.784332 -0.168223,-0.173412 -0.101501,-0.202668 -0.05732,-0.222042 -0.03579,-0.231532 0.146743,0.182847 0.123761,0.192897 0.07947,0.212383 z"
           stroke="#191919"
           fill="#191919"
           stroke-width="0.0278697"
           fill-rule="evenodd"
           marker-start="none"
           marker-end="none"
           stroke-miterlimit="79.8403"
           id="path1197"
           style="font-size:16px;font-family:'Times New Roman';stroke-linejoin:bevel" />
        <path
           d="m 31.303494,20.925583 -0.723919,-0.05192"
           fill="none"
           stroke-linecap="round"
           stroke-linejoin="round"
           stroke-width="0.0863404"
           stroke="#191919"
           stroke-miterlimit="79.8403"
           id="path1199"
           style="font-size:16px;font-family:'Times New Roman';fill-rule:evenodd" />
        <path
           d="m 31.512729,20.186375 c -0.02899,-0.06929 -0.05593,-0.130032 -0.09393,-0.194071 -0.0093,-0.01563 -0.03962,-0.05309 -0.05537,-0.06186 -0.0046,-0.0026 -0.0095,-0.0072 -0.01447,-0.0099 -0.01709,-0.0094 -0.03044,-0.01474 -0.0493,-0.01977 -0.02793,-0.0075 -0.06383,-0.0076 -0.09249,-0.0051 -0.03645,0.0033 -0.07591,0.01016 -0.111017,0.02038 -0.05509,0.01603 -0.104673,0.03355 -0.157983,0.05488 -0.01508,0.0061 -0.03411,0.01317 -0.0478,0.02161 0.01102,-0.0148 0.02888,-0.03015 0.04235,-0.04327 0.04808,-0.04696 0.09733,-0.08637 0.152919,-0.123834 0.04329,-0.02914 0.101502,-0.05695 0.152419,-0.06884 0.03717,-0.0087 0.0744,-0.01306 0.112575,-0.0092 0.244127,0.02485 0.341231,0.305788 0.362656,0.51404 0.0049,0.04818 0.0078,0.09659 0.0079,0.14505 1.11e-4,0.05198 -0.0017,0.103958 -0.004,0.155881 -0.0907,-0.113393 -0.148801,-0.243034 -0.204449,-0.37608 z"
           stroke="#191919"
           fill="#191919"
           stroke-width="0.0278697"
           fill-rule="evenodd"
           marker-start="none"
           marker-end="none"
           stroke-miterlimit="79.8403"
           id="path1201"
           style="font-size:16px;font-family:'Times New Roman';stroke-linejoin:bevel" />
        <path
           d="m 48.728822,19.473072 0.153364,-0.234492 0.199219,-0.178046 0.229712,-0.140305 0.244517,-0.122215 -0.168168,0.21657 -0.183971,0.196806 -0.214466,0.159175 z"
           stroke-width="0.0278697"
           stroke="none"
           fill="#191919"
           fill-rule="evenodd"
           marker-start="none"
           marker-end="none"
           stroke-miterlimit="79.8403"
           id="path1203"
           style="font-size:16px;font-family:'Times New Roman';stroke-linejoin:bevel" />
        <path
           d="m 49.194203,19.8362 0.104005,-0.250181 0.158929,-0.202501 0.19549,-0.170676 0.213131,-0.155379 -0.121645,0.234994 -0.140622,0.218357 -0.177182,0.186645 z"
           stroke-width="0.0278697"
           stroke="none"
           fill="#191919"
           fill-rule="evenodd"
           marker-start="none"
           marker-end="none"
           stroke-miterlimit="79.8403"
           id="path1205"
           style="font-size:16px;font-family:'Times New Roman';stroke-linejoin:bevel" />
        <path
           d="m 50.605091,21.070577 c 0.01424,-0.05354 0.03183,-0.100887 0.0601,-0.148735 0.116137,-0.196861 0.329713,-0.273965 0.550245,-0.246328 0.119142,0.01496 0.227988,0.05002 0.339062,0.09469 0.04068,0.01636 0.08091,0.03579 0.121868,0.0507 -0.03316,8.13e-4 -0.06694,-0.0016 -0.100166,-0.0024 -0.08531,-0.0021 -0.178073,-0.004 -0.26288,0.0038 -0.08497,0.0079 -0.162658,0.01597 -0.244848,0.04048 -0.222258,0.06621 -0.349191,0.244375 -0.47818,0.425827 -0.0062,-0.07219 -0.0039,-0.14773 0.01479,-0.218078 z"
           stroke-width="0.0278697"
           stroke="none"
           fill="#000000"
           fill-rule="evenodd"
           marker-start="none"
           marker-end="none"
           stroke-miterlimit="79.8403"
           id="path1207"
           style="font-size:16px;font-family:'Times New Roman';stroke-linejoin:bevel" />
        <path
           d="m 50.427799,19.954339 c 0.114635,-0.0436 0.263825,-0.06733 0.385472,-0.04572 0.07429,0.01323 0.140119,0.0335 0.205505,0.07225 0.02009,0.01189 0.03996,0.02473 0.05854,0.03891 0.0086,0.0065 0.02142,0.01881 0.03049,0.02317 -0.0088,-5.53e-4 -0.02933,-0.0093 -0.03918,-0.01229 -0.01948,-0.0058 -0.04001,-0.01128 -0.06005,-0.01485 -0.07379,-0.01312 -0.139732,-0.01323 -0.213575,-3.33e-4 -0.168558,0.02937 -0.345629,0.134164 -0.488976,0.223717 -0.158262,0.09888 -0.321532,0.193958 -0.491314,0.271396 0.131996,-0.256266 0.343623,-0.453797 0.61307,-0.556248 z"
           stroke-width="0.0278697"
           stroke="none"
           fill="#000000"
           fill-rule="evenodd"
           marker-start="none"
           marker-end="none"
           stroke-miterlimit="79.8403"
           id="path1209"
           style="font-size:16px;font-family:'Times New Roman';stroke-linejoin:bevel" />
        <path
           d="m 37.568248,26.767673 -0.0103,-0.05733 -0.0246,0.0024 c -0.04986,0.0013 -0.10484,-0.0062 -0.14958,-0.01356 -0.08809,-0.01447 -0.178128,-0.03266 -0.26505,-0.05293 -0.07907,-0.01842 -0.16021,-0.03562 -0.239841,-0.05131 -0.171451,-0.03372 -0.342734,-0.06811 -0.515743,-0.09313 -0.06071,-0.0088 -0.121367,-0.01809 -0.182245,-0.0259 -0.05581,-0.0072 -0.111908,-0.01312 -0.167611,-0.02043 -0.08091,-0.0106 -0.165718,-0.01904 -0.247076,-0.02513 -0.09265,-0.0069 -0.185028,-0.01614 -0.277848,-0.02188 -0.287142,-0.01776 -0.574339,-0.02987 -0.861982,-0.0354 0.08358,-0.04149 0.167055,-0.08067 0.254199,-0.11423 0.08047,-0.03099 0.160209,-0.05694 0.242679,-0.08174 0.110015,-0.03305 0.225317,-0.05622 0.338616,-0.07481 0.49365,-0.08101 0.991807,-0.02088 1.466926,0.125733 0.10395,0.03211 0.206064,0.06956 0.307899,0.107865 0.05837,0.02194 0.116415,0.04589 0.175123,0.06689 0.03539,0.01261 0.07028,0.02602 0.106509,0.03607 10e-4,3.17e-4 0.0037,9.61e-4 0.0071,0.0018 l 0.0032,8.13e-4 0.0015,-0.0049 c 0.0046,-0.01418 0.01352,-0.04093 0.01368,-0.04115 4.42e-4,-4.76e-4 0.04285,-0.0225 0.04613,-0.02417 l 0.03078,-0.01621 c 1.11e-4,0 0.04758,0.01396 0.04992,0.01491 0.0034,0.0013 0.03289,0.0094 0.03328,0.0099 0.002,0.0022 0.0236,0.04143 0.02554,0.04561 l 0.01703,0.03037 c 0.0021,0.0056 0.0025,0.01469 0.0039,0.02066 0.0041,0.01781 0.004,0.04433 0.0021,0.06247 -0.0013,0.01217 -0.0035,0.02367 -0.0066,0.03451 l -0.0049,0.01306 -0.04263,0.856398 c -0.04608,-0.224554 -0.08831,-0.449723 -0.130104,-0.675113 z m -0.05097,-0.281222 -0.0013,0.0021 c -0.0022,0.0055 -0.0029,0.01071 -0.0015,0.01502 0.0017,-0.0013 0.0023,-0.005 0.0025,-0.0089 z"
           stroke-width="0.0278697"
           stroke="none"
           fill="#000000"
           fill-rule="evenodd"
           marker-start="none"
           marker-end="none"
           stroke-miterlimit="79.8403"
           id="path1211"
           style="font-size:16px;font-family:'Times New Roman';stroke-linejoin:bevel" />
        <path
           d="m 38.826273,36.01939 -0.01297,-0.08358 -0.106008,-0.04729 -0.03511,-0.0278 -0.0027,0.02813 -0.143181,3.18e-4 -0.11163,-0.02842 -0.147187,-0.126347 -0.07551,-0.191668 -0.04095,-0.223271 0.220253,0.05969 0.183025,0.09363 0.06455,0.09223 0.009,-0.03049 0.09154,-0.164089 0.146855,0.120652 0.01497,0.01999 0.02426,-0.03545 0.09571,-0.04924 0.133666,-0.03032 0.05598,0.125452 0.01814,0.106304 -0.05593,0.166433 -0.142513,0.123052 z"
           stroke-width="0.0278697"
           stroke="none"
           fill="#000000"
           fill-rule="evenodd"
           marker-start="none"
           marker-end="none"
           stroke-miterlimit="79.8403"
           id="path1213"
           style="font-size:16px;font-family:'Times New Roman';stroke-linejoin:bevel" />
      </g>
    </g>
    <g
       aria-label="#backend"
       transform="matrix(0,-0.02960542,0.04159619,0,-1.3486308,-0.89023411)"
       id="backend"
       style="font-size:6.15934px;line-height:1.25;font-family:Impact;-inkscape-font-specification:Impact;stroke-width:0.153985">
      <path
         d="m -57.058164,73.802001 -0.141665,0.726802 h 0.492747 v 0.351082 h -0.5605 l -0.190939,1.010132 h 0.566659 v 0.351082 h -0.634412 l -0.147824,0.769918 h -0.388039 l 0.147824,-0.769918 h -1.084043 l -0.147825,0.769918 h -0.388038 l 0.147824,-0.769918 h -0.474269 v -0.351082 h 0.542022 l 0.190939,-1.010132 h -0.548181 v -0.351082 h 0.615934 l 0.141665,-0.726802 h 0.388038 l -0.141664,0.726802 h 1.084043 l 0.141665,-0.726802 z m -1.87244,2.088016 h 1.084044 l 0.19094,-1.010132 h -1.084044 z"
         style="font-family:'Zilla Slab';-inkscape-font-specification:'Zilla Slab'"
         id="path90740" />
      <path
         d="m -53.399519,75.569731 q 0,0.363401 -0.123187,0.708324 -0.123186,0.344923 -0.394197,0.572819 -0.271011,0.221736 -0.702165,0.221736 -0.689846,0 -0.960857,-0.517384 l -0.06159,0.455791 h -0.431153 q 0.02464,-0.178621 0.05543,-0.388039 0.0308,-0.209417 0.0308,-0.412675 v -3.08583 h -0.474269 v -0.351082 h 0.905423 v 2.063379 q 0.123187,-0.252533 0.351083,-0.437313 0.234054,-0.18478 0.628252,-0.18478 0.511225,0 0.84383,0.351082 0.332604,0.351082 0.332604,1.003972 z m -0.455791,0.04312 q 0,-0.511226 -0.240214,-0.769918 -0.240215,-0.258692 -0.585138,-0.258692 -0.394197,0 -0.628252,0.289489 -0.234055,0.289489 -0.246374,0.591297 v 0.412675 q 0,0.344923 0.240214,0.585138 0.246374,0.240214 0.603616,0.240214 0.449632,0 0.65289,-0.332605 0.203258,-0.332604 0.203258,-0.757598 z"
         style="font-family:'Zilla Slab';-inkscape-font-specification:'Zilla Slab'"
         id="path90742" />
      <path
         d="m -52.666555,74.479528 q 0.215577,-0.141665 0.455791,-0.203258 0.240214,-0.06159 0.511225,-0.06159 0.979335,0 0.979335,0.917741 v 1.30578 q 0,0.295649 0.234055,0.295649 0.104709,0 0.184781,-0.03696 l 0.0062,0.283329 q -0.166302,0.09239 -0.357242,0.09239 -0.486588,0 -0.498906,-0.55434 v -0.01232 q -0.129347,0.221736 -0.369561,0.394198 -0.234055,0.172461 -0.566659,0.172461 -0.271011,0 -0.554341,-0.166302 -0.27717,-0.166302 -0.27717,-0.603615 0,-0.517385 0.406516,-0.677528 0.412676,-0.166302 0.874627,-0.166302 0.123187,0 0.246373,0.0062 0.129346,0.0062 0.240215,0.01848 v -0.246374 q 0,-0.295648 -0.129347,-0.480429 -0.123186,-0.18478 -0.492747,-0.18478 -0.301807,0 -0.529703,0.110868 l -0.104709,0.47427 -0.357241,-0.04312 z m 1.515198,1.502879 V 75.77299 q -0.117028,-0.0062 -0.246374,-0.01848 -0.129346,-0.01232 -0.264852,-0.01232 -0.307967,0 -0.5605,0.09855 -0.246373,0.09239 -0.246373,0.412676 0,0.264852 0.166302,0.363401 0.166302,0.09855 0.344923,0.09855 0.28333,0 0.529703,-0.197099 0.252533,-0.197099 0.277171,-0.535863 z"
         style="font-family:'Zilla Slab';-inkscape-font-specification:'Zilla Slab'"
         id="path90744" />
      <path
         d="m -47.554305,76.087116 q -0.05543,0.357242 -0.326445,0.671368 -0.264851,0.314126 -0.831511,0.314126 -0.566659,0 -0.905423,-0.363401 -0.338763,-0.36956 -0.338763,-1.02861 0,-0.566659 0.320285,-1.016291 0.320286,-0.449631 0.960857,-0.449631 0.271011,0 0.498907,0.06159 0.227896,0.06159 0.437313,0.221736 l 0.104709,0.65905 -0.357242,0.04312 -0.104709,-0.461951 q -0.246373,-0.153983 -0.585137,-0.153983 -0.437313,0 -0.628253,0.314126 -0.190939,0.314127 -0.190939,0.757599 0,0.492747 0.215577,0.769918 0.215577,0.27717 0.622093,0.27717 0.615934,0 0.739121,-0.696006 z"
         style="font-family:'Zilla Slab';-inkscape-font-specification:'Zilla Slab'"
         id="path90746" />
      <path
         d="m -44.209783,77.011017 h -1.293461 v -0.351083 h 0.412676 l -0.75144,-0.93006 h -0.486588 v 0.93006 h 0.394198 v 0.351083 h -1.30578 v -0.351083 h 0.474269 v -3.535461 h -0.486588 v -0.351082 h 0.923901 v 2.623879 h 0.492747 l 0.628253,-0.776077 h -0.424994 v -0.351082 h 1.281142 v 0.351082 h -0.418835 l -0.732961,0.905423 0.905423,1.133318 h 0.388038 z"
         style="font-family:'Zilla Slab';-inkscape-font-specification:'Zilla Slab'"
         id="path90748" />
      <path
         d="m -41.567425,76.222621 q -0.05543,0.351083 -0.351082,0.603616 -0.295648,0.246373 -0.800714,0.246373 -0.578978,0 -0.93622,-0.363401 -0.357242,-0.363401 -0.357242,-1.02861 0,-0.640571 0.338764,-1.053247 0.338764,-0.412675 0.917742,-0.412675 0.566659,0 0.862307,0.357241 0.295649,0.357242 0.301808,0.84383 0,0.160143 -0.03696,0.326445 h -1.927873 q 0.03696,0.960857 0.868467,0.960857 0.326445,0 0.511225,-0.153984 0.18478,-0.153983 0.246373,-0.406516 z m -0.480428,-0.800714 q 0.0308,-0.307967 -0.147824,-0.578978 -0.172462,-0.271011 -0.572819,-0.271011 -0.381879,0 -0.5605,0.252533 -0.178621,0.252533 -0.221736,0.597456 z"
         style="font-family:'Zilla Slab';-inkscape-font-specification:'Zilla Slab'"
         id="path90750" />
      <path
         d="m -37.877985,77.011017 h -1.385851 v -0.351083 h 0.474269 v -1.274983 q 0,-0.443472 -0.178621,-0.622093 -0.178621,-0.18478 -0.455791,-0.18478 -0.36956,0 -0.597456,0.246373 -0.221736,0.240214 -0.234055,0.554341 v 1.281142 h 0.480429 v 0.351083 h -1.392011 v -0.351083 h 0.480428 v -2.038741 h -0.492747 v -0.351082 h 0.923901 v 0.486587 q 0.295648,-0.542021 0.960857,-0.542021 0.400357,0 0.671368,0.246373 0.271011,0.246374 0.271011,0.794555 v 1.404329 h 0.474269 z"
         style="font-family:'Zilla Slab';-inkscape-font-specification:'Zilla Slab'"
         id="path90752" />
      <path
         d="m -34.527305,77.011017 h -0.905423 v -0.554341 q -0.135505,0.246374 -0.36956,0.431154 -0.234055,0.18478 -0.609775,0.18478 -0.529703,0 -0.856148,-0.357241 -0.320286,-0.363402 -0.320286,-1.003973 0,-0.548181 0.28333,-1.02245 0.283329,-0.474269 0.954698,-0.474269 0.640571,0 0.917741,0.498906 v -1.58911 h -0.665209 v -0.351082 h 1.096363 v 3.886543 h 0.474269 z m -0.905423,-1.21339 v -0.437313 q -0.01232,-0.344923 -0.252533,-0.5605 -0.240214,-0.215577 -0.566659,-0.215577 -0.455791,0 -0.671368,0.332604 -0.209418,0.332605 -0.209418,0.763758 0,0.505066 0.234055,0.763759 0.240215,0.258692 0.597456,0.258692 0.369561,0 0.609775,-0.295648 0.246373,-0.301808 0.258692,-0.609775 z"
         style="font-family:'Zilla Slab';-inkscape-font-specification:'Zilla Slab'"
         id="path90754" />
    </g>
  </g>
  <g
     inkscape:groupmode="layer"
     id="layer3"
     inkscape:label="cuts"
     style="display:none">
    <rect
       style="fill:none;stroke:#008000;stroke-width:0.205765;stroke-dasharray:none"
       id="rect87074"
       width="44.450432"
       height="19.049997"
       x="28.57457"
       y="28.575001" />
    <rect
       style="fill:none;stroke:#ff00ff;stroke-width:0.214081;stroke-dasharray:none"
       id="rect87412"
       width="50.799767"
       height="25.398766"
       x="25.4"
       y="25.4" />
    <rect
       style="fill:none;stroke:#00ffff;stroke-width:0.220109;stroke-dasharray:none"
       id="rect87622"
       width="57.1754"
       height="31.775402"
       x="22.1996"
       y="22.1996" />
  </g>
</svg>
