<?xml version="1.0" standalone="no"?>
<!DOCTYPE svg PUBLIC "-//W3C//DTD SVG 1.1//EN" "http://www.w3.org/Graphics/SVG/1.1/DTD/svg11.dtd">
<!--Generator: Xara Designer (www.xara.com), SVG filter version: 3.0.0.4-->
<svg stroke-width="0.501" stroke-linejoin="bevel" fill-rule="evenodd" xmlns:xlink="http://www.w3.org/1999/xlink" xmlns="http://www.w3.org/2000/svg" version="1.1" overflow="visible" width="216pt" height="216pt" viewBox="0 0 216 216">
 <defs>
  <marker id="DefaultArrow2" markerUnits="strokeWidth" viewBox="0 0 1 1" markerWidth="1" markerHeight="1" overflow="visible" orient="auto">
   <!-- REF_ARROW_STRAIGHT (-2) -->
   <g transform="scale(0.0092592592)">
    <!-- 1/108 -->
    <path d="M -9 54 L -9 -54 L 117 0 z"/>
   </g>
  </marker>
  <marker id="DefaultArrow3" markerUnits="strokeWidth" viewBox="0 0 1 1" markerWidth="1" markerHeight="1" overflow="visible" orient="auto">
   <!-- REF_ARROW_ANGLED -->
   <g transform="scale(0.0092592592)">
    <path d="M -27 54 L -9 0 L -27 -54 L 135 0 z"/>
   </g>
  </marker>
  <marker id="DefaultArrow4" markerUnits="strokeWidth" viewBox="0 0 1 1" markerWidth="1" markerHeight="1" overflow="visible" orient="auto">
   <!-- REF_ARROW_ROUNDED -->
   <g transform="scale(0.0092592592)">
    <path d="M -9,0 L -9,-45 C -9,-51.708 2.808,-56.580 9,-54 L 117,-9 C 120.916,-7.369 126.000,-4.242 126,0 C 126,4.242 120.916,7.369 117,9 L 9,54 C 2.808,56.580 -9,51.708 -9,45 z"/>
   </g>
  </marker>
  <marker id="DefaultArrow5" markerUnits="strokeWidth" viewBox="0 0 1 1" markerWidth="1" markerHeight="1" overflow="visible" orient="auto">
   <!-- REF_ARROW_SPOT -->
   <g transform="scale(0.0092592592)">
    <path d="M -54, 0 C -54,29.807 -29.807,54 0,54 C 29.807,54 54,29.807 54,0 C 54,-29.807 29.807,-54 0,-54 C -29.807,-54 -54,-29.807 -54,0 z"/>
   </g>
  </marker>
  <marker id="DefaultArrow6" markerUnits="strokeWidth" viewBox="0 0 1 1" markerWidth="1" markerHeight="1" overflow="visible" orient="auto">
   <!-- REF_ARROW_DIAMOND -->
   <g transform="scale(0.0092592592)">
    <path d="M -63,0 L 0,63 L 63,0 L 0,-63 z"/>
   </g>
  </marker>
  <marker id="DefaultArrow7" markerUnits="strokeWidth" viewBox="0 0 1 1" markerWidth="1" markerHeight="1" overflow="visible" orient="auto">
   <!-- REF_ARROW_FEATHER -->
   <g transform="scale(0.0092592592)">
    <path d="M 18,-54 L 108,-54 L 63,0 L 108,54 L 18, 54 L -36,0 z"/>
   </g>
  </marker>
  <marker id="DefaultArrow8" markerUnits="strokeWidth" viewBox="0 0 1 1" markerWidth="1" markerHeight="1" overflow="visible" orient="auto">
   <!-- REF_ARROW_FEATHER2 -->
   <g transform="scale(0.0092592592)">
    <path d="M -36,0 L 18,-54 L 54,-54 L 18,-18 L 27,-18 L 63,-54 L 99,-54 L 63,-18 L 72,-18 L 108,-54 L 144,-54 L 90,0 L 144,54 L 108,54 L 72,18 L 63,18 L 99,54 L 63,54 L 27,18 L 18,18 L 54,54 L 18,54 z"/>
   </g>
  </marker>
  <marker id="DefaultArrow9" markerUnits="strokeWidth" viewBox="0 0 1 1" markerWidth="1" markerHeight="1" overflow="visible" orient="auto">
   <!-- REF_ARROW_HOLLOWDIAMOND -->
   <g transform="scale(0.0092592592)">
    <path d="M 0,45 L -45,0 L 0, -45 L 45, 0 z M 0, 63 L-63, 0 L 0, -63 L 63, 0 z"/>
   </g>
  </marker>
  <filter id="StainedFilter">
   <feBlend mode="multiply" in2="BackgroundImage" in="SourceGraphic" result="blend"/>
   <feComposite in="blend" in2="SourceAlpha" operator="in" result="comp"/>
  </filter>
  <filter id="BleachFilter">
   <feBlend mode="screen" in2="BackgroundImage" in="SourceGraphic" result="blend"/>
   <feComposite in="blend" in2="SourceAlpha" operator="in" result="comp"/>
  </filter>
  <filter id="InvertTransparencyBitmapFilter">
   <feComponentTransfer>
    <feFuncR type="gamma" amplitude="1.055" exponent=".416666666" offset="-0.055"/>
    <feFuncG type="gamma" amplitude="1.055" exponent=".416666666" offset="-0.055"/>
    <feFuncB type="gamma" amplitude="1.055" exponent=".416666666" offset="-0.055"/>
   </feComponentTransfer>
   <feComponentTransfer>
    <feFuncR type="linear" slope="-1" intercept="1"/>
    <feFuncG type="linear" slope="-1" intercept="1"/>
    <feFuncB type="linear" slope="-1" intercept="1"/>
    <feFuncA type="linear" slope="1" intercept="0"/>
   </feComponentTransfer>
   <feComponentTransfer>
    <feFuncR type="gamma" amplitude="1" exponent="2.4" offset="0"/>
    <feFuncG type="gamma" amplitude="1" exponent="2.4" offset="0"/>
    <feFuncB type="gamma" amplitude="1" exponent="2.4" offset="0"/>
   </feComponentTransfer>
  </filter>
 </defs>
 <g id="Document" fill="none" stroke="black" font-family="Times New Roman" font-size="16" transform="scale(1 -1)">
  <g id="Spread" transform="translate(0 -216)">
   <g id="MouseOff">
    <g id="Group">
     <path d="M 81.008,162.79 C 152.573,194.788 175.295,167.281 200.609,142.931 L 197.453,131.025 L 82.129,148.51 L 81.008,162.79 Z" stroke-linejoin="miter" fill="#29ace2" stroke="#ff0000" marker-start="none" marker-end="none"/>
     <path d="M 104.273,152.947 C 112.559,157.203 117.905,154.815 121.221,147.837 L 123.418,143.827 C 123.037,149.742 122.757,155.711 120.068,160.362 C 118.938,164.395 114.491,165.641 110.551,167.31 C 113.753,167.355 116.8,167.685 120.716,166.426 C 124.065,165.129 125.838,162.593 126.445,159.141 L 129.463,143.665 L 130.625,154.232 C 129.173,156.036 129.352,157.609 130.736,159.01 C 128.445,161.294 127.844,163.643 128.135,166.023 C 131.481,163.961 134.092,161.107 134.929,156.341 L 134.556,142.979 L 120.577,139.045 C 118.508,145.806 114.272,151.199 104.273,152.947 Z" fill="#191919" stroke-linejoin="miter" stroke="none" marker-start="none" marker-end="none"/>
     <path d="M 160.313,147.164 C 168.451,149 173.242,145.525 175.1,137.392 L 163.126,129.343 L 160.313,147.164 Z" stroke="#ffffff" fill="#e5e5e5" stroke-linejoin="miter" stroke-width="0.58" marker-start="none" marker-end="none" stroke-miterlimit="79.8403193612775"/>
     <path d="M 87.137,155.225 L 94.116,148.375 C 106.501,155.454 115.327,150.352 124.143,145.219 C 132.932,165.426 163.019,158.081 163.129,137.04 C 177.233,138.794 183.578,135.779 187.602,131.335 C 190.699,138.423 194.801,139.981 199.523,138.116 C 207.628,131.435 203,121.172 201.102,111.676 C 199.094,87.205 185.281,68.795 164.104,54.164 L 109.972,42.872 L 77.493,64.545 L 62.247,96.903 L 61.425,136.914 L 87.137,155.225 Z" stroke="#ffffff" fill="#cccccc" stroke-linejoin="miter" stroke-width="0.58" marker-start="none" marker-end="none" stroke-miterlimit="79.8403193612775"/>
     <path d="M 83.949,195.928 C 112.8,208.509 170.831,206.796 205.616,141.95 C 173.68,166.024 133.794,182.039 90.753,162.668 L 83.949,195.928 Z" stroke-linejoin="miter" stroke="#ffffff" fill="#53bce8" marker-start="none" marker-end="none"/>
     <g id="Group_1" stroke="none" fill="#ffffff" stroke-linejoin="miter">
      <path d="M 110.664,190.211 L 111.942,184.705 L 108.863,186.246 L 108.746,184.197 L 105.36,183.581 L 105.156,181.234 L 101.474,180.706 L 99.355,180.042 L 110.664,190.211 Z" marker-start="none" marker-end="none"/>
      <path d="M 109.267,175.543 L 110.162,180.254 L 107.526,177.817 L 105.542,178.716 L 103.528,177.862 L 98.023,176.582 L 109.267,175.543 Z" marker-start="none" marker-end="none"/>
     </g>
     <path d="M 36.324,52.621 C 31.355,62.87 25.728,75.627 24.509,71.566 C 23.289,72.444 22.104,73.839 21.417,82.85 C 20.066,83.224 18.99,82.727 18.526,80.271 C 18.08,83.082 20.648,91.712 20.486,93.551 C 19.684,95.23 16.546,97.66 13.866,90.888 C 10.433,97.348 17.409,104.885 16.392,105.913 C 14.521,106.878 12.258,105.598 9.749,102.935 C 9.928,105.79 12.382,114.623 18.3,120.621 C 19.173,122.547 14.393,126.872 5.986,120.069 C 6.873,123.374 8.04,130.392 17.892,136.375 C 17.915,141.918 8.593,139.87 4.73,136.261 C 6.444,140.084 6.814,143.584 16.45,149.304 C 17.689,153.946 11.378,152.25 6.072,148.913 C 5.08,151.423 11.601,158.648 19.22,164.776 C 19.989,167.744 14.219,164.523 10.262,161.801 C 12.939,166.719 11.918,169.783 24.467,174.209 C 22.573,178.579 18.646,177.397 13.486,172.835 C 13.438,175.087 16.893,178.726 21.295,182.741 C 22.52,186.113 73.881,198.249 82.242,195.946 L 96.31,191.408 L 110.121,195.46 L 111.786,190.953 L 96.682,178.043 C 100.877,176.987 102.659,176.898 111.005,175.999 L 103.577,170.897 C 100.359,171.522 97.422,171.055 94.799,169.399 L 91.159,159.128 L 88.165,162.784 C 87.53,155.251 86.47,148.071 83.339,142.597 C 81.706,145.547 80.512,150.005 77.077,146.777 C 76.535,137.62 74.547,130.733 69.303,128.949 C 69.331,133.293 67.699,133.092 65.569,131.535 C 62.993,128.311 62.487,124.001 65.433,117.891 C 73.956,113.403 80.408,107.783 83.373,100.249 L 101.334,95.858 C 110.099,100.288 118.101,105.317 123.31,112.533 C 123.021,112.912 122.298,114.286 118.549,118.2 C 118.001,123.04 117.931,127.316 123.495,124.883 C 117.645,123.67 122.038,121.709 128.368,119.609 C 132.575,124.049 134.053,130.261 131.134,139.329 C 139.841,134.658 137.109,127.489 134.575,120.362 C 146.298,128.154 147.551,134.209 146.7,139.913 C 153.115,133.347 149.571,125.509 138.868,116.756 C 145.031,118.197 148.642,120.703 151.34,123.59 C 152.064,116.827 143.809,113.305 132.067,111.043 C 128.548,102.895 126.599,93.827 118.767,88.201 L 124.12,87.492 C 119.478,85.345 114.49,83.557 109.374,82.391 L 113.782,79.18 C 106.549,75.973 97.456,77.004 88.741,78.903 L 79.282,73.967 C 79.245,63.674 102.928,53.955 120.619,52.805 L 117.917,48.678 C 125.898,46.878 135.073,48.696 146.784,58.206 L 146.101,52.206 C 168.745,61.658 179.662,74.014 183.328,88.162 L 186.749,80.105 C 195.489,96.486 198.882,113.634 193.368,132.057 L 201.304,124.822 C 203.264,138.348 196.814,145.797 190.362,153.248 L 192.907,154.642 C 186.107,165.5 177.262,172.447 165.676,174.144 L 168.312,176.58 C 162.59,179.518 158.332,183.034 146.872,183.698 L 133.239,178.004 L 129.506,179.149 L 137.741,185.189 C 134.073,184.83 130.698,182.868 127.372,180.626 C 125.188,182.74 126.944,185.643 117.626,183.848 C 121.884,186.946 122.198,188.257 127.563,189.338 L 135.486,189.375 C 135.506,192.446 132.853,192.802 128.648,191.585 C 133.195,198.114 140.213,192.626 146.791,189.281 C 160.32,185.964 173.905,183.294 186.6,170.385 L 187.871,171.082 C 221.044,129.672 209.79,111.889 207.975,89.089 L 209.297,88.487 C 200.774,63.67 188.805,40.034 153.776,24.304 L 155.284,22.153 C 128.197,11.893 101.531,9.738 75.644,22.535 L 75.742,19.94 C 64.268,28.157 56.945,29.707 36.324,52.621 Z" fill="#333333" stroke-linejoin="miter" stroke="none" marker-start="none" marker-end="none"/>
     <path d="M 91.693,189.497 C 84.851,190.803 79.125,191.335 74.388,191.184 C 76.098,190.092 77.955,189.496 79.311,187.181 C 84.161,182.444 89.128,185.113 91.693,189.497 Z" stroke-linejoin="miter" stroke="none" fill="#000000" marker-start="none" marker-end="none"/>
     <path d="M 79.686,190.117 C 85.371,190.666 88.31,189.712 90.375,188.279 C 88.986,187.191 87.459,186.354 85.793,185.767 C 82.036,186.275 77.454,190.375 79.686,190.117 Z" stroke-linejoin="miter" fill="#ff0000" stroke="#ff0000" marker-start="none" marker-end="none"/>
     <path d="M 78.764,72.193 L 81.637,68.307 C 72.159,63.488 65.125,67.037 58.161,70.834 C 56.603,71.772 56.454,73.179 61.175,76.209 L 54.05,76.523 L 64.747,79.655 C 66.362,79.759 65.027,76.867 62.379,72.649 C 65.195,70.272 68.738,68.512 78.764,72.193 Z" stroke-linejoin="miter" stroke="none" fill="#000000" marker-start="none" marker-end="none"/>
     <path d="M 74.583,113.561 C 76.854,136.24 110.196,137.976 117.648,118.787" fill="none" stroke-width="1.146" stroke="#ffffff" stroke-linecap="round" stroke-linejoin="round" stroke-miterlimit="79.8403193612775"/>
     <path d="M 152.608,110.141 C 154.44,128.433 181.33,129.831 187.34,114.355" fill="none" stroke-width="0.924" stroke="#ffffff" stroke-linecap="round" stroke-linejoin="round" stroke-miterlimit="79.8403193612775"/>
    </g>
   </g>
  </g>
 </g>
</svg>
