<?xml version="1.0" standalone="no"?>
<!-- Generator: Xara Xtreme (www.xara.com), SVG filter version: 0.4 -->
<!DOCTYPE svg PUBLIC "-//W3C//DTD SVG 1.1//EN" "http://www.w3.org/Graphics/SVG/1.1/DTD/svg11.dtd">
<svg stroke-width="0.501" stroke-linejoin="bevel" fill-rule="evenodd" xmlns:xlink="http://www.w3.org/1999/xlink" xmlns="http://www.w3.org/2000/svg" version="1.1" width="612pt" height="792pt" viewBox="0 0 612 792">
 <defs>
  <marker id="DefaultArrow2" markerUnits="strokeWidth" viewBox="0 0 1 1" markerWidth="1" markerHeight="1" overflow="visible" orient="auto">
   <!-- REF_ARROW_STRAIGHT (-2) -->
   <g transform="scale(0.0092592592)">
    <!-- 1/108 -->
    <path d="M -9 54 L -9 -54 L 117 0 z"/>
   </g>
  </marker>
  <marker id="DefaultArrow3" markerUnits="strokeWidth" viewBox="0 0 1 1" markerWidth="1" markerHeight="1" overflow="visible" orient="auto">
   <!-- REF_ARROW_ANGLED -->
   <g transform="scale(0.0092592592)">
    <path d="M -27 54 L -9 0 L -27 -54 L 135 0 z"/>
   </g>
  </marker>
  <marker id="DefaultArrow4" markerUnits="strokeWidth" viewBox="0 0 1 1" markerWidth="1" markerHeight="1" overflow="visible" orient="auto">
   <!-- REF_ARROW_ROUNDED -->
   <g transform="scale(0.0092592592)">
    <path d="M -9,0 L -9,-45 C -9,-51.708 2.808,-56.580 9,-54 L 117,-9 C 120.916,-7.369 126.000,-4.242 126,0 C 126,4.242 120.916,7.369 117,9 L 9,54 C 2.808,56.580 -9,51.708 -9,45 z"/>
   </g>
  </marker>
  <marker id="DefaultArrow5" markerUnits="strokeWidth" viewBox="0 0 1 1" markerWidth="1" markerHeight="1" overflow="visible" orient="auto">
   <!-- REF_ARROW_SPOT -->
   <g transform="scale(0.0092592592)">
    <path d="M -54, 0 C -54,29.807 -29.807,54 0,54 C 29.807,54 54,29.807 54,0 C 54,-29.807 29.807,-54 0,-54 C -29.807,-54 -54,-29.807 -54,0 z"/>
   </g>
  </marker>
  <marker id="DefaultArrow6" markerUnits="strokeWidth" viewBox="0 0 1 1" markerWidth="1" markerHeight="1" overflow="visible" orient="auto">
   <!-- REF_ARROW_DIAMOND -->
   <g transform="scale(0.0092592592)">
    <path d="M -63,0 L 0,63 L 63,0 L 0,-63 z"/>
   </g>
  </marker>
  <marker id="DefaultArrow7" markerUnits="strokeWidth" viewBox="0 0 1 1" markerWidth="1" markerHeight="1" overflow="visible" orient="auto">
   <!-- REF_ARROW_FEATHER -->
   <g transform="scale(0.0092592592)">
    <path d="M 18,-54 L 108,-54 L 63,0 L 108,54 L 18, 54 L -36,0 z"/>
   </g>
  </marker>
  <marker id="DefaultArrow8" markerUnits="strokeWidth" viewBox="0 0 1 1" markerWidth="1" markerHeight="1" overflow="visible" orient="auto">
   <!-- REF_ARROW_FEATHER2 -->
   <g transform="scale(0.0092592592)">
    <path d="M -36,0 L 18,-54 L 54,-54 L 18,-18 L 27,-18 L 63,-54 L 99,-54 L 63,-18 L 72,-18 L 108,-54 L 144,-54 L 90,0 L 144,54 L 108,54 L 72,18 L 63,18 L 99,54 L 63,54 L 27,18 L 18,18 L 54,54 L 18,54 z"/>
   </g>
  </marker>
  <marker id="DefaultArrow9" markerUnits="strokeWidth" viewBox="0 0 1 1" markerWidth="1" markerHeight="1" overflow="visible" orient="auto">
   <!-- REF_ARROW_HOLLOWDIAMOND -->
   <g transform="scale(0.0092592592)">
    <path d="M 0,45 L -45,0 L 0, -45 L 45, 0 z M 0, 63 L-63, 0 L 0, -63 L 63, 0 z"/>
   </g>
  </marker>
 </defs>
 <g id="Document" fill="none" stroke="black" font-family="Times New Roman" font-size="16" transform="scale(1 -1)">
  <g id="Spread" transform="translate(0 -792)">
   <g id="Layer 1">
    <path d="M 557.008,309.997 C 557.62,311.016 558.224,312.037 558.821,313.06 L 558.899,313.197 C 559.489,314.213 560.071,315.228 560.645,316.244 C 560.672,316.291 560.697,316.338 560.723,316.384 C 561.295,317.4 561.859,318.418 562.416,319.44 C 562.449,319.499 562.481,319.561 562.514,319.622 C 563.063,320.632 563.604,321.644 564.138,322.659 C 564.172,322.722 564.204,322.785 564.237,322.849 C 564.768,323.86 565.291,324.874 565.808,325.89 C 565.845,325.964 565.881,326.038 565.919,326.112 C 566.426,327.119 566.929,328.128 567.426,329.139 C 567.467,329.222 567.506,329.306 567.546,329.388 C 568.035,330.391 568.517,331.397 568.992,332.405 C 569.036,332.498 569.079,332.591 569.122,332.684 C 569.591,333.683 570.052,334.684 570.507,335.686 C 570.553,335.791 570.599,335.895 570.646,335.999 C 571.093,336.992 571.534,337.987 571.968,338.983 C 572.019,339.101 572.067,339.218 572.118,339.335 C 572.544,340.32 572.963,341.308 573.376,342.297 C 573.43,342.426 573.482,342.557 573.536,342.687 C 573.941,343.665 574.34,344.646 574.732,345.628 C 574.787,345.766 574.84,345.905 574.895,346.043 C 575.28,347.02 575.66,347.997 576.034,348.973 C 576.093,349.123 576.146,349.273 576.202,349.423 C 576.568,350.392 576.928,351.362 577.282,352.335 C 577.341,352.499 577.399,352.663 577.458,352.827 C 577.804,353.788 578.144,354.75 578.478,355.714 C 578.537,355.886 578.595,356.059 578.654,356.232 C 578.981,357.189 579.303,358.148 579.619,359.108 C 579.678,359.292 579.736,359.477 579.795,359.662 C 580.103,360.613 580.406,361.565 580.703,362.518 C 580.761,362.715 580.82,362.911 580.879,363.108 C 581.168,364.052 581.454,364.997 581.731,365.945 C 581.79,366.153 581.848,366.363 581.907,366.571 C 582.177,367.509 582.445,368.446 582.703,369.384 C 582.765,369.613 582.825,369.843 582.887,370.073 C 583.136,370.994 583.384,371.915 583.621,372.839 C 583.685,373.086 583.744,373.334 583.807,373.581 C 584.037,374.49 584.265,375.398 584.484,376.311 C 584.547,376.574 584.606,376.838 584.668,377.102 C 584.88,377.999 585.09,378.898 585.291,379.797 C 585.349,380.072 585.408,380.349 585.467,380.624 C 585.661,381.515 585.855,382.406 586.039,383.3 C 586.098,383.587 586.152,383.874 586.21,384.161 C 586.385,385.046 586.565,385.931 586.732,386.818 C 586.791,387.118 586.84,387.42 586.896,387.721 C 587.057,388.596 587.217,389.472 587.368,390.35 C 587.422,390.667 587.471,390.985 587.524,391.301 C 587.668,392.166 587.812,393.031 587.946,393.899 C 587.997,394.229 588.042,394.559 588.092,394.888 C 588.22,395.745 588.348,396.601 588.467,397.46 C 588.515,397.812 588.557,398.163 588.604,398.515 C 588.715,399.355 588.827,400.195 588.929,401.038 C 588.973,401.406 589.012,401.775 589.054,402.143 C 589.149,402.971 589.246,403.798 589.332,404.628 C 589.373,405.02 589.407,405.415 589.446,405.808 C 589.525,406.616 589.606,407.424 589.677,408.235 C 589.712,408.64 589.74,409.047 589.773,409.454 C 589.838,410.254 589.906,411.054 589.962,411.856 C 589.992,412.276 590.014,412.698 590.041,413.119 C 590.092,413.909 590.145,414.701 590.187,415.491 C 590.211,415.932 590.227,416.374 590.246,416.815 C 590.283,417.59 590.322,418.364 590.351,419.141 C 590.368,419.597 590.377,420.054 590.391,420.511 C 590.414,421.276 590.441,422.04 590.456,422.807 C 590.466,423.284 590.468,423.762 590.475,424.24 C 590.485,424.987 590.499,425.734 590.502,426.483 C 590.502,426.99 590.497,427.497 590.496,428.007 C 590.496,428.731 590.496,429.455 590.486,430.18 C 590.479,430.707 590.463,431.235 590.454,431.762 C 590.439,432.47 590.429,433.177 590.409,433.887 C 590.393,434.434 590.368,434.985 590.35,435.534 C 590.325,436.226 590.304,436.916 590.272,437.61 C 590.247,438.164 590.214,438.72 590.183,439.274 C 590.147,439.964 590.115,440.653 590.072,441.344 C 590.036,441.93 589.99,442.513 589.95,443.097 C 589.903,443.762 589.862,444.426 589.81,445.093 C 589.762,445.707 589.704,446.323 589.65,446.938 C 589.595,447.577 589.545,448.215 589.484,448.855 C 589.424,449.495 589.351,450.15 589.285,450.797 C 589.222,451.408 589.164,452.019 589.096,452.631 C 589.02,453.319 588.933,454.008 588.851,454.696 C 588.782,455.271 588.719,455.845 588.645,456.421 C 588.545,457.212 588.433,458.003 588.324,458.797 C 588.258,459.273 588.199,459.748 588.13,460.223 C 587.948,461.493 587.755,462.765 587.552,464.04 C 587.552,464.04 587.675,463.047 587.812,461.218 C 587.566,462.767 587.391,463.621 587.391,463.621 C 587.391,463.621 583.825,459.478 578.459,451.823 C 576.825,471.778 572.436,491.41 565.417,510.161 C 539.357,585.188 483.239,644.897 483.239,665.648 C 477.775,659.287 473.458,649.82 471.051,638.44 C 422.414,684.37 408.356,706.017 408.356,719.296 C 408.356,719.296 340.335,643.47 369.835,564.385 C 387.12,518.045 426.789,489.686 426.472,489.725 C 426.553,489.612 426.625,489.509 426.703,489.4 C 441.44,468.087 449.897,441.726 449.897,413.504 C 449.897,342.462 392.275,284.872 321.194,284.872 C 311.507,284.867 301.85,285.951 292.405,288.104 C 281.98,290.036 271.86,293.349 262.31,297.953 C 263.099,297.438 263.9,296.921 264.713,296.401 C 242.757,310.42 229.781,322.873 222.424,334.018 C 251.382,323.956 285.103,325.728 305.295,336.882 C 318.822,344.412 336.174,356.473 346.851,353.495 C 346.605,353.593 346.367,353.683 346.123,353.778 C 346.796,353.661 347.459,353.495 348.107,353.282 C 357.962,349.997 365.809,359.532 358.771,369.417 C 351.874,379.287 333.927,393.422 307.28,389.506 C 286.896,386.537 268.223,372.069 241.514,386.081 C 239.794,386.975 238.121,387.957 236.502,389.023 C 234.741,390.06 242.226,387.444 240.479,388.623 C 235.282,391.153 226.081,396.667 223.696,398.627 C 223.298,398.954 227.729,397.361 227.329,397.69 C 219.038,403.807 213.846,409.264 210.634,414.113 C 210.942,413.628 211.267,413.142 211.608,412.654 C 202.242,425.994 206.166,438.19 208.422,443.906 C 209.966,447.211 213.337,450.374 216.193,452.353 C 215.977,452.203 215.759,452.047 215.539,451.884 C 216.642,452.668 217.824,453.333 219.067,453.867 C 222.758,452.062 225.059,450.684 225.059,450.684 C 225.059,450.684 223.484,453.567 222.632,455.086 C 222.931,455.2 223.215,455.171 223.511,455.285 C 226.536,453.977 233.224,450.58 236.745,448.505 C 241.332,445.607 242.793,443.022 242.793,443.022 C 242.793,443.022 244.001,443.617 243.107,446.145 C 242.781,447.182 241.391,450.476 236.848,453.8 L 237.133,453.772 C 239.829,452.397 242.404,450.795 244.828,448.983 C 246.109,453.155 248.413,457.512 247.906,465.306 C 247.597,470.786 247.74,472.206 246.662,474.322 C 245.697,476.138 247.203,476.848 248.878,474.959 C 248.588,476.449 248.107,477.895 247.446,479.262 L 247.46,479.403 C 247.46,479.403 248.419,480.649 248.861,481.11 C 256.983,489.565 291.011,502.449 294.208,504.278 C 297.732,506.505 311.142,516.303 311.735,532.16 C 311.966,537.299 309.3,540.75 266.805,544.736 C 249.321,546.35 242.626,562.51 240.585,569.311 C 240.565,569.259 240.547,569.207 240.526,569.155 L 240.526,569.155 C 240.504,569.247 240.474,569.348 240.453,569.437 C 247.431,587.704 259.996,603.301 276.359,614.006 C 277.296,614.772 272.609,613.809 273.546,614.575 C 274.641,615.469 281.786,618.048 283.136,618.629 C 284.785,619.324 276.079,622.637 268.395,621.832 C 260.568,621.042 258.906,620.205 254.729,618.618 C 256.463,620.164 261.975,622.192 260.683,622.177 C 252.245,621.018 241.757,616.623 232.792,611.646 C 232.776,612.519 232.961,613.383 233.333,614.173 C 229.156,612.585 218.898,606.161 215.911,600.725 C 216.043,601.767 216.103,602.816 216.092,603.866 C 212.947,601.522 210.077,598.829 207.538,595.839 L 207.381,595.711 C 183.154,604.456 161.835,605.022 143.794,601.101 L 143.612,601.264 C 143.751,601.297 143.823,601.314 143.823,601.314 C 140.217,603.97 132.381,611.641 124.663,627.616 C 124.053,628.681 123.726,625.416 123.257,626.467 C 119.768,634.56 117.645,647.678 118.147,656.948 C 118.147,656.948 110.93,653.659 104.956,639.921 C 103.847,637.451 103.136,636.089 102.425,634.727 C 102.098,634.329 103.166,639.238 102.996,638.971 C 101.958,637.213 99.272,634.757 98.105,631.72 C 97.138,629.236 96.143,627.903 95.403,624.823 C 95.175,623.985 95.632,628.527 95.433,627.974 C 82.66,603.284 79.388,566.973 80.081,562.624 C 80.075,562.532 80.074,562.431 80.066,562.342 C 72.448,553.645 67.258,546.28 65.296,542.463 C 55.446,527.248 44.593,503.532 34.074,466.019 C 38.754,476.266 44.35,486.069 50.795,495.309 C 42.048,475.397 33.59,444.129 31.902,395.975 C 34.025,405.94 36.739,415.77 40.03,425.413 C 38.519,393.303 42.259,353.495 62.558,308.581 C 74.611,282.163 102.356,228.513 170.148,186.647 L 170.142,186.643 C 170.142,186.643 193.205,169.475 232.848,156.609 C 235.777,155.546 238.745,154.499 241.774,153.484 C 240.823,153.868 239.904,154.271 239.011,154.686 C 265.398,146.78 292.794,142.754 320.339,142.733 C 417.871,142.65 450.058,179.855 453.023,183.562 C 457.959,188.213 461.71,193.113 464.065,197.985 C 506.076,217.369 551.452,248.837 555.722,295.305 C 555.65,294.737 555.545,294.175 555.41,293.619 C 556.207,298.004 556.095,302.505 555.082,306.845 C 555.711,307.861 556.332,308.878 556.946,309.897 Z" stroke="none" fill="#000000" stroke-width="1" stroke-linejoin="miter" fill-rule="evenodd" marker-start="none" marker-end="none" stroke-miterlimit="79.8403193612775"/>
   </g>
  </g>
 </g>
</svg>
