<?xml version="1.0" standalone="no"?>
<!DOCTYPE svg PUBLIC "-//W3C//DTD SVG 1.1//EN" "http://www.w3.org/Graphics/SVG/1.1/DTD/svg11.dtd">
<!--Generator: Xara Designer (www.xara.com), SVG filter version: 5.0.0.2-->
<svg stroke-width="0.501" stroke-linejoin="bevel" fill-rule="evenodd" xmlns:xlink="http://www.w3.org/1999/xlink" xmlns="http://www.w3.org/2000/svg" version="1.1" overflow="visible" width="144pt" height="144pt" viewBox="0 0 144 144">
 <defs>
  <marker id="DefaultArrow2" markerUnits="strokeWidth" viewBox="0 0 1 1" markerWidth="1" markerHeight="1" overflow="visible" orient="auto">
   <!-- REF_ARROW_STRAIGHT (-2) -->
   <g transform="scale(0.0092592592)">
    <!-- 1/108 -->
    <path d="M -9 54 L -9 -54 L 117 0 z"/>
   </g>
  </marker>
  <marker id="DefaultArrow3" markerUnits="strokeWidth" viewBox="0 0 1 1" markerWidth="1" markerHeight="1" overflow="visible" orient="auto">
   <!-- REF_ARROW_ANGLED -->
   <g transform="scale(0.0092592592)">
    <path d="M -27 54 L -9 0 L -27 -54 L 135 0 z"/>
   </g>
  </marker>
  <marker id="DefaultArrow4" markerUnits="strokeWidth" viewBox="0 0 1 1" markerWidth="1" markerHeight="1" overflow="visible" orient="auto">
   <!-- REF_ARROW_ROUNDED -->
   <g transform="scale(0.0092592592)">
    <path d="M -9,0 L -9,-45 C -9,-51.708 2.808,-56.580 9,-54 L 117,-9 C 120.916,-7.369 126.000,-4.242 126,0 C 126,4.242 120.916,7.369 117,9 L 9,54 C 2.808,56.580 -9,51.708 -9,45 z"/>
   </g>
  </marker>
  <marker id="DefaultArrow5" markerUnits="strokeWidth" viewBox="0 0 1 1" markerWidth="1" markerHeight="1" overflow="visible" orient="auto">
   <!-- REF_ARROW_SPOT -->
   <g transform="scale(0.0092592592)">
    <path d="M -54, 0 C -54,29.807 -29.807,54 0,54 C 29.807,54 54,29.807 54,0 C 54,-29.807 29.807,-54 0,-54 C -29.807,-54 -54,-29.807 -54,0 z"/>
   </g>
  </marker>
  <marker id="DefaultArrow6" markerUnits="strokeWidth" viewBox="0 0 1 1" markerWidth="1" markerHeight="1" overflow="visible" orient="auto">
   <!-- REF_ARROW_DIAMOND -->
   <g transform="scale(0.0092592592)">
    <path d="M -63,0 L 0,63 L 63,0 L 0,-63 z"/>
   </g>
  </marker>
  <marker id="DefaultArrow7" markerUnits="strokeWidth" viewBox="0 0 1 1" markerWidth="1" markerHeight="1" overflow="visible" orient="auto">
   <!-- REF_ARROW_FEATHER -->
   <g transform="scale(0.0092592592)">
    <path d="M 18,-54 L 108,-54 L 63,0 L 108,54 L 18, 54 L -36,0 z"/>
   </g>
  </marker>
  <marker id="DefaultArrow8" markerUnits="strokeWidth" viewBox="0 0 1 1" markerWidth="1" markerHeight="1" overflow="visible" orient="auto">
   <!-- REF_ARROW_FEATHER2 -->
   <g transform="scale(0.0092592592)">
    <path d="M -36,0 L 18,-54 L 54,-54 L 18,-18 L 27,-18 L 63,-54 L 99,-54 L 63,-18 L 72,-18 L 108,-54 L 144,-54 L 90,0 L 144,54 L 108,54 L 72,18 L 63,18 L 99,54 L 63,54 L 27,18 L 18,18 L 54,54 L 18,54 z"/>
   </g>
  </marker>
  <marker id="DefaultArrow9" markerUnits="strokeWidth" viewBox="0 0 1 1" markerWidth="1" markerHeight="1" overflow="visible" orient="auto">
   <!-- REF_ARROW_HOLLOWDIAMOND -->
   <g transform="scale(0.0092592592)">
    <path d="M 0,45 L -45,0 L 0, -45 L 45, 0 z M 0, 63 L-63, 0 L 0, -63 L 63, 0 z"/>
   </g>
  </marker>
  <filter id="StainedFilter">
   <feBlend mode="multiply" in2="BackgroundImage" in="SourceGraphic" result="blend"/>
   <feComposite in="blend" in2="SourceAlpha" operator="in" result="comp"/>
  </filter>
  <filter id="BleachFilter">
   <feBlend mode="screen" in2="BackgroundImage" in="SourceGraphic" result="blend"/>
   <feComposite in="blend" in2="SourceAlpha" operator="in" result="comp"/>
  </filter>
  <filter id="InvertTransparencyBitmapFilter">
   <feComponentTransfer>
    <feFuncR type="gamma" amplitude="1.055" exponent=".416666666" offset="-0.055"/>
    <feFuncG type="gamma" amplitude="1.055" exponent=".416666666" offset="-0.055"/>
    <feFuncB type="gamma" amplitude="1.055" exponent=".416666666" offset="-0.055"/>
   </feComponentTransfer>
   <feComponentTransfer>
    <feFuncR type="linear" slope="-1" intercept="1"/>
    <feFuncG type="linear" slope="-1" intercept="1"/>
    <feFuncB type="linear" slope="-1" intercept="1"/>
    <feFuncA type="linear" slope="1" intercept="0"/>
   </feComponentTransfer>
   <feComponentTransfer>
    <feFuncR type="gamma" amplitude="1" exponent="2.4" offset="0"/>
    <feFuncG type="gamma" amplitude="1" exponent="2.4" offset="0"/>
    <feFuncB type="gamma" amplitude="1" exponent="2.4" offset="0"/>
   </feComponentTransfer>
  </filter>
  <linearGradient id="LinearGradient" gradientUnits="userSpaceOnUse" x1="0" y1="0" x2="18.166" y2="0" gradientTransform="translate(76.773 106.93) rotate(80.9037) skewX(0.50551)">
   <stop offset="0" stop-color="#ffffff"/>
   <stop offset="1" stop-color="#ffffff"/>
  </linearGradient>
  <linearGradient id="LinearGradient_1" gradientUnits="userSpaceOnUse" x1="0" y1="0" x2="13.894" y2="0" gradientTransform="translate(77.413 105.835) rotate(88.6968)">
   <stop offset="0" stop-color="#ffffff"/>
   <stop offset="1" stop-color="#ffffff"/>
  </linearGradient>
 </defs>
 <g id="Document" fill="none" stroke="black" font-family="Times New Roman" font-size="16" transform="scale(1 -1)">
  <g id="Spread" transform="translate(0 -144)">
   <g id="Layer 1"/>
   <g id="Layer 2">
    <path d="M 64.881,126.164 C 61.348,97.693 64.304,73.665 65.214,48.237 L 99.46,38.327 C 100.695,44.13 101.751,49.995 100.123,56.781 C 100.068,64.302 101.387,71.253 105.774,76.946 C 104.457,79.768 103.099,81.865 102.781,102.239 C 102.285,113.841 104.641,118.848 107.771,122.061 L 87.823,126.505 L 64.881,126.164 Z" fill="#004214" stroke-linejoin="miter" stroke="none" stroke-width="0.007" stroke-linecap="round" marker-start="none" marker-end="none" stroke-miterlimit="79.8403193612775"/>
    <path d="M 26.647,126.505 C 28.858,121.813 31.97,111.809 29.64,106.339 C 29.649,96.171 29.546,86.35 27.647,82.073 C 30.625,80.192 31.625,70.181 32.633,60.2 C 34.648,41.087 32.64,38.528 31.302,33.197 L 69.868,45.161 C 65.931,71.904 58.142,96.665 62.886,127.874 C 50.808,124.97 38.728,124.887 26.647,126.505 Z" fill="#004214" stroke-linejoin="miter" stroke="none" stroke-width="0.007" stroke-linecap="round" marker-start="none" marker-end="none" stroke-miterlimit="79.8403193612775"/>
    <path d="M 54.242,64.927 L 48.902,51.728 C 49.165,45.093 55.39,42.575 59.136,41.304 L 60.206,68.047 C 57.723,68.642 55.623,67.962 54.242,64.927 Z" stroke-linejoin="miter" stroke="none" stroke-width="0.047" fill="#999999" stroke-linecap="round" marker-start="none" marker-end="none" stroke-miterlimit="79.8403193612775"/>
    <path d="M 58.765,70.11 C 61.396,57.197 53.432,52.667 47.591,40.717 L 80.842,39.35 C 80.284,53.443 81.414,60.213 74.845,71.48 L 58.765,70.11 Z" fill="#999999" stroke-linejoin="miter" stroke="none" stroke-width="0.047" stroke-linecap="round" marker-start="none" marker-end="none" stroke-miterlimit="79.8403193612775"/>
    <path d="M 43.317,105.838 C 65.19,119.914 73.691,118.012 87.869,109.834 L 91.457,111.198 C 79.852,123.613 67.035,125.93 40.799,108.273 L 43.317,105.838 Z" fill="#191919" stroke-linejoin="miter" stroke-width="0.063" stroke="none" stroke-linecap="round" marker-start="none" marker-end="none" stroke-miterlimit="79.8403193612775"/>
    <g id="Group" stroke-linejoin="miter" stroke-linecap="round" stroke="none" stroke-width="0.063" stroke-miterlimit="79.8403193612775">
     <path d="M 39.793,108.414 C 30.873,100.106 28.166,91.032 33.816,83.429 L 41.161,80.805 C 36.328,87.872 36.718,99.063 44.988,106.56 L 39.793,108.414 Z" fill="#4c4c4c" marker-start="none" marker-end="none"/>
     <path d="M 47.164,105.228 C 44.711,108.43 40.848,105.921 38.542,99.627 C 36.236,93.334 36.354,85.626 38.807,82.424 C 41.26,79.222 45.123,81.731 47.429,88.025 C 49.735,94.318 49.616,102.026 47.164,105.228 Z" fill="#000000" marker-start="none" marker-end="none"/>
    </g>
    <path d="M 45.894,100.472 C 56.002,110.587 70.462,112.969 82.272,106.298 C 86.6,103.853 91.166,100.67 93.449,97.291 C 93.126,97.198 92.893,95.791 92.641,95.242 C 93.061,94.422 94.19,94.272 94.564,93.939 C 93.352,92.631 92.635,92.449 92.495,92.331 C 93.299,92.018 93.775,91.416 94.448,90.732 C 92.998,89.871 91.853,89.743 91.869,89.49 C 92.421,89.375 92.824,88.495 93.601,88.179 C 92.079,86.599 89.273,82.06 85.901,78.76 C 75.795,68.645 61.461,66.758 49.65,73.433 C 46.223,75.367 43.472,79.369 40.175,79.585 C 40.342,79.972 40.958,80.296 41.277,80.988 C 40.743,80.65 39.83,81.463 39.646,81.85 C 39.868,82.041 40.923,83.18 40.652,83.669 C 40.37,83.314 38.833,84.381 38.762,85.111 C 38.883,85.029 41.895,85.316 41.77,86.149 C 41.296,86.375 39.044,87.783 39.11,88.337 C 41.664,90.962 40.705,96.541 45.894,100.472 Z" fill="#7f4100" stroke="none" stroke-linecap="round" stroke-width="0.105" stroke-linejoin="miter" marker-start="none" marker-end="none" stroke-miterlimit="79.8403193612775"/>
    <path d="M 54.373,84.016 C 60.523,88.874 69.085,90.243 75.919,87.385 C 77.915,86.547 79.84,85.475 81.412,84.604 C 82.166,84.182 86.059,84.894 86.096,84.745 C 86.183,84.415 82.681,82.185 82.517,82.098 C 82.08,81.872 86.583,82.166 86.916,82.111 C 87.375,82.037 82.883,80.183 82.722,80.017 C 81.847,78.93 85.651,79.364 86.676,79.497 C 86.951,78.645 81.446,77.08 80.422,77.046 C 80.191,76.309 78.649,75.623 77.534,74.741 C 71.383,69.883 62.901,68.747 56.07,71.607 C 55.328,71.917 54.28,72.61 53.956,72.51 C 52.763,72.153 50.892,72.296 50.271,72.75 C 51.041,73.394 51.038,74.377 50.755,74.709 C 50.474,74.904 48.315,74.841 48.165,75.54 C 48.771,75.639 50.028,76.341 49.878,76.796 C 49.698,76.669 48.189,77.333 48.317,77.786 C 48.662,77.857 50.028,78.335 50.138,78.903 C 50.719,80.634 52.181,82.29 54.373,84.016 Z" fill="#ffffff" stroke="none" stroke-linecap="round" stroke-width="0.051" stroke-linejoin="miter" marker-start="none" marker-end="none" stroke-miterlimit="79.8403193612775"/>
    <path d="M 59.051,84.256 C 53.498,78.683 56.48,73.857 60.358,69.941 C 58.707,70.024 56.944,70.266 54.875,70.95 L 53.894,72.58 C 53.267,72.357 52.277,72.501 51.175,72.756 C 52.363,73.506 53.221,74.272 53.736,75.055 C 52.581,75.07 51.405,75.156 50.186,75.382 C 51.416,75.967 52.478,76.682 53.478,77.444 C 52.658,77.39 51.752,77.64 50.808,78.013 C 51.809,78.418 52.711,78.913 53.357,79.648 L 54.096,82.675 L 59.051,84.256 Z" fill="#7f4100" stroke="none" stroke-linejoin="miter" stroke-width="0.051" stroke-linecap="round" marker-start="none" marker-end="none" stroke-miterlimit="79.8403193612775"/>
    <path d="M 54.169,87.798 C 55.553,88.908 57.629,88.745 58.801,87.435 C 59.973,86.125 59.801,84.16 58.417,83.05 C 57.033,81.94 54.957,82.103 53.785,83.413 C 52.613,84.723 52.785,86.688 54.169,87.798 Z" fill="#000000" stroke="none" stroke-linecap="round" stroke-linejoin="miter" stroke-width="0.042" marker-start="none" marker-end="none" stroke-miterlimit="79.8403193612775"/>
    <path d="M 70.467,86.009 C 73.604,80.292 74.038,75.639 73.106,71.859 C 74.656,72.574 76.277,73.489 78.081,74.933 L 78.627,76.835 C 79.275,76.87 80.184,77.387 81.173,78.058 C 79.858,78.297 78.862,78.68 78.182,79.21 C 79.278,79.672 80.377,80.209 81.483,80.895 C 80.17,80.961 78.991,81.218 77.857,81.543 C 78.649,81.81 79.452,82.395 80.26,83.112 C 79.21,83.103 78.232,83.216 77.44,83.646 L 76.133,85.998 L 70.467,86.009 Z" fill="#7f4100" stroke="none" stroke-linejoin="miter" stroke-width="0.051" stroke-linecap="round" marker-start="none" marker-end="none" stroke-miterlimit="79.8403193612775"/>
    <path d="M 70.598,90.992 C 72.138,92.228 74.449,92.047 75.754,90.588 C 77.059,89.129 76.868,86.94 75.328,85.704 C 73.788,84.468 71.477,84.649 70.172,86.108 C 68.867,87.567 69.058,89.756 70.598,90.992 Z" fill="#000000" stroke="none" stroke-linecap="round" stroke-linejoin="miter" stroke-width="0.047" marker-start="none" marker-end="none" stroke-miterlimit="79.8403193612775"/>
    <path d="M 61.248,79.966 C 63.033,80.821 65.469,80.966 66.683,80.29 C 67.897,79.614 67.435,78.369 65.65,77.514 C 63.865,76.659 61.429,76.514 60.215,77.19 C 59.001,77.866 59.463,79.111 61.248,79.966 Z" fill="#000000" stroke="none" stroke-linecap="round" stroke-linejoin="miter" stroke-width="0.051" marker-start="none" marker-end="none" stroke-miterlimit="79.8403193612775"/>
    <path d="M 71.772,106.601 C 75.284,111.415 73.901,122.569 79.138,127.437 C 82.119,131.002 85.272,118.072 86.811,111.506 L 88.214,101.395 C 84.714,103.639 78.496,106.471 71.772,106.601 Z" stroke="#666666" stroke-linejoin="miter" stroke-width="0.063" stroke-linecap="round" marker-start="none" marker-end="none" stroke-miterlimit="79.8403193612775" fill="url(#LinearGradient)"/>
    <path d="M 81.16,104.364 C 82.396,110.875 82.905,117.227 82.054,123.285 C 84.37,117.217 86.171,111.041 87.78,104.821 L 81.16,104.364 Z" fill="#7f4100" stroke="none" stroke-linejoin="miter" stroke-width="0.063" stroke-linecap="round" marker-start="none" marker-end="none" stroke-miterlimit="79.8403193612775"/>
    <path d="M 82.141,109.88 C 80.868,97.575 84.724,88.951 93.865,87.148 L 101.043,90.222 C 92.862,92.184 85.904,100.799 87.218,112.053 L 82.141,109.88 Z" stroke-linejoin="miter" stroke-linecap="round" stroke="none" stroke-width="0.063" fill="#191919" marker-start="none" marker-end="none" stroke-miterlimit="79.8403193612775"/>
    <path d="M 85.581,109.788 C 86.557,113.738 91.078,113.056 95.671,108.267 C 100.264,103.478 103.199,96.384 102.223,92.434 C 101.247,88.484 96.726,89.166 92.133,93.955 C 87.54,98.744 84.605,105.838 85.581,109.788 Z" fill="#4c4c4c" stroke-linejoin="miter" stroke-linecap="round" stroke="none" stroke-width="0.063" marker-start="none" marker-end="none" stroke-miterlimit="79.8403193612775"/>
    <path d="M 53.901,105.51 C 49.43,109.445 46.626,114.545 40.967,120.061 C 36.868,121.922 38.939,109.528 40.045,103.259 L 42.394,96.184 C 44.742,99.531 47.787,102.669 53.901,105.51 Z" stroke="#7f4100" stroke-linejoin="miter" stroke-width="0.063" stroke-linecap="round" marker-start="none" marker-end="none" stroke-miterlimit="79.8403193612775" fill="url(#LinearGradient_1)"/>
    <path d="M 56.865,91.289 C 55.989,91.68 55.876,92.368 56.614,92.821 C 57.352,93.274 58.663,93.324 59.539,92.933 C 60.415,92.542 60.528,91.854 59.79,91.401 C 59.052,90.948 57.741,90.898 56.865,91.289 Z" fill="#ffffff" stroke-linecap="round" stroke-linejoin="miter" stroke-width="0.066" stroke="none" marker-start="none" marker-end="none" stroke-miterlimit="79.8403193612775"/>
    <path d="M 69.167,93.945 C 70.115,93.753 70.389,93.109 69.779,92.508 C 69.169,91.907 67.903,91.575 66.955,91.767 C 66.007,91.959 65.733,92.603 66.343,93.204 C 66.953,93.805 68.219,94.137 69.167,93.945 Z" fill="#ffffff" stroke-linecap="round" stroke-linejoin="miter" stroke-width="0.066" stroke="none" marker-start="none" marker-end="none" stroke-miterlimit="79.8403193612775"/>
    <path d="M 74.19,67.376 C 76.208,69.262 79.337,69.108 81.172,67.033 C 83.007,64.958 82.858,61.742 80.84,59.856 C 78.822,57.97 75.693,58.124 73.858,60.199 C 72.023,62.274 72.172,65.49 74.19,67.376 Z" stroke-linecap="round" stroke-linejoin="miter" stroke="none" stroke-width="0.047" fill="#999999" marker-start="none" marker-end="none" stroke-miterlimit="79.8403193612775"/>
    <path d="M 56.171,66.944 C 58.19,68.831 61.319,68.678 63.153,66.603 C 64.987,64.528 64.838,61.311 62.819,59.424 C 60.8,57.537 57.671,57.69 55.837,59.765 C 54.003,61.84 54.152,65.057 56.171,66.944 Z" fill="#999999" stroke-linecap="round" stroke-linejoin="miter" stroke="none" stroke-width="0.047" marker-start="none" marker-end="none" stroke-miterlimit="79.8403193612775"/>
    <path d="M 79.11,54.982 C 81.128,56.868 84.258,56.715 86.093,54.64 C 87.928,52.565 87.78,49.348 85.762,47.462 C 83.744,45.576 80.614,45.729 78.779,47.804 C 76.944,49.879 77.092,53.096 79.11,54.982 Z" stroke-linecap="round" stroke-linejoin="miter" stroke="none" stroke-width="0.047" fill="#999999" marker-start="none" marker-end="none" stroke-miterlimit="79.8403193612775"/>
    <path d="M 82.035,47.305 C 82.856,44.978 80.759,42.631 77.354,42.069 C 73.949,41.507 70.516,42.94 69.695,45.267 C 68.874,47.594 70.971,49.941 74.376,50.503 C 77.781,51.065 81.214,49.632 82.035,47.305 Z" fill="#000000" stroke-linecap="round" stroke-linejoin="miter" stroke="none" stroke-width="0.047" marker-start="none" marker-end="none" stroke-miterlimit="79.8403193612775"/>
    <path d="M 82.035,65.319 L 87.375,52.118 C 87.112,45.482 80.884,42.967 77.142,41.694 L 76.072,68.441 C 78.555,69.031 80.654,68.352 82.035,65.319 Z" fill="#999999" stroke-linejoin="miter" stroke="none" stroke-width="0.047" stroke-linecap="round" marker-start="none" marker-end="none" stroke-miterlimit="79.8403193612775"/>
    <g id="Group_1" stroke-linejoin="miter" stroke-linecap="round" stroke="none" stroke-width="0.042" fill="#666666" stroke-miterlimit="79.8403193612775">
     <path d="M 37.351,57.817 L 44.337,36.662 L 77.567,36.662 L 70.581,57.817 L 37.351,57.817 Z" marker-start="none" marker-end="none"/>
     <path d="M 84.754,40.966 L 77.768,36.654 L 44.539,36.654 L 51.525,40.966 L 84.754,40.966 Z" marker-start="none" marker-end="none"/>
    </g>
    <path d="M 59.191,32.39 C 58.294,36.403 59.998,40.806 63.087,43.028 C 62.674,43.364 62.361,43.836 62.226,44.404 C 61.908,45.747 62.709,47.107 64.016,47.44 C 65.178,47.73 66.351,47.114 66.823,46.029 C 67.151,46.529 67.655,46.912 68.269,47.069 C 69.576,47.398 70.899,46.574 71.222,45.228 C 71.276,44.989 71.3,44.745 71.287,44.512 C 71.477,44.621 71.685,44.707 71.906,44.764 C 73.211,45.093 74.538,44.267 74.857,42.923 C 75.152,41.685 74.494,40.433 73.37,39.986 C 73.541,39.556 73.681,39.099 73.79,38.617 C 74.824,33.986 72.392,28.831 68.366,27.114 C 64.336,25.397 60.228,27.761 59.191,32.39 Z" fill="#000000" stroke="#999999" stroke-linejoin="round" stroke-linecap="round" stroke-width="0.348" marker-start="none" marker-end="none" stroke-miterlimit="79.8403193612775"/>
    <path d="M 66.46,37.101 C 66.447,37.232 66.447,37.36 66.463,37.485 C 66.282,37.516 66.111,37.583 65.956,37.676 C 65.711,37.416 65.381,37.245 65.006,37.202 C 64.142,37.108 63.363,37.752 63.271,38.643 C 63.181,39.53 63.807,40.328 64.671,40.424 C 65.013,40.459 65.345,40.382 65.625,40.216 C 65.87,40.471 66.199,40.646 66.574,40.688 C 67.44,40.785 68.217,40.139 68.31,39.25 C 68.322,39.118 68.322,38.991 68.303,38.865 C 68.974,38.742 69.515,38.177 69.591,37.446 C 69.683,36.558 69.058,35.759 68.192,35.661 C 67.328,35.565 66.552,36.21 66.46,37.101 Z" stroke-linejoin="round" stroke-linecap="round" stroke="#999999" stroke-width="0.348" fill="#b2b2b2" marker-start="none" marker-end="none" stroke-miterlimit="79.8403193612775"/>
    <path d="M 45.216,29.482 C 41.928,31.834 40.311,36.271 41.15,40.054 C 40.622,40.015 40.08,40.149 39.613,40.474 C 38.495,41.25 38.2,42.811 38.952,43.96 C 39.623,44.978 40.892,45.333 41.95,44.857 C 41.867,45.453 41.991,46.083 42.341,46.622 C 43.096,47.77 44.614,48.074 45.733,47.299 C 45.93,47.162 46.105,46.999 46.251,46.816 C 46.319,47.027 46.415,47.235 46.542,47.43 C 47.297,48.575 48.815,48.882 49.929,48.105 C 50.96,47.395 51.292,46.013 50.749,44.901 C 51.16,44.701 51.564,44.46 51.957,44.18 C 55.748,41.464 57.318,35.972 55.459,31.914 C 53.599,27.859 49.007,26.769 45.216,29.482 Z" stroke-linejoin="round" stroke-linecap="round" stroke="#999999" stroke-width="0.348" fill="#000000" marker-start="none" marker-end="none" stroke-miterlimit="79.8403193612775"/>
    <path d="M 47.521,37.992 C 47.424,38.078 47.341,38.177 47.272,38.278 C 47.117,38.18 46.947,38.11 46.773,38.071 C 46.757,37.711 46.626,37.353 46.374,37.062 C 45.797,36.395 44.8,36.338 44.152,36.932 C 43.503,37.526 43.446,38.551 44.021,39.216 C 44.251,39.482 44.549,39.65 44.862,39.721 C 44.878,40.082 45.009,40.439 45.261,40.73 C 45.838,41.397 46.834,41.457 47.483,40.863 C 47.58,40.775 47.663,40.679 47.732,40.573 C 48.309,40.947 49.079,40.899 49.613,40.411 C 50.262,39.818 50.322,38.792 49.743,38.126 C 49.165,37.459 48.169,37.398 47.521,37.992 Z" stroke-linejoin="round" stroke-linecap="round" stroke="#999999" stroke-width="0.348" fill="#b2b2b2" marker-start="none" marker-end="none" stroke-miterlimit="79.8403193612775"/>
    <path d="M 53.91,84.23 L 55.19,82.842 C 56.402,82.749 57.275,82.883 57.838,83.238 C 57.412,83.375 57.382,83.263 56.953,84.078 C 56.521,83.483 55.048,84.096 53.91,84.23 Z" stroke-linecap="round" fill="#999999" stroke-width="0.124" stroke="#000000" stroke-linejoin="miter" marker-start="none" marker-end="none" stroke-miterlimit="79.8403193612775"/>
    <path d="M 70.343,86.669 L 71.622,85.283 C 72.836,85.188 73.712,85.325 74.271,85.68 C 73.844,85.816 73.814,85.705 73.385,86.517 C 72.953,85.922 71.483,86.535 70.343,86.669 Z" stroke-linecap="round" fill="#999999" stroke-width="0.124" stroke="#000000" stroke-linejoin="miter" marker-start="none" marker-end="none" stroke-miterlimit="79.8403193612775"/>
    <path d="M 88.124,51.346 C 84.665,45.878 80.026,40.893 72.166,39.591 C 64.801,32.818 64.646,27.998 70.57,24.825 C 83.553,24.151 88.145,30.871 94.508,36.035 C 97.913,43.982 99.733,51.115 88.124,51.346 Z" fill="#7f4100" stroke-linejoin="miter" stroke="none" stroke-width="0.007" stroke-linecap="round" marker-start="none" marker-end="none" stroke-miterlimit="79.8403193612775"/>
    <path d="M 85.628,47.506 C 90.57,43.011 94.262,38.477 91.862,33.747 L 93.858,35.202 C 96.752,43.725 94.153,48.228 87.208,49.555 L 85.628,47.506 Z" fill="#ffffff" stroke-linejoin="miter" stroke="none" stroke-width="0.007" stroke-linecap="round" marker-start="none" marker-end="none" stroke-miterlimit="79.8403193612775"/>
    <path d="M 81.889,43.405 C 88.788,38.751 90.381,34.477 87.872,30.5 L 84.714,27.851 C 88.211,30.679 86.435,34.982 77.9,41.184 L 81.889,43.405 Z" fill="#ffffff" stroke-linejoin="miter" stroke="none" stroke-width="0.007" stroke-linecap="round" marker-start="none" marker-end="none" stroke-miterlimit="79.8403193612775"/>
    <path d="M 67.76,34.26 C 76.177,35.391 77.06,30.898 76.319,25.203 C 75.513,24.995 74.094,24.835 70.334,24.861 C 66.316,27.188 66.239,30.357 67.76,34.26 Z" fill="#ffffff" stroke-linejoin="miter" stroke="none" stroke-width="0.007" stroke-linecap="round" marker-start="none" marker-end="none" stroke-miterlimit="79.8403193612775"/>
    <path d="M 87.931,49.511 L 88.333,30.172 C 91.202,27.252 97.848,28.774 104.74,30.583 L 104.942,49.922 C 102.301,53.012 97.459,54.059 87.931,49.511 Z" fill="#cccccc" stroke="#000000" stroke-width="0.057" marker-start="none" marker-end="none" stroke-miterlimit="79.8403193612775"/>
    <path d="M 89.127,47.107 L 89.462,33.721 C 91.86,31.7 97.417,32.753 103.179,34.008 L 103.346,47.39 C 101.139,49.527 97.091,50.254 89.127,47.107 Z" fill="#7f4100" stroke="#000000" stroke-width="0.057" marker-start="none" marker-end="none" stroke-miterlimit="79.8403193612775"/>
    <path d="M 87.897,49.402 L 88.301,30.117 C 91.204,27.21 97.93,28.727 104.905,30.529 L 105.107,49.811 C 96.946,45.313 91.27,45.275 87.897,49.402 Z" fill="#cccccc" stroke="#000000" stroke-width="0.057" marker-start="none" marker-end="none" stroke-miterlimit="79.8403193612775"/>
    <path d="M 97.701,41.374 L 97.701,34.379 L 102.104,34.379 L 102.104,41.374 L 97.701,41.374 Z" stroke-width="0.057" stroke="#000000" fill="#7f4100" stroke-linejoin="miter" marker-start="none" marker-end="none" stroke-miterlimit="79.8403193612775"/>
    <path d="M 98.102,47.548 C 100.425,50.337 100.207,44.637 100.102,39.32" fill="none" stroke-linejoin="round" stroke-linecap="round" stroke-width="0.171" stroke-miterlimit="79.8403193612775"/>
    <path d="M 28.643,32.856 C 31.145,37.733 31.637,46.753 30.637,58.834 C 31.032,66.608 30.411,74.211 25.319,81.048 C 27.253,87.799 28.839,95.143 27.978,106.681 C 29.184,111.475 29.217,116.866 24.988,124.456 C 23.465,127.415 18.677,128.356 12.686,128.557 C 9.297,122.382 8.614,115.81 11.355,108.733 C 8.826,99.708 9.752,91.693 13.35,84.466 C 11.686,75.313 9.488,65.795 14.014,60.883 C 12.325,52.812 10.251,44.662 13.682,37.64 C 8.46,35.135 9.294,32.63 10.025,30.123 C 16.544,30.385 23.149,30.484 28.643,32.856 Z" fill="#269247" stroke-linejoin="miter" stroke="none" stroke-width="0.007" stroke-linecap="round" marker-start="none" marker-end="none" stroke-miterlimit="79.8403193612775"/>
    <path d="M 14.229,129.924 L 25.958,128.216 C 35.663,126.294 44.002,126.834 51.693,128.557 C 66.663,127.62 78.265,127.695 87.261,128.557 C 93.595,126.571 99.76,124.89 105.048,124.798 C 109.961,124.463 114.84,124.175 117.534,126.85 C 122.304,127.128 122.652,130.071 121.32,134.024 C 111.182,135.292 104.681,135.464 103.533,134.024 C 102.453,137.025 96.181,138.981 86.127,140.179 C 75.463,140.214 64.478,140.683 56.232,137.443 C 52.013,136.259 48.051,134.762 40.339,137.784 C 37.228,138.904 34.518,140.117 26.716,140.179 C 23.185,138.178 19.652,137.539 16.119,139.15 C 12.108,135.639 11.276,132.537 14.229,129.924 Z" fill="#269247" stroke-linejoin="miter" stroke="none" stroke-width="0.007" stroke-linecap="round" marker-start="none" marker-end="none" stroke-miterlimit="79.8403193612775"/>
    <path d="M 104.51,28.506 C 102.005,33.383 101.515,42.403 102.514,54.483 C 102.124,62.259 102.744,69.862 107.832,76.698 C 105.899,83.448 104.313,90.793 105.175,102.334 C 103.967,107.124 103.933,112.519 108.168,120.105 C 109.686,123.064 114.474,124.01 120.47,124.207 C 123.853,118.03 124.535,111.459 121.798,104.384 C 124.325,95.357 123.403,87.342 119.803,80.116 C 121.465,70.966 123.664,61.445 119.137,56.532 C 120.828,48.46 122.901,40.312 119.469,33.293 C 124.695,30.785 123.855,28.278 123.126,25.773 C 116.607,26.035 110.006,26.134 104.51,28.506 Z" fill="#269247" stroke-linejoin="miter" stroke="none" stroke-width="0.007" stroke-linecap="round" marker-start="none" marker-end="none" stroke-miterlimit="79.8403193612775"/>
    <path d="M 122.4,124.798 C 124.751,114.262 125.203,107.635 124.061,104.29 C 126.189,89.038 124.794,83.186 122.4,80.023 C 125.583,58.297 124.061,56.9 122.4,56.098 C 124.233,42.176 123.946,36.977 123.065,34.225 C 126.083,32.182 126.028,29.087 126.054,26.022 C 126.806,23.948 130.218,29.125 134.474,32.134 C 136.054,33.661 135.538,38.968 133.465,41.104 C 134.741,43.207 135.937,44.847 133.701,48.237 C 137.392,51.011 135.24,55.498 132.373,60.2 C 134.68,62.954 136.344,66.369 133.037,74.898 C 135.415,75.75 136.365,79.298 133.369,90.275 C 134.921,91.699 134.816,95.115 131.044,102.925 C 132.634,105.992 131.372,109.551 127.719,113.517 C 128.522,114.827 129.802,115.155 127.386,123.09 L 128.715,127.188 C 126.61,125.261 124.506,123.93 122.4,124.798 Z" fill="#004214" stroke-linejoin="miter" stroke="none" stroke-width="0.007" stroke-linecap="round" marker-start="none" marker-end="none" stroke-miterlimit="79.8403193612775"/>
    <path d="M 123.729,127.188 C 125.169,126.141 126.61,127.162 128.051,130.606 L 127.719,133.684 C 126.662,132.774 124.731,133.667 122.73,134.708 C 123.8,132.202 124.468,129.697 123.729,127.188 Z" fill="#004214" stroke-linejoin="miter" stroke="none" stroke-width="0.007" stroke-linecap="round" marker-start="none" marker-end="none" stroke-miterlimit="79.8403193612775"/>
    <g id="Group_2" fill-rule="nonzero" stroke-linejoin="round" stroke-linecap="round" stroke="none" stroke-width="0.339" fill="#000000" stroke-miterlimit="79.8403193612775">
     <path d="M 29.322,15.678 L 26.702,15.678 L 26.702,16.793 L 27.032,16.793 L 27.032,19.187 C 27.032,19.768 26.934,20.178 26.735,20.418 C 26.536,20.658 26.257,20.778 25.894,20.778 C 25.427,20.778 25.086,20.616 24.869,20.289 C 24.653,19.963 24.54,19.591 24.532,19.174 L 24.532,16.793 L 25.419,16.793 L 25.419,15.678 L 22.799,15.678 L 22.799,16.793 L 23.116,16.793 L 23.116,19.187 C 23.116,19.768 23.017,20.178 22.817,20.418 C 22.62,20.658 22.344,20.778 21.991,20.778 C 21.532,20.778 21.192,20.618 20.971,20.296 C 20.751,19.974 20.636,19.604 20.628,19.187 L 20.628,16.793 L 21.739,16.793 L 21.739,15.678 L 18.325,15.678 L 18.325,16.793 L 19.212,16.793 L 19.212,20.656 L 18.339,20.656 L 18.339,21.785 L 20.628,21.785 L 20.628,20.778 C 20.813,21.115 21.06,21.386 21.369,21.595 C 21.678,21.803 22.053,21.908 22.493,21.908 C 22.935,21.908 23.331,21.796 23.685,21.574 C 24.037,21.352 24.284,21.005 24.426,20.534 C 24.601,20.951 24.858,21.284 25.193,21.534 C 25.528,21.783 25.939,21.908 26.424,21.908 C 26.962,21.908 27.435,21.731 27.84,21.377 C 28.245,21.024 28.449,20.471 28.449,19.717 L 28.449,16.793 L 29.322,16.793 L 29.322,15.678 Z" marker-start="none" marker-end="none"/>
     <path d="M 35.992,18.725 C 35.992,17.772 35.699,17.004 35.112,16.419 C 34.524,15.833 33.764,15.541 32.829,15.541 C 31.92,15.541 31.191,15.823 30.639,16.385 C 30.088,16.947 29.811,17.709 29.811,18.67 C 29.811,19.558 30.072,20.323 30.593,20.963 C 31.113,21.602 31.886,21.922 32.909,21.922 C 33.941,21.922 34.712,21.604 35.224,20.969 C 35.736,20.335 35.992,19.586 35.992,18.725 Z M 34.522,18.766 C 34.522,19.418 34.37,19.917 34.067,20.262 C 33.762,20.607 33.367,20.778 32.882,20.778 C 32.38,20.778 31.986,20.595 31.705,20.228 C 31.422,19.86 31.281,19.368 31.281,18.752 C 31.281,18.172 31.415,17.682 31.684,17.282 C 31.953,16.884 32.352,16.685 32.882,16.685 C 33.394,16.685 33.795,16.877 34.086,17.262 C 34.377,17.648 34.522,18.149 34.522,18.766 Z" marker-start="none" marker-end="none"/>
     <path d="M 41.946,15.678 L 36.825,15.678 L 36.706,16.467 L 40.094,20.67 L 37.938,20.67 L 37.699,19.623 L 36.653,19.731 L 36.852,21.785 L 41.908,21.785 L 41.999,20.983 L 38.546,16.793 L 40.875,16.793 L 41.166,17.854 L 42.291,17.718 L 41.946,15.678 Z" marker-start="none" marker-end="none"/>
     <path d="M 43.829,23.051 L 43.829,24.655 L 45.271,24.655 L 45.271,23.051 L 43.829,23.051 Z M 46.197,15.678 L 43.021,15.678 L 43.021,16.793 L 43.908,16.793 L 43.908,20.656 L 42.968,20.656 L 42.968,21.785 L 45.31,21.785 L 45.31,16.793 L 46.197,16.793 L 46.197,15.678 Z" marker-start="none" marker-end="none"/>
     <path d="M 49.876,15.678 L 46.7,15.678 L 46.7,16.793 L 47.587,16.793 L 47.587,23.922 L 46.646,23.922 L 46.646,25.037 L 48.989,25.037 L 48.989,16.793 L 49.876,16.793 L 49.876,15.678 Z" marker-start="none" marker-end="none"/>
     <path d="M 53.552,15.678 L 50.377,15.678 L 50.377,16.793 L 51.263,16.793 L 51.263,23.922 L 50.323,23.922 L 50.323,25.037 L 52.666,25.037 L 52.666,16.793 L 53.552,16.793 L 53.552,15.678 Z" marker-start="none" marker-end="none"/>
     <path d="M 54.768,21.337 C 55.209,21.555 55.602,21.704 55.945,21.785 C 56.29,21.867 56.686,21.908 57.136,21.908 C 57.798,21.908 58.343,21.735 58.771,21.391 C 59.198,21.047 59.412,20.529 59.412,19.841 L 59.412,17.092 C 59.412,16.729 59.558,16.548 59.849,16.548 C 59.928,16.548 60.03,16.566 60.154,16.603 L 60.166,15.8 C 59.875,15.627 59.558,15.541 59.214,15.541 C 58.465,15.541 58.059,15.945 57.996,16.752 L 57.996,16.779 C 57.82,16.462 57.57,16.177 57.249,15.922 C 56.927,15.669 56.528,15.541 56.051,15.541 C 55.636,15.541 55.228,15.671 54.827,15.929 C 54.427,16.187 54.225,16.639 54.225,17.282 C 54.225,18.036 54.517,18.532 55.099,18.772 C 55.681,19.012 56.311,19.132 56.991,19.132 C 57.158,19.132 57.331,19.128 57.507,19.12 C 57.683,19.11 57.847,19.097 57.996,19.078 L 57.996,19.418 C 57.996,19.781 57.935,20.108 57.811,20.398 C 57.688,20.688 57.38,20.833 56.885,20.833 C 56.7,20.833 56.526,20.82 56.363,20.792 C 56.2,20.766 56.042,20.71 55.892,20.63 L 55.655,19.691 L 54.517,19.813 L 54.768,21.337 Z M 57.996,18.099 L 57.996,18.317 C 57.847,18.335 57.692,18.352 57.534,18.371 C 57.375,18.389 57.212,18.398 57.044,18.398 C 56.691,18.398 56.376,18.335 56.098,18.207 C 55.82,18.081 55.681,17.827 55.681,17.446 C 55.681,16.893 55.967,16.616 56.542,16.616 C 56.877,16.616 57.194,16.741 57.494,16.99 C 57.794,17.24 57.962,17.609 57.996,18.099 Z" marker-start="none" marker-end="none"/>
     <path d="M 24.611,12.973 L 24.332,11.504 L 25.167,11.504 L 25.167,10.388 L 24.121,10.388 L 23.777,8.498 L 24.769,8.498 L 24.769,7.382 L 23.566,7.382 L 23.288,5.886 L 22.058,5.886 L 22.335,7.382 L 20.402,7.382 L 20.124,5.886 L 18.894,5.886 L 19.172,7.382 L 18.391,7.382 L 18.391,8.498 L 19.383,8.498 L 19.727,10.388 L 18.788,10.388 L 18.788,11.504 L 19.94,11.504 L 20.218,12.973 L 21.449,12.973 L 21.171,11.504 L 23.102,11.504 L 23.38,12.973 L 24.611,12.973 Z M 20.615,8.498 L 22.547,8.498 L 22.891,10.388 L 20.959,10.388 L 20.615,8.498 Z" marker-start="none" marker-end="none"/>
     <path d="M 26.861,13.259 L 26.861,14.864 L 28.303,14.864 L 28.303,13.259 L 26.861,13.259 Z M 29.23,5.886 L 26.054,5.886 L 26.054,7.002 L 26.941,7.002 L 26.941,10.865 L 26.001,10.865 L 26.001,11.994 L 28.344,11.994 L 28.344,7.002 L 29.23,7.002 L 29.23,5.886 Z" marker-start="none" marker-end="none"/>
     <path d="M 37.091,5.886 L 33.915,5.886 L 33.915,7.002 L 34.788,7.002 L 34.788,9.395 C 34.788,9.976 34.687,10.386 34.484,10.627 C 34.281,10.867 33.999,10.987 33.637,10.987 C 33.186,10.987 32.832,10.838 32.572,10.538 C 32.312,10.239 32.176,9.872 32.167,9.437 L 32.167,7.002 L 33.055,7.002 L 33.055,5.886 L 29.866,5.886 L 29.866,7.002 L 30.752,7.002 L 30.752,10.865 L 29.825,10.865 L 29.825,11.994 L 32.167,11.994 L 32.167,11.001 C 32.582,11.744 33.24,12.116 34.139,12.116 C 34.704,12.116 35.189,11.94 35.595,11.586 C 36.001,11.233 36.204,10.679 36.204,9.926 L 36.204,7.002 L 37.091,7.002 L 37.091,5.886 Z" marker-start="none" marker-end="none"/>
     <path d="M 42.41,7.682 C 42.242,6.394 41.545,5.75 40.318,5.75 C 39.683,5.75 39.178,5.923 38.803,6.267 C 38.429,6.611 38.241,7.092 38.241,7.709 L 38.241,10.919 L 37.368,10.919 L 37.368,11.994 L 38.241,11.994 L 38.241,13.885 L 39.657,13.885 L 39.657,11.994 L 41.867,11.994 L 41.867,10.919 L 39.657,10.919 L 39.657,7.94 C 39.657,7.296 39.93,6.974 40.477,6.974 C 40.628,6.974 40.795,7.031 40.98,7.145 C 41.165,7.258 41.294,7.55 41.363,8.021 L 42.41,7.682 Z" marker-start="none" marker-end="none"/>
     <path d="M 46.381,12.09 C 46.778,12.09 47.148,11.976 47.492,11.749 L 47.744,9.845 L 46.645,9.709 L 46.421,10.756 C 46.244,10.847 46.094,10.892 45.97,10.892 C 45.724,10.892 45.511,10.788 45.329,10.579 C 45.148,10.371 45.058,10.081 45.058,9.709 L 45.058,7.002 L 46.236,7.002 L 46.236,5.886 L 42.755,5.886 L 42.755,7.002 L 43.642,7.002 L 43.642,10.865 L 42.715,10.865 L 42.715,11.994 L 44.952,11.994 L 44.952,10.851 C 45.058,11.196 45.228,11.488 45.461,11.729 C 45.695,11.969 46.002,12.09 46.381,12.09 Z" marker-start="none" marker-end="none"/>
     <path d="M 54.626,8.934 C 54.626,7.981 54.333,7.213 53.747,6.628 C 53.159,6.042 52.399,5.75 51.463,5.75 C 50.555,5.75 49.825,6.031 49.273,6.593 C 48.722,7.155 48.446,7.918 48.446,8.878 C 48.446,9.767 48.707,10.531 49.227,11.171 C 49.747,11.81 50.519,12.13 51.543,12.13 C 52.576,12.13 53.347,11.812 53.858,11.177 C 54.37,10.543 54.626,9.795 54.626,8.934 Z M 53.157,8.974 C 53.157,9.627 53.005,10.126 52.7,10.47 C 52.397,10.815 52.002,10.987 51.515,10.987 C 51.013,10.987 50.62,10.804 50.338,10.437 C 50.056,10.069 49.915,9.577 49.915,8.96 C 49.915,8.38 50.05,7.89 50.319,7.491 C 50.587,7.092 50.987,6.893 51.515,6.893 C 52.027,6.893 52.429,7.085 52.72,7.471 C 53.012,7.857 53.157,8.358 53.157,8.974 Z" marker-start="none" marker-end="none"/>
     <path d="M 61.746,10.878 L 61.097,10.878 L 58.967,5.886 L 57.934,5.886 L 55.685,10.878 L 55.023,10.878 L 55.023,11.994 L 57.934,11.994 L 57.934,10.878 L 57.207,10.878 L 58.543,7.777 L 58.623,7.777 L 59.734,10.878 L 59.072,10.878 L 59.072,11.994 L 61.746,11.994 L 61.746,10.878 Z" marker-start="none" marker-end="none"/>
     <path d="M 67.832,7.749 C 67.78,7.215 67.524,6.747 67.065,6.349 C 66.606,5.949 65.976,5.75 65.173,5.75 C 64.308,5.75 63.599,6.01 63.042,6.532 C 62.487,7.054 62.209,7.822 62.209,8.838 C 62.209,9.772 62.462,10.552 62.969,11.177 C 63.477,11.804 64.186,12.116 65.093,12.116 C 65.914,12.116 66.564,11.865 67.046,11.362 C 67.526,10.858 67.771,10.221 67.78,9.45 C 67.78,9.196 67.753,8.924 67.701,8.634 L 63.691,8.634 C 63.771,7.491 64.299,6.92 65.279,6.92 C 65.738,6.92 66.066,7.033 66.264,7.26 C 66.464,7.487 66.594,7.726 66.655,7.981 L 67.832,7.749 Z M 66.324,9.531 C 66.36,9.894 66.278,10.236 66.08,10.559 C 65.881,10.88 65.547,11.041 65.081,11.041 C 64.657,11.041 64.335,10.896 64.115,10.606 C 63.894,10.316 63.757,9.958 63.704,9.531 L 66.324,9.531 Z" marker-start="none" marker-end="none"/>
     <path d="M 72.187,12.09 C 72.583,12.09 72.953,11.976 73.297,11.749 L 73.549,9.845 L 72.45,9.709 L 72.226,10.756 C 72.049,10.847 71.899,10.892 71.775,10.892 C 71.529,10.892 71.315,10.788 71.134,10.579 C 70.953,10.371 70.862,10.081 70.862,9.709 L 70.862,7.002 L 72.04,7.002 L 72.04,5.886 L 68.561,5.886 L 68.561,7.002 L 69.447,7.002 L 69.447,10.865 L 68.52,10.865 L 68.52,11.994 L 70.757,11.994 L 70.757,10.851 C 70.862,11.196 71.032,11.488 71.267,11.729 C 71.5,11.969 71.807,12.09 72.187,12.09 Z" marker-start="none" marker-end="none"/>
     <path d="M 79.082,7.682 C 78.914,6.394 78.217,5.75 76.99,5.75 C 76.356,5.75 75.851,5.923 75.475,6.267 C 75.101,6.611 74.913,7.092 74.913,7.709 L 74.913,10.919 L 74.04,10.919 L 74.04,11.994 L 74.913,11.994 L 74.913,13.885 L 76.329,13.885 L 76.329,11.994 L 78.539,11.994 L 78.539,10.919 L 76.329,10.919 L 76.329,7.94 C 76.329,7.296 76.602,6.974 77.149,6.974 C 77.3,6.974 77.467,7.031 77.652,7.145 C 77.837,7.258 77.966,7.55 78.036,8.021 L 79.082,7.682 Z" marker-start="none" marker-end="none"/>
     <path d="M 84.615,7.709 C 84.615,7.074 84.361,6.588 83.854,6.253 C 83.347,5.918 82.7,5.75 81.915,5.75 C 81.492,5.75 81.066,5.799 80.638,5.9 C 80.21,6 79.825,6.148 79.481,6.349 L 79.692,7.927 L 80.803,7.817 L 80.79,7.028 C 80.957,6.956 81.136,6.906 81.326,6.879 C 81.516,6.852 81.686,6.838 81.836,6.838 C 82.198,6.838 82.513,6.904 82.782,7.035 C 83.05,7.167 83.186,7.364 83.186,7.627 C 83.186,7.881 83.064,8.063 82.821,8.171 C 82.579,8.28 82.277,8.364 81.915,8.423 C 81.553,8.482 81.192,8.564 80.83,8.668 C 80.468,8.772 80.167,8.944 79.924,9.185 C 79.68,9.425 79.559,9.786 79.559,10.266 C 79.559,10.974 79.823,11.458 80.347,11.722 C 80.872,11.985 81.426,12.116 82.008,12.116 C 82.776,12.116 83.498,11.931 84.178,11.559 L 84.323,10.049 L 83.212,9.913 L 83.093,10.824 C 82.749,10.96 82.4,11.028 82.047,11.028 C 81.774,11.028 81.542,10.971 81.353,10.858 C 81.163,10.744 81.068,10.566 81.068,10.32 C 81.068,10.067 81.187,9.89 81.426,9.79 C 81.664,9.69 81.959,9.611 82.312,9.552 C 82.665,9.493 83.018,9.412 83.371,9.307 C 83.723,9.203 84.019,9.03 84.258,8.791 C 84.495,8.55 84.615,8.189 84.615,7.709 Z" marker-start="none" marker-end="none"/>
    </g>
    <path d="M 78.798,92.191 L 76.571,88.188 L 75.311,91.017 L 78.798,92.191 Z" stroke="none" fill="#000000" stroke-width="0.415" stroke-linecap="round" stroke-linejoin="round" marker-start="none" marker-end="none" stroke-miterlimit="79.8403193612775"/>
    <path d="M 50.147,87.822 L 53.208,84.454 L 53.801,87.507 L 50.147,87.822 Z" stroke="none" fill="#000000" stroke-width="0.415" stroke-linecap="round" stroke-linejoin="round" marker-start="none" marker-end="none" stroke-miterlimit="79.8403193612775"/>
    <path d="M 52.957,52.789 C 51.533,52.422 51.34,51.163 50.7,50.217 L 51.919,50.597 C 51.167,49.67 51.172,49.4 51.171,49.127 L 52.161,49.641 L 51.714,48.539 L 52.571,49.041 C 52.396,48.587 52.348,48.197 52.365,47.841 L 53.162,48.38 L 53.066,47.24 L 53.524,47.767 L 53.548,47.02 L 54.092,47.376 L 53.873,46.91 L 54.248,46.873 L 53.911,46.628 C 54.561,46.126 56.685,44.582 58.881,44.926 L 58.591,45.281 C 58.736,45.526 57.735,46.885 58.556,47.24 C 58.966,47.866 60.281,47.008 60.86,47.229 C 61.036,47.351 61.181,47.49 61.294,47.645 C 61.568,47.622 61.852,47.595 61.729,47.792 L 61.608,48.698 L 61.511,48.858 L 60.8,49.948 C 60.111,50.486 58.362,50.633 57.3,51.455 C 57.18,51.822 56.441,52.859 55.104,52.422 C 54.151,52.594 53.463,52.936 52.957,52.789 Z" stroke="#ffffff" stroke-width="0.166" stroke-linecap="round" fill="#000000" stroke-linejoin="miter" marker-start="none" marker-end="none" stroke-miterlimit="79.8403193612775"/>
    <g id="Group_3" stroke-linecap="round" stroke="none">
     <path d="M 52.946,52.789 C 51.522,52.422 51.331,51.163 50.69,50.217 L 51.909,50.597 C 51.158,49.67 51.162,49.4 51.162,49.127 L 52.151,49.641 L 51.703,48.539 L 52.561,49.041 C 52.386,48.587 52.338,48.197 52.355,47.841 L 53.152,48.38 L 53.055,47.24 L 53.514,47.767 L 53.537,47.02 L 54.081,47.376 L 53.864,46.91 L 54.238,46.873 L 53.9,46.628 C 54.551,46.126 56.675,44.582 58.871,44.926 L 58.581,45.281 C 58.727,45.526 57.725,46.885 58.545,47.24 C 58.956,47.866 60.27,47.008 60.849,47.229 C 61.026,47.351 61.171,47.49 61.284,47.645 C 61.558,47.622 61.842,47.595 61.719,47.792 L 61.598,48.698 L 61.502,48.858 L 60.79,49.948 C 60.101,50.486 58.352,50.633 57.29,51.454 C 57.17,51.822 56.431,52.859 55.095,52.422 C 54.142,52.594 53.453,52.936 52.946,52.789 Z" fill="#000000" stroke-linejoin="miter" stroke-width="0.008" marker-start="none" marker-end="none" stroke-miterlimit="79.8403193612775"/>
     <path d="M 54.768,52.116 C 53.501,52.52 52.646,52.38 52.332,51.528 L 52.392,51.05 C 52.46,51.119 52.7,51.161 52.971,51.197 C 52.521,50.754 52.897,50.103 53.393,49.421 C 53.203,49.532 52.999,49.708 52.777,49.948 L 52.886,49.593 L 52.669,49.74 C 53.033,49.173 53.582,48.632 54.178,48.098 C 54.433,47.914 54.596,47.731 54.528,47.547 C 54.528,47.338 54.585,47.159 54.72,46.983 L 55.36,47.032 C 55.355,46.792 54.99,46.596 54.672,46.395 L 54.768,46.309 L 55.529,46.542 L 55.13,46.139 C 56.615,45.297 57.198,45.316 57.942,45.183 L 57.242,45.881 L 57.978,45.477 L 57.955,45.807 C 57.57,45.984 57.224,46.253 56.903,46.592 L 57.713,46.261 L 57.906,46.114 L 57.773,46.592 L 57.785,46.836 C 57.603,46.809 57.426,46.768 57.314,46.53 C 57.111,46.771 57.186,47.029 57.459,47.302 L 56.965,47.51 C 56.796,47.792 56.092,48.144 55.902,48.503 C 56.413,48.221 56.677,47.89 57.725,47.719 C 58.074,47.866 58.593,47.804 58.918,48.061 C 59.103,47.884 59.52,47.717 60.342,47.572 C 60.488,47.57 60.598,47.623 60.681,47.719 C 60.173,48.061 58.992,47.911 57.713,48.833 L 58.377,48.233 C 56.712,48.478 56.494,49.617 56.313,50.046 L 57.001,49.237 C 57.046,49.52 57.145,49.784 55.806,50.548 L 56.3,50.425 C 58.015,49.408 59.824,48.637 60.849,48.576 L 61.212,48.49 C 60.96,49.293 60.379,49.666 60.922,48.906 C 60.407,49.19 60.102,49.463 60.331,49.715 L 60.27,49.874 C 59.185,50.389 58.503,50.309 57.025,51.173 L 57.725,50.609 C 56.009,50.825 56.224,51.088 56.144,51.344 L 56.361,51.516 C 56.255,51.63 56.112,51.67 55.806,51.381 C 55.774,51.32 55.883,51.135 56.3,50.682 C 55.99,50.837 55.708,51.016 55.529,51.27 C 55.235,51.24 54.941,51.31 54.648,51.442 L 55.287,51.626 C 55.665,51.959 56.083,52.116 56.591,51.858 L 56.278,52.14 C 55.603,52.172 55.195,51.932 54.732,51.748 L 54.768,52.116 Z" fill="#ff1a00" stroke-linejoin="miter" stroke-width="0.008" marker-start="none" marker-end="none" stroke-miterlimit="79.8403193612775"/>
     <path d="M 54.298,51.822 L 53.418,51.736 L 53.38,51.001 L 53.622,51.27 L 54.347,50.695 L 54.009,51.503 L 54.298,51.822 Z" fill="#000000" stroke-linejoin="round" stroke-width="0.021" marker-start="none" marker-end="none" stroke-miterlimit="79.8403193612775"/>
     <path d="M 54.732,51.246 L 55.662,50.744 L 55.36,50.695 L 55.818,50.23 L 54.407,50.242 L 54.949,50.609 L 54.588,50.805 L 55.13,50.903 L 54.732,51.246 Z" fill="#000000" stroke-linejoin="round" stroke-width="0.021" marker-start="none" marker-end="none" stroke-miterlimit="79.8403193612775"/>
     <path d="M 56.361,50.842 C 56.443,50.707 56.847,50.572 57.532,50.438 C 57.015,50.332 56.624,50.464 56.361,50.842 Z" fill="#000000" stroke-linejoin="round" stroke-width="0.021" marker-start="none" marker-end="none" stroke-miterlimit="79.8403193612775"/>
     <path d="M 54.298,50.205 C 54.489,49.233 55.11,48.831 55.782,48.49 C 55.414,48.535 55.049,48.699 54.961,48.686 L 55.867,47.889 C 55.344,48.269 54.672,48.368 54.66,48.956 C 54.218,49.473 54.091,49.907 54.298,50.205 Z" fill="#000000" stroke-linejoin="round" stroke-width="0.021" marker-start="none" marker-end="none" stroke-miterlimit="79.8403193612775"/>
     <path d="M 56.554,51.221 L 56.325,51.27 L 56.578,50.989 C 56.534,51.07 56.509,51.149 56.554,51.221 Z" fill="#ffffff" stroke-linejoin="round" stroke-width="0.021" marker-start="none" marker-end="none" stroke-miterlimit="79.8403193612775"/>
     <path d="M 56.856,51.074 L 57.085,50.915 L 56.868,50.903 C 56.888,50.927 56.883,50.985 56.856,51.074 Z" fill="#ffffff" stroke-linejoin="round" stroke-width="0.021" marker-start="none" marker-end="none" stroke-miterlimit="79.8403193612775"/>
     <path d="M 58.727,48.858 L 58.895,48.858 L 58.811,48.65 L 58.727,48.858 Z" fill="#ffffff" stroke-linejoin="round" stroke-width="0.021" marker-start="none" marker-end="none" stroke-miterlimit="79.8403193612775"/>
     <path d="M 59.281,48.625 L 59.39,48.576 L 59.329,48.478 L 59.281,48.625 Z" fill="#ffffff" stroke-linejoin="round" stroke-width="0.021" marker-start="none" marker-end="none" stroke-miterlimit="79.8403193612775"/>
     <path d="M 59.644,48.527 L 59.728,48.49 L 59.692,48.355 L 59.644,48.527 Z" fill="#ffffff" stroke-linejoin="round" stroke-width="0.021" marker-start="none" marker-end="none" stroke-miterlimit="79.8403193612775"/>
     <path d="M 60.041,48.392 L 60.126,48.38 L 60.114,48.196 L 60.041,48.392 Z" fill="#ffffff" stroke-linejoin="round" stroke-width="0.021" marker-start="none" marker-end="none" stroke-miterlimit="79.8403193612775"/>
     <path d="M 60.391,48.318 L 60.524,48.307 L 60.512,48.122 L 60.391,48.318 Z" fill="#ffffff" stroke-linejoin="round" stroke-width="0.021" marker-start="none" marker-end="none" stroke-miterlimit="79.8403193612775"/>
     <path d="M 60.777,48.244 L 60.91,48.244 L 60.849,48.122 L 60.777,48.244 Z" fill="#ffffff" stroke-linejoin="round" stroke-width="0.021" marker-start="none" marker-end="none" stroke-miterlimit="79.8403193612775"/>
     <path d="M 61.163,48.196 L 61.296,48.196 L 61.284,47.988 L 61.163,48.196 Z" fill="#ffffff" stroke-linejoin="round" stroke-width="0.021" marker-start="none" marker-end="none" stroke-miterlimit="79.8403193612775"/>
    </g>
   </g>
  </g>
 </g>
</svg>
