<?xml version="1.0" standalone="no"?>
<!-- Generator: Xara Xtreme (www.xara.com), SVG filter version: 0.4 -->
<!DOCTYPE svg PUBLIC "-//W3C//DTD SVG 1.1//EN" "http://www.w3.org/Graphics/SVG/1.1/DTD/svg11.dtd">
<svg stroke-width="0.501" stroke-linejoin="bevel" fill-rule="evenodd" xmlns:xlink="http://www.w3.org/1999/xlink" xmlns="http://www.w3.org/2000/svg" version="1.1" width="612pt" height="792pt" viewBox="0 0 612 792">
 <defs>
  <marker id="DefaultArrow2" markerUnits="strokeWidth" viewBox="0 0 1 1" markerWidth="1" markerHeight="1" overflow="visible" orient="auto">
   <!-- REF_ARROW_STRAIGHT (-2) -->
   <g transform="scale(0.0092592592)">
    <!-- 1/108 -->
    <path d="M -9 54 L -9 -54 L 117 0 z"/>
   </g>
  </marker>
  <marker id="DefaultArrow3" markerUnits="strokeWidth" viewBox="0 0 1 1" markerWidth="1" markerHeight="1" overflow="visible" orient="auto">
   <!-- REF_ARROW_ANGLED -->
   <g transform="scale(0.0092592592)">
    <path d="M -27 54 L -9 0 L -27 -54 L 135 0 z"/>
   </g>
  </marker>
  <marker id="DefaultArrow4" markerUnits="strokeWidth" viewBox="0 0 1 1" markerWidth="1" markerHeight="1" overflow="visible" orient="auto">
   <!-- REF_ARROW_ROUNDED -->
   <g transform="scale(0.0092592592)">
    <path d="M -9,0 L -9,-45 C -9,-51.708 2.808,-56.580 9,-54 L 117,-9 C 120.916,-7.369 126.000,-4.242 126,0 C 126,4.242 120.916,7.369 117,9 L 9,54 C 2.808,56.580 -9,51.708 -9,45 z"/>
   </g>
  </marker>
  <marker id="DefaultArrow5" markerUnits="strokeWidth" viewBox="0 0 1 1" markerWidth="1" markerHeight="1" overflow="visible" orient="auto">
   <!-- REF_ARROW_SPOT -->
   <g transform="scale(0.0092592592)">
    <path d="M -54, 0 C -54,29.807 -29.807,54 0,54 C 29.807,54 54,29.807 54,0 C 54,-29.807 29.807,-54 0,-54 C -29.807,-54 -54,-29.807 -54,0 z"/>
   </g>
  </marker>
  <marker id="DefaultArrow6" markerUnits="strokeWidth" viewBox="0 0 1 1" markerWidth="1" markerHeight="1" overflow="visible" orient="auto">
   <!-- REF_ARROW_DIAMOND -->
   <g transform="scale(0.0092592592)">
    <path d="M -63,0 L 0,63 L 63,0 L 0,-63 z"/>
   </g>
  </marker>
  <marker id="DefaultArrow7" markerUnits="strokeWidth" viewBox="0 0 1 1" markerWidth="1" markerHeight="1" overflow="visible" orient="auto">
   <!-- REF_ARROW_FEATHER -->
   <g transform="scale(0.0092592592)">
    <path d="M 18,-54 L 108,-54 L 63,0 L 108,54 L 18, 54 L -36,0 z"/>
   </g>
  </marker>
  <marker id="DefaultArrow8" markerUnits="strokeWidth" viewBox="0 0 1 1" markerWidth="1" markerHeight="1" overflow="visible" orient="auto">
   <!-- REF_ARROW_FEATHER2 -->
   <g transform="scale(0.0092592592)">
    <path d="M -36,0 L 18,-54 L 54,-54 L 18,-18 L 27,-18 L 63,-54 L 99,-54 L 63,-18 L 72,-18 L 108,-54 L 144,-54 L 90,0 L 144,54 L 108,54 L 72,18 L 63,18 L 99,54 L 63,54 L 27,18 L 18,18 L 54,54 L 18,54 z"/>
   </g>
  </marker>
  <marker id="DefaultArrow9" markerUnits="strokeWidth" viewBox="0 0 1 1" markerWidth="1" markerHeight="1" overflow="visible" orient="auto">
   <!-- REF_ARROW_HOLLOWDIAMOND -->
   <g transform="scale(0.0092592592)">
    <path d="M 0,45 L -45,0 L 0, -45 L 45, 0 z M 0, 63 L-63, 0 L 0, -63 L 63, 0 z"/>
   </g>
  </marker>
 </defs>
 <g id="Document" fill="none" stroke="black" font-family="Times New Roman" font-size="16" transform="scale(1 -1)">
  <g id="Spread" transform="translate(0 -792)">
   <g id="Layer 1">
    <g id="Group" stroke-linecap="round" stroke="#000000" stroke-width="4.282" fill="#ffb300" stroke-miterlimit="79.8403193612775">
     <g id="Group_1" stroke-linejoin="miter">
      <path d="M 237.183,618.222 L 237.183,668.792 L 339.142,668.792 L 339.142,767.537 L 463.57,767.537 L 463.57,618.222 C 562.309,618.222 562.309,562.034 562.309,514.665 L 549.464,514.665 C 553.48,569.252 522.174,606.182 463.57,604.572 L 237.183,605.378 C 184.205,605.378 164.939,570.862 161.727,514.665 L 147.273,514.665 C 149.687,581.299 173.767,618.222 237.183,618.222 Z M 437.877,668.794 L 437.877,746.658 L 361.622,746.658 L 361.622,668.794 L 437.877,668.794 Z" marker-start="none" marker-end="none"/>
      <path d="M 238.347,434.725 L 238.339,446.953 C 228.226,448.511 218.909,452.535 211.039,458.383 L 200.455,447.8 C 199.043,446.379 196.739,446.379 195.318,447.8 L 189.101,454.016 C 187.689,455.43 187.689,457.733 189.101,459.146 L 199.497,469.54 C 191.644,479.396 186.746,491.692 186.13,505.11 L 176.145,505.11 C 174.142,505.11 172.515,506.737 172.515,508.74 L 172.515,517.534 C 172.515,519.538 174.142,521.165 176.145,521.165 L 186.267,521.165 C 187.295,533.906 192.201,545.559 199.797,554.944 L 191.979,562.779 C 190.557,564.2 190.557,566.495 191.979,567.916 L 198.195,574.133 C 199.608,575.555 201.911,575.555 203.325,574.133 L 211.433,566.016 C 219.388,571.83 228.782,575.785 238.981,577.25 L 238.981,592.825 C 238.981,594.829 240.608,596.456 242.611,596.456 L 251.405,596.456 C 253.409,596.456 255.036,594.829 255.036,592.825 L 255.036,577.883 L 275.442,577.883 L 275.442,592.825 C 275.442,594.829 277.068,596.456 279.072,596.456 L 287.866,596.456 C 289.87,596.456 291.497,594.829 291.497,592.825 L 291.497,577.883 L 311.902,577.883 L 311.902,592.825 C 311.902,594.829 313.529,596.456 315.532,596.456 L 324.328,596.456 C 326.331,596.456 327.958,594.829 327.958,592.825 L 327.958,577.883 L 348.372,577.883 L 348.372,592.825 C 348.372,594.829 349.999,596.456 352.002,596.456 L 360.796,596.456 C 362.801,596.456 364.428,594.829 364.428,592.825 L 364.428,577.883 L 384.832,577.883 L 384.832,592.825 C 384.832,594.829 386.459,596.456 388.463,596.456 L 397.258,596.456 C 399.261,596.456 400.888,594.829 400.888,592.825 L 400.888,577.883 L 421.293,577.883 L 421.293,592.825 C 421.293,594.829 422.92,596.456 424.924,596.456 L 433.718,596.456 C 435.722,596.456 437.349,594.829 437.349,592.825 L 437.349,577.883 L 457.763,577.883 L 457.763,592.825 C 457.763,594.829 459.39,596.456 461.394,596.456 L 470.188,596.456 C 472.192,596.456 473.818,594.829 473.818,592.825 L 473.818,576.616 C 483.152,574.69 491.724,570.657 499.011,565.031 L 507.728,573.739 C 509.149,575.16 511.444,575.16 512.865,573.739 L 519.082,567.523 C 520.504,566.11 520.504,563.807 519.082,562.393 L 510.357,553.66 C 517.378,544.497 521.891,533.332 522.876,521.165 L 533.339,521.165 C 535.343,521.165 536.97,519.538 536.97,517.534 L 536.97,508.74 C 536.97,506.737 535.343,505.11 533.339,505.11 L 523.013,505.11 C 522.422,492.163 517.841,480.261 510.467,470.585 L 518.277,462.785 C 519.698,461.371 519.698,459.068 518.277,457.648 L 512.06,451.431 C 510.648,450.018 508.344,450.018 506.932,451.431 L 499.165,459.189 C 491.68,453.375 482.827,449.239 473.176,447.364 L 473.185,434.725 C 473.185,432.721 471.557,431.094 469.554,431.094 L 460.76,431.094 C 458.756,431.094 457.13,432.721 457.13,434.725 L 457.13,446.233 L 436.716,446.233 L 436.716,434.725 C 436.716,432.721 435.089,431.094 433.084,431.094 L 424.29,431.094 C 422.287,431.094 420.66,432.721 420.66,434.725 L 420.66,446.233 L 400.254,446.233 L 400.254,434.725 C 400.254,432.721 398.627,431.094 396.624,431.094 L 387.83,431.094 C 385.826,431.094 384.199,432.721 384.199,434.725 L 384.199,446.233 L 363.793,446.233 L 363.793,434.725 C 363.793,432.721 362.166,431.094 360.163,431.094 L 351.369,431.094 C 349.365,431.094 347.738,432.721 347.738,434.725 L 347.738,446.233 L 327.324,446.233 L 327.324,434.725 C 327.324,432.721 325.697,431.094 323.693,431.094 L 314.899,431.094 C 312.896,431.094 311.269,432.721 311.269,434.725 L 311.269,446.233 L 290.863,446.233 L 290.863,434.725 C 290.863,432.721 289.236,431.094 287.233,431.094 L 278.439,431.094 C 276.434,431.094 274.807,432.721 274.807,434.725 L 274.807,446.233 L 254.402,446.233 L 254.402,434.725 C 254.402,432.721 252.775,431.094 250.772,431.094 L 241.977,431.094 C 239.974,431.094 238.347,432.721 238.347,434.725 Z M 286.41,480.792 C 303.228,498.106 302.825,525.814 285.511,542.631 C 268.197,559.449 240.488,559.046 223.67,541.732 C 206.852,524.419 207.255,496.71 224.569,479.893 C 241.883,463.076 269.593,463.479 286.41,480.792 Z M 493.522,483.138 C 510.34,500.452 509.937,528.161 492.623,544.977 C 475.308,561.794 447.599,561.392 430.781,544.078 C 413.964,526.764 414.366,499.056 431.681,482.239 C 448.995,465.422 476.704,465.824 493.522,483.138 Z M 211.476,565.972 L 211.433,566.016 L 211.476,565.972 Z" marker-start="none" marker-end="none"/>
     </g>
     <text xml:space="preserve" transform="translate(30.345 505.758) scale(1 -1)" font-size="354.793" font-family="Arial" stroke-linejoin="round"/>
     <text xml:space="preserve" transform="translate(30.345 505.758) scale(1 -1) scale(1.00003 1)" font-size="354.793" font-family="Arial" stroke-linejoin="round"><tspan><tspan x="0" y="0">}</tspan></tspan><tspan/></text>
    </g>
   </g>
   <g id="Layer_1"/>
  </g>
 </g>
</svg>
