<?xml version="1.0" standalone="no"?>
<!DOCTYPE svg PUBLIC "-//W3C//DTD SVG 1.1//EN" "http://www.w3.org/Graphics/SVG/1.1/DTD/svg11.dtd">
<!--Generator: Xara Designer (www.xara.com), SVG filter version: 5.0.0.2-->
<svg stroke-width="0.501" stroke-linejoin="bevel" fill-rule="evenodd" xmlns:xlink="http://www.w3.org/1999/xlink" xmlns="http://www.w3.org/2000/svg" version="1.1" overflow="visible" width="360pt" height="216pt" viewBox="0 0 360 216">
 <defs>
  <marker id="DefaultArrow2" markerUnits="strokeWidth" viewBox="0 0 1 1" markerWidth="1" markerHeight="1" overflow="visible" orient="auto">
   <!-- REF_ARROW_STRAIGHT (-2) -->
   <g transform="scale(0.0092592592)">
    <!-- 1/108 -->
    <path d="M -9 54 L -9 -54 L 117 0 z"/>
   </g>
  </marker>
  <marker id="DefaultArrow3" markerUnits="strokeWidth" viewBox="0 0 1 1" markerWidth="1" markerHeight="1" overflow="visible" orient="auto">
   <!-- REF_ARROW_ANGLED -->
   <g transform="scale(0.0092592592)">
    <path d="M -27 54 L -9 0 L -27 -54 L 135 0 z"/>
   </g>
  </marker>
  <marker id="DefaultArrow4" markerUnits="strokeWidth" viewBox="0 0 1 1" markerWidth="1" markerHeight="1" overflow="visible" orient="auto">
   <!-- REF_ARROW_ROUNDED -->
   <g transform="scale(0.0092592592)">
    <path d="M -9,0 L -9,-45 C -9,-51.708 2.808,-56.580 9,-54 L 117,-9 C 120.916,-7.369 126.000,-4.242 126,0 C 126,4.242 120.916,7.369 117,9 L 9,54 C 2.808,56.580 -9,51.708 -9,45 z"/>
   </g>
  </marker>
  <marker id="DefaultArrow5" markerUnits="strokeWidth" viewBox="0 0 1 1" markerWidth="1" markerHeight="1" overflow="visible" orient="auto">
   <!-- REF_ARROW_SPOT -->
   <g transform="scale(0.0092592592)">
    <path d="M -54, 0 C -54,29.807 -29.807,54 0,54 C 29.807,54 54,29.807 54,0 C 54,-29.807 29.807,-54 0,-54 C -29.807,-54 -54,-29.807 -54,0 z"/>
   </g>
  </marker>
  <marker id="DefaultArrow6" markerUnits="strokeWidth" viewBox="0 0 1 1" markerWidth="1" markerHeight="1" overflow="visible" orient="auto">
   <!-- REF_ARROW_DIAMOND -->
   <g transform="scale(0.0092592592)">
    <path d="M -63,0 L 0,63 L 63,0 L 0,-63 z"/>
   </g>
  </marker>
  <marker id="DefaultArrow7" markerUnits="strokeWidth" viewBox="0 0 1 1" markerWidth="1" markerHeight="1" overflow="visible" orient="auto">
   <!-- REF_ARROW_FEATHER -->
   <g transform="scale(0.0092592592)">
    <path d="M 18,-54 L 108,-54 L 63,0 L 108,54 L 18, 54 L -36,0 z"/>
   </g>
  </marker>
  <marker id="DefaultArrow8" markerUnits="strokeWidth" viewBox="0 0 1 1" markerWidth="1" markerHeight="1" overflow="visible" orient="auto">
   <!-- REF_ARROW_FEATHER2 -->
   <g transform="scale(0.0092592592)">
    <path d="M -36,0 L 18,-54 L 54,-54 L 18,-18 L 27,-18 L 63,-54 L 99,-54 L 63,-18 L 72,-18 L 108,-54 L 144,-54 L 90,0 L 144,54 L 108,54 L 72,18 L 63,18 L 99,54 L 63,54 L 27,18 L 18,18 L 54,54 L 18,54 z"/>
   </g>
  </marker>
  <marker id="DefaultArrow9" markerUnits="strokeWidth" viewBox="0 0 1 1" markerWidth="1" markerHeight="1" overflow="visible" orient="auto">
   <!-- REF_ARROW_HOLLOWDIAMOND -->
   <g transform="scale(0.0092592592)">
    <path d="M 0,45 L -45,0 L 0, -45 L 45, 0 z M 0, 63 L-63, 0 L 0, -63 L 63, 0 z"/>
   </g>
  </marker>
  <filter id="StainedFilter">
   <feBlend mode="multiply" in2="BackgroundImage" in="SourceGraphic" result="blend"/>
   <feComposite in="blend" in2="SourceAlpha" operator="in" result="comp"/>
  </filter>
  <filter id="BleachFilter">
   <feBlend mode="screen" in2="BackgroundImage" in="SourceGraphic" result="blend"/>
   <feComposite in="blend" in2="SourceAlpha" operator="in" result="comp"/>
  </filter>
  <filter id="InvertTransparencyBitmapFilter">
   <feComponentTransfer>
    <feFuncR type="gamma" amplitude="1.055" exponent=".416666666" offset="-0.055"/>
    <feFuncG type="gamma" amplitude="1.055" exponent=".416666666" offset="-0.055"/>
    <feFuncB type="gamma" amplitude="1.055" exponent=".416666666" offset="-0.055"/>
   </feComponentTransfer>
   <feComponentTransfer>
    <feFuncR type="linear" slope="-1" intercept="1"/>
    <feFuncG type="linear" slope="-1" intercept="1"/>
    <feFuncB type="linear" slope="-1" intercept="1"/>
    <feFuncA type="linear" slope="1" intercept="0"/>
   </feComponentTransfer>
   <feComponentTransfer>
    <feFuncR type="gamma" amplitude="1" exponent="2.4" offset="0"/>
    <feFuncG type="gamma" amplitude="1" exponent="2.4" offset="0"/>
    <feFuncB type="gamma" amplitude="1" exponent="2.4" offset="0"/>
   </feComponentTransfer>
  </filter>
  <linearGradient id="LinearGradient" gradientUnits="userSpaceOnUse" x1="0" y1="0" x2="34.843" y2="0" gradientTransform="translate(126.161 81.569) rotate(115.074) skewX(-0.934175)">
   <stop offset="0" stop-color="#000000"/>
   <stop offset="1" stop-color="#000000"/>
  </linearGradient>
  <linearGradient id="LinearGradient_1" gradientUnits="userSpaceOnUse" x1="0" y1="0" x2="34.843" y2="0" gradientTransform="translate(126.161 81.569) rotate(115.074) skewX(-0.934175)">
   <stop offset="0" stop-color="#ffffff"/>
   <stop offset="1" stop-color="#000000"/>
  </linearGradient>
  <linearGradient id="LinearGradient_2" gradientUnits="userSpaceOnUse" x1="0" y1="0" x2="-13.828" y2="7.031" gradientTransform="translate(43.76 62.928)">
   <stop offset="0" stop-color="#ffffff"/>
   <stop offset="1" stop-color="#000000"/>
  </linearGradient>
 </defs>
 <g id="Document" fill="none" stroke="black" font-family="Times New Roman" font-size="16" transform="scale(1 -1)">
  <g id="Spread" transform="translate(0 -216)">
   <g id="Layer 1">
    <path d="M 0,265.889 L 595.275,265.889 L 595.275,-576 L 0,-576 L 0,265.889" stroke="none"/>
    <g id="Group">
     <path d="M 167.067,92.588 L 167.067,132.466 L 167.067,92.588 Z" stroke="#999999" stroke-width="2" fill="#ffffff" stroke-linecap="round" stroke-linejoin="miter" marker-start="none" marker-end="none" stroke-miterlimit="79.8403193612775"/>
     <path d="M 155.071,92.478 L 155.071,132.465 L 114.084,132.465 L 114.084,92.478 L 155.071,92.478" fill="none" stroke="#999999" stroke-linejoin="round" stroke-width="2" stroke-linecap="round" stroke-miterlimit="79.8403193612775"/>
     <path d="M 112.088,132.463 L 154.741,131.55 L 169.895,132.64 L 141.149,151.23 L 112.088,132.463 Z" stroke="#999999" fill="#ffffff" stroke-linecap="round" stroke-width="0.83" stroke-linejoin="miter" marker-start="none" marker-end="none" stroke-miterlimit="79.8403193612775"/>
     <path d="M 155.304,131.314 L 170.458,132.403 L 141.716,150.993 L 155.304,131.314 Z" stroke="#999999" stroke-width="2" fill="#ffffff" stroke-linecap="round" stroke-linejoin="miter" marker-start="none" marker-end="none" stroke-miterlimit="79.8403193612775"/>
     <path d="M 138.727,158.81 C 140.935,160.466 144.069,160.017 145.725,157.81 C 147.381,155.602 146.933,152.468 144.725,150.812 C 142.518,149.155 139.383,149.604 137.727,151.811 C 136.071,154.019 136.519,157.153 138.727,158.81 Z" stroke="#999999" stroke-width="2" fill="#ffffff" stroke-linecap="round" stroke-linejoin="miter" marker-start="none" marker-end="none" stroke-miterlimit="79.8403193612775"/>
     <path d="M 141.478,159.306 L 140.231,161.805 L 141.478,185.8 L 143.229,161.805 L 141.478,159.306 Z" stroke="#999999" stroke-width="2" fill="#ffffff" stroke-linecap="round" stroke-linejoin="miter" marker-start="none" marker-end="none" stroke-miterlimit="79.8403193612775"/>
     <path d="M 130.978,101.826 L 130.978,121.322 L 131.124,121.322 C 131.262,122.905 132.392,124.354 134.163,124.961 C 136.611,125.792 139.35,124.691 140.286,122.506 C 140.628,121.69 140.676,120.847 140.475,120.058 L 140.475,101.826 L 130.978,101.826 Z" stroke="#999999" stroke-width="2" fill="#ffffff" stroke-linecap="round" stroke-linejoin="miter" marker-start="none" marker-end="none" stroke-miterlimit="79.8403193612775"/>
     <path d="M 98.176,106.166 C 95.671,111.713 94.836,115.924 90.088,123.265 C 88.415,126.013 87.644,124.701 86.966,122.975 C 83.143,113.033 82.789,108.294 81.857,102.688 L 96.473,103.267 Z" fill="none" stroke-width="2" stroke="#000000" fill-rule="evenodd" stroke-linejoin="miter" marker-start="none" marker-end="none" stroke-miterlimit="79.8403193612775"/>
     <path d="M 98.176,106.166 C 74.692,103.035 65.621,93.772 60.145,82.98 C 49.208,80.106 36.845,78.067 27.932,73.472 C 26.553,72.709 29.056,64.5 31.195,63.272 L 33.992,55.121 C 35.207,50.167 35.292,47.931 40.803,48.165 C 58.058,46.521 75.114,45.063 87.917,47.585 C 89.313,47.49 90.462,46.386 89.62,37.152 C 87.498,33.259 84.518,32.873 81.673,31.935 L 82.808,31.935" stroke-width="2" stroke="#000000" fill="#ffffff" fill-rule="evenodd" stroke-linejoin="round" stroke-linecap="round" stroke-miterlimit="79.8403193612775"/>
     <path d="M 33.876,53.963 L 33.501,57.62 C 32.039,55.033 39.314,50.213 46.626,51.245 C 78.595,53.12 75.408,55.932 84.358,57.149 L 83.932,57.005" fill="none" stroke-width="2" stroke="#000000" fill-rule="evenodd" stroke-linejoin="round" stroke-linecap="round" stroke-miterlimit="79.8403193612775"/>
     <path d="M 96.473,103.267 C 103.879,114.237 109.954,125.478 120.882,135.727 C 124.016,139.177 125.269,135.902 126.984,134.278 C 130.008,101.669 131.625,107.864 133.937,94.863 C 134.832,90.586 137.214,87.068 135.356,81.386 C 133.501,79.32 134.319,74.524 129.68,75.3 L 129.538,75.445" stroke-width="2" stroke="#000000" fill="#ffffff" fill-rule="evenodd" stroke-linejoin="miter" stroke-miterlimit="79.8403193612775"/>
     <path d="M 69.653,83.125 C 70.715,84.33 72.37,85.595 77.174,87.182 C 79.354,87.456 82.354,84.378 85.263,81.676 C 79.455,82.155 76.309,81.615 73.484,80.951 C 71.221,81.071 70.025,81.846 69.653,83.125 Z" stroke="#000000" fill="#000000" stroke-width="0.568" fill-rule="evenodd" stroke-linejoin="miter" marker-start="none" marker-end="none" stroke-miterlimit="79.8403193612775"/>
     <mask id="TranspMask">
      <rect x="-10%" y="-10%" width="120%" height="120%" fill="url(#LinearGradient_1)" stroke="none"/>
     </mask>
     <path d="M 116.329,86.688 C 115.38,89.382 113.205,92.651 109.82,96.469 C 108.261,98.227 106.576,100.238 106.075,100.938 L 105.164,102.21 L 107.963,107.905 C 109.503,111.038 111.891,115.353 113.271,117.495 C 115.879,121.544 120.707,126.997 122.548,127.975 L 123.612,128.54 L 123.908,123.325 C 124.313,116.17 123.933,110.368 122.504,101.92 C 121.836,97.975 121.289,94.101 121.287,93.312 C 121.285,92.169 121.001,91.648 119.891,90.743 C 118.867,89.909 118.304,88.96 117.762,87.159 L 117.026,84.709 Z" stroke="none" stroke-opacity="0.815686" stroke-width="0" fill-rule="evenodd" stroke-linejoin="miter" marker-start="none" marker-end="none" stroke-miterlimit="79.8403193612775" mask="url(#TranspMask)" fill="url(#LinearGradient)"/>
     <path d="M 34.682,76.024 C 38.784,66.158 34.339,65.409 31.195,63.272 C 28.209,65.463 28.054,69.352 27.485,72.993 Z" stroke="none" stroke-width="0.75" fill-rule="evenodd" stroke-linejoin="miter" marker-start="none" marker-end="none" stroke-miterlimit="79.8403193612775" fill="url(#LinearGradient_2)"/>
     <path d="M 75.628,92.488 C 78.122,89.051 83.123,87.284 87.628,87.388" fill="none" stroke-width="1" stroke="#000000" stroke-linejoin="round" stroke-linecap="round" stroke-miterlimit="79.8403193612775"/>
     <path d="M 79.828,84.988 L 80.428,82.288 L 84.328,81.988 L 79.828,84.988 Z" fill="#ffffff" stroke-linejoin="miter" stroke-width="0.568" stroke="#000000" marker-start="none" marker-end="none" stroke-miterlimit="79.8403193612775"/>
     <text xml:space="preserve" transform="translate(131.356 40.311) scale(1 -1)" font-size="46.712" fill="#000000" stroke="none" stroke-width="1.168" stroke-linecap="round" stroke-linejoin="round" stroke-miterlimit="79.8403193612775"><tspan x="0" y="0" font-family="Fira Sans Medium">Shepherd</tspan></text>
     <text xml:space="preserve" transform="translate(135.74 77.404) scale(1 -1)" font-size="10" fill="#000000" stroke="none" stroke-width="0.25" stroke-linecap="round" stroke-linejoin="round" font-family="Fira Sans Medium" stroke-miterlimit="79.8403193612775"><tspan x="0" y="0">context services</tspan></text>
    </g>
   </g>
  </g>
 </g>
</svg>
