<?xml version="1.0" standalone="no"?>
<!DOCTYPE svg PUBLIC "-//W3C//DTD SVG 1.1//EN" "http://www.w3.org/Graphics/SVG/1.1/DTD/svg11.dtd">
<!--Generator: Xara Designer (www.xara.com), SVG filter version: 5.0.0.2-->
<svg stroke-width="0.501" stroke-linejoin="bevel" fill-rule="evenodd" xmlns:xlink="http://www.w3.org/1999/xlink" xmlns="http://www.w3.org/2000/svg" version="1.1" overflow="visible" width="144pt" height="144pt" viewBox="0 0 144 144">
 <defs>
  <marker id="DefaultArrow2" markerUnits="strokeWidth" viewBox="0 0 1 1" markerWidth="1" markerHeight="1" overflow="visible" orient="auto">
   <!-- REF_ARROW_STRAIGHT (-2) -->
   <g transform="scale(0.0092592592)">
    <!-- 1/108 -->
    <path d="M -9 54 L -9 -54 L 117 0 z"/>
   </g>
  </marker>
  <marker id="DefaultArrow3" markerUnits="strokeWidth" viewBox="0 0 1 1" markerWidth="1" markerHeight="1" overflow="visible" orient="auto">
   <!-- REF_ARROW_ANGLED -->
   <g transform="scale(0.0092592592)">
    <path d="M -27 54 L -9 0 L -27 -54 L 135 0 z"/>
   </g>
  </marker>
  <marker id="DefaultArrow4" markerUnits="strokeWidth" viewBox="0 0 1 1" markerWidth="1" markerHeight="1" overflow="visible" orient="auto">
   <!-- REF_ARROW_ROUNDED -->
   <g transform="scale(0.0092592592)">
    <path d="M -9,0 L -9,-45 C -9,-51.708 2.808,-56.580 9,-54 L 117,-9 C 120.916,-7.369 126.000,-4.242 126,0 C 126,4.242 120.916,7.369 117,9 L 9,54 C 2.808,56.580 -9,51.708 -9,45 z"/>
   </g>
  </marker>
  <marker id="DefaultArrow5" markerUnits="strokeWidth" viewBox="0 0 1 1" markerWidth="1" markerHeight="1" overflow="visible" orient="auto">
   <!-- REF_ARROW_SPOT -->
   <g transform="scale(0.0092592592)">
    <path d="M -54, 0 C -54,29.807 -29.807,54 0,54 C 29.807,54 54,29.807 54,0 C 54,-29.807 29.807,-54 0,-54 C -29.807,-54 -54,-29.807 -54,0 z"/>
   </g>
  </marker>
  <marker id="DefaultArrow6" markerUnits="strokeWidth" viewBox="0 0 1 1" markerWidth="1" markerHeight="1" overflow="visible" orient="auto">
   <!-- REF_ARROW_DIAMOND -->
   <g transform="scale(0.0092592592)">
    <path d="M -63,0 L 0,63 L 63,0 L 0,-63 z"/>
   </g>
  </marker>
  <marker id="DefaultArrow7" markerUnits="strokeWidth" viewBox="0 0 1 1" markerWidth="1" markerHeight="1" overflow="visible" orient="auto">
   <!-- REF_ARROW_FEATHER -->
   <g transform="scale(0.0092592592)">
    <path d="M 18,-54 L 108,-54 L 63,0 L 108,54 L 18, 54 L -36,0 z"/>
   </g>
  </marker>
  <marker id="DefaultArrow8" markerUnits="strokeWidth" viewBox="0 0 1 1" markerWidth="1" markerHeight="1" overflow="visible" orient="auto">
   <!-- REF_ARROW_FEATHER2 -->
   <g transform="scale(0.0092592592)">
    <path d="M -36,0 L 18,-54 L 54,-54 L 18,-18 L 27,-18 L 63,-54 L 99,-54 L 63,-18 L 72,-18 L 108,-54 L 144,-54 L 90,0 L 144,54 L 108,54 L 72,18 L 63,18 L 99,54 L 63,54 L 27,18 L 18,18 L 54,54 L 18,54 z"/>
   </g>
  </marker>
  <marker id="DefaultArrow9" markerUnits="strokeWidth" viewBox="0 0 1 1" markerWidth="1" markerHeight="1" overflow="visible" orient="auto">
   <!-- REF_ARROW_HOLLOWDIAMOND -->
   <g transform="scale(0.0092592592)">
    <path d="M 0,45 L -45,0 L 0, -45 L 45, 0 z M 0, 63 L-63, 0 L 0, -63 L 63, 0 z"/>
   </g>
  </marker>
  <filter id="StainedFilter">
   <feBlend mode="multiply" in2="BackgroundImage" in="SourceGraphic" result="blend"/>
   <feComposite in="blend" in2="SourceAlpha" operator="in" result="comp"/>
  </filter>
  <filter id="BleachFilter">
   <feBlend mode="screen" in2="BackgroundImage" in="SourceGraphic" result="blend"/>
   <feComposite in="blend" in2="SourceAlpha" operator="in" result="comp"/>
  </filter>
  <filter id="InvertTransparencyBitmapFilter">
   <feComponentTransfer>
    <feFuncR type="gamma" amplitude="1.055" exponent=".416666666" offset="-0.055"/>
    <feFuncG type="gamma" amplitude="1.055" exponent=".416666666" offset="-0.055"/>
    <feFuncB type="gamma" amplitude="1.055" exponent=".416666666" offset="-0.055"/>
   </feComponentTransfer>
   <feComponentTransfer>
    <feFuncR type="linear" slope="-1" intercept="1"/>
    <feFuncG type="linear" slope="-1" intercept="1"/>
    <feFuncB type="linear" slope="-1" intercept="1"/>
    <feFuncA type="linear" slope="1" intercept="0"/>
   </feComponentTransfer>
   <feComponentTransfer>
    <feFuncR type="gamma" amplitude="1" exponent="2.4" offset="0"/>
    <feFuncG type="gamma" amplitude="1" exponent="2.4" offset="0"/>
    <feFuncB type="gamma" amplitude="1" exponent="2.4" offset="0"/>
   </feComponentTransfer>
  </filter>
 </defs>
 <g id="Document" fill="none" stroke="black" font-family="Times New Roman" font-size="16" transform="scale(1 -1)">
  <g id="Spread" transform="translate(0 -144)">
   <g id="Layer 1">
    <path d="M 4.734,141.294 L 4.734,31.449 L 140.685,31.449 L 140.685,141.294 L 4.734,141.294 Z" stroke-linecap="round" fill="#000000" stroke-width="0.583" stroke="#000000" stroke-linejoin="miter" marker-start="none" marker-end="none" stroke-miterlimit="79.8403193612775"/>
    <g id="Group" fill-rule="nonzero" stroke-linejoin="round" stroke-linecap="round" stroke="none" stroke-width="1.382" fill="#ff0000" stroke-miterlimit="79.8403193612775">
     <g id="Group_1">
      <path d="M 66.63,140.298 L 66.63,92.871 L 43.127,92.871 L 29.179,114.431 L 29.179,92.871 L 6.759,92.871 L 6.759,140.298 L 29.179,140.298 L 44.21,118.943 L 44.21,140.298 L 66.63,140.298 Z" marker-start="none" marker-end="none"/>
      <path d="M 138.664,112.527 C 138.666,107.762 138.422,104.388 137.933,102.406 C 137.445,100.423 135.916,98.613 133.347,96.972 C 130.778,95.332 127.307,94.072 122.934,93.193 C 118.56,92.314 113.466,91.875 107.646,91.875 C 102.128,91.875 97.169,92.29 92.774,93.12 C 88.379,93.95 84.845,95.195 82.17,96.854 C 79.495,98.515 77.902,100.322 77.393,102.274 C 76.884,104.227 76.63,107.644 76.629,112.527 L 76.629,120.642 C 76.63,125.407 76.875,128.781 77.362,130.763 C 77.851,132.745 79.379,134.556 81.948,136.197 C 84.517,137.838 87.988,139.098 92.361,139.976 C 96.735,140.855 101.831,141.294 107.646,141.294 C 113.167,141.294 118.124,140.879 122.519,140.049 C 126.914,139.219 130.448,137.975 133.124,136.315 C 135.798,134.655 137.391,132.848 137.902,130.895 C 138.411,128.942 138.666,125.524 138.664,120.642 L 138.664,112.527 Z M 111.851,128.112 C 111.85,130.319 111.585,131.73 111.054,132.345 C 110.525,132.96 109.431,133.267 107.775,133.267 C 106.373,133.267 105.3,133.018 104.558,132.521 C 103.815,132.022 103.443,130.553 103.443,128.112 L 103.443,105.965 C 103.443,103.211 103.688,101.512 104.175,100.868 C 104.664,100.223 105.8,99.902 107.583,99.902 C 109.409,99.902 110.578,100.272 111.087,101.014 C 111.596,101.757 111.85,103.524 111.851,106.317 L 111.851,128.112 Z" marker-start="none" marker-end="none"/>
     </g>
    </g>
    <g id="Group_2" fill-rule="nonzero" stroke-linejoin="round" stroke-linecap="round" stroke="none" stroke-width="1.707" fill="#ffffff" stroke-miterlimit="79.8403193612775">
     <g id="Group_3">
      <path d="M 20.466,58.567 L 17.211,47.555 L 20.777,34.177 L 14.902,34.177 L 12.606,44.632 L 12.606,34.177 L 6.92,34.177 L 6.92,58.567 L 12.606,58.567 L 12.606,49.091 L 15.132,58.567 L 20.466,58.567 Z" marker-start="none" marker-end="none"/>
      <path d="M 34.457,58.567 L 34.457,34.177 L 29.474,34.177 L 26.516,45.265 L 26.516,34.177 L 21.762,34.177 L 21.762,58.567 L 26.516,58.567 L 29.703,47.585 L 29.703,58.567 L 34.457,58.567 Z" marker-start="none" marker-end="none"/>
      <path d="M 49.731,44.285 C 49.732,41.835 49.68,40.1 49.576,39.08 C 49.473,38.061 49.149,37.13 48.604,36.286 C 48.059,35.443 47.323,34.795 46.396,34.343 C 45.468,33.891 44.388,33.665 43.154,33.665 C 41.984,33.665 40.933,33.878 40.001,34.305 C 39.069,34.732 38.319,35.372 37.752,36.226 C 37.185,37.08 36.847,38.009 36.739,39.013 C 36.631,40.017 36.577,41.774 36.577,44.285 L 36.577,48.458 C 36.577,50.909 36.629,52.644 36.733,53.663 C 36.836,54.682 37.16,55.614 37.705,56.458 C 38.25,57.302 38.986,57.949 39.913,58.401 C 40.84,58.853 41.921,59.079 43.154,59.079 C 44.325,59.079 45.376,58.866 46.308,58.439 C 47.24,58.012 47.989,57.372 48.557,56.518 C 49.124,55.665 49.461,54.736 49.57,53.731 C 49.678,52.727 49.732,50.969 49.731,48.458 L 49.731,44.285 Z M 44.046,52.3 C 44.045,53.435 43.989,54.161 43.877,54.477 C 43.765,54.793 43.533,54.951 43.181,54.951 C 42.884,54.951 42.657,54.823 42.499,54.567 C 42.342,54.311 42.263,53.555 42.263,52.3 L 42.263,40.911 C 42.263,39.495 42.315,38.621 42.418,38.29 C 42.522,37.958 42.763,37.793 43.141,37.793 C 43.528,37.793 43.776,37.983 43.884,38.365 C 43.992,38.747 44.045,39.655 44.046,41.092 L 44.046,52.3 Z" marker-start="none" marker-end="none"/>
      <path d="M 73.244,58.567 L 70.718,34.177 L 63.614,34.177 C 62.966,37.923 62.394,42.181 61.899,46.952 C 61.674,44.913 61.147,40.655 60.319,34.177 L 53.256,34.177 L 50.717,58.567 L 56.241,58.567 L 56.821,50.055 L 57.416,41.845 C 57.623,46.093 58.145,51.667 58.982,58.567 L 64.898,58.567 C 64.979,57.854 65.186,55.172 65.519,50.522 L 66.14,41.257 C 66.455,47.153 66.982,52.923 67.72,58.567 L 73.244,58.567 Z" marker-start="none" marker-end="none"/>
      <path d="M 80.064,58.567 L 80.064,39.058 L 83.521,39.058 L 83.521,34.177 L 74.378,34.177 L 74.378,58.567 L 80.064,58.567 Z" marker-start="none" marker-end="none"/>
      <path d="M 84.899,58.567 L 94.38,58.567 L 94.38,53.686 L 90.585,53.686 L 90.585,49.061 L 94.137,49.061 L 94.137,44.421 L 90.585,44.421 L 90.585,39.058 L 94.758,39.058 L 94.758,34.177 L 84.899,34.177 L 84.899,58.567 Z" marker-start="none" marker-end="none"/>
      <path d="M 96.392,58.567 L 100.646,58.567 C 103.393,58.567 105.25,58.426 106.217,58.145 C 107.185,57.864 107.921,57.402 108.425,56.759 C 108.93,56.116 109.245,55.401 109.371,54.612 C 109.497,53.824 109.56,52.275 109.56,49.965 L 109.56,41.423 C 109.56,39.234 109.468,37.77 109.283,37.032 C 109.099,36.294 108.777,35.716 108.318,35.299 C 107.858,34.882 107.291,34.591 106.616,34.425 C 105.94,34.26 104.923,34.177 103.564,34.177 L 96.392,34.177 L 96.392,58.567 Z M 102.078,54.394 L 102.078,38.35 C 102.897,38.35 103.402,38.533 103.591,38.899 C 103.78,39.266 103.874,40.263 103.874,41.89 L 103.874,51.366 C 103.874,52.47 103.843,53.178 103.78,53.49 C 103.717,53.801 103.573,54.03 103.348,54.176 C 103.123,54.321 102.699,54.394 102.078,54.394 Z" marker-start="none" marker-end="none"/>
      <path d="M 124.727,49.588 L 119.041,49.588 L 119.041,51.803 C 119.041,53.199 118.986,54.073 118.879,54.424 C 118.771,54.775 118.514,54.951 118.109,54.951 C 117.758,54.951 117.519,54.801 117.393,54.5 C 117.267,54.198 117.204,53.425 117.204,52.18 L 117.204,40.474 C 117.204,39.379 117.267,38.659 117.393,38.312 C 117.519,37.966 117.771,37.793 118.149,37.793 C 118.564,37.793 118.845,37.988 118.993,38.38 C 119.142,38.772 119.216,39.535 119.216,40.67 L 119.216,43.562 L 118.068,43.562 L 118.068,47.268 L 124.727,47.268 L 124.727,34.177 L 121.148,34.177 L 120.621,35.924 C 120.234,35.171 119.746,34.606 119.155,34.23 C 118.566,33.853 117.87,33.665 117.069,33.665 C 116.115,33.665 115.221,33.923 114.388,34.44 C 113.555,34.958 112.923,35.598 112.491,36.361 C 112.059,37.125 111.788,37.925 111.68,38.764 C 111.572,39.603 111.518,40.861 111.518,42.538 L 111.518,49.784 C 111.518,52.114 111.631,53.807 111.856,54.861 C 112.081,55.916 112.727,56.882 113.794,57.761 C 114.861,58.64 116.241,59.079 117.933,59.079 C 119.599,59.079 120.981,58.697 122.079,57.934 C 123.178,57.171 123.894,56.265 124.227,55.215 C 124.56,54.165 124.727,52.641 124.727,50.643 L 124.727,49.588 Z" marker-start="none" marker-end="none"/>
      <path d="M 126.927,58.567 L 136.408,58.567 L 136.408,53.686 L 132.613,53.686 L 132.613,49.061 L 136.165,49.061 L 136.165,44.421 L 132.613,44.421 L 132.613,39.058 L 136.786,39.058 L 136.786,34.177 L 126.927,34.177 L 126.927,58.567 Z" marker-start="none" marker-end="none"/>
     </g>
    </g>
    <g id="Group_4" fill-rule="nonzero" stroke-linejoin="round" stroke-linecap="round" stroke="none" stroke-width="0.292" fill="#000000" stroke-miterlimit="79.8403193612775">
     <g id="Group_5">
      <path d="M 66.705,29.28 L 68.365,29.28 C 69.436,29.28 70.161,29.222 70.538,29.106 C 70.916,28.99 71.203,28.8 71.4,28.536 C 71.596,28.271 71.719,27.977 71.768,27.653 C 71.817,27.328 71.842,26.691 71.842,25.741 L 71.842,22.227 C 71.842,21.326 71.806,20.724 71.734,20.42 C 71.662,20.117 71.537,19.879 71.357,19.707 C 71.178,19.536 70.957,19.416 70.694,19.348 C 70.43,19.28 70.033,19.246 69.503,19.246 L 66.705,19.246 L 66.705,29.28 Z M 68.923,27.563 L 68.923,20.962 C 69.243,20.962 69.44,21.038 69.513,21.189 C 69.587,21.34 69.624,21.75 69.624,22.419 L 69.624,26.317 C 69.624,26.772 69.612,27.063 69.587,27.191 C 69.563,27.319 69.507,27.413 69.419,27.473 C 69.331,27.533 69.166,27.563 68.923,27.563 Z" marker-start="none" marker-end="none"/>
      <path d="M 77.422,24.582 L 77.422,22.568 C 77.422,21.828 77.39,21.286 77.327,20.941 C 77.264,20.596 77.128,20.274 76.921,19.974 C 76.714,19.675 76.448,19.453 76.123,19.311 C 75.798,19.168 75.425,19.097 75.003,19.097 C 74.533,19.097 74.134,19.158 73.807,19.28 C 73.481,19.402 73.227,19.585 73.046,19.831 C 72.865,20.077 72.736,20.375 72.659,20.724 C 72.582,21.073 72.543,21.597 72.543,22.295 L 72.543,24.402 C 72.543,25.166 72.613,25.764 72.754,26.193 C 72.894,26.623 73.147,26.968 73.512,27.228 C 73.878,27.489 74.345,27.619 74.914,27.619 C 75.392,27.619 75.802,27.535 76.144,27.368 C 76.486,27.2 76.751,26.982 76.937,26.714 C 77.123,26.445 77.25,26.168 77.319,25.883 C 77.387,25.598 77.422,25.164 77.422,24.582 Z M 75.293,25.202 C 75.293,25.623 75.274,25.889 75.235,25.998 C 75.196,26.108 75.114,26.162 74.988,26.162 C 74.861,26.162 74.777,26.108 74.735,25.998 C 74.692,25.889 74.672,25.623 74.672,25.202 L 74.672,21.489 C 74.672,21.101 74.692,20.848 74.735,20.73 C 74.777,20.612 74.859,20.553 74.982,20.553 C 75.109,20.553 75.192,20.607 75.233,20.715 C 75.273,20.822 75.293,21.053 75.293,21.409 L 75.293,25.202 Z" marker-start="none" marker-end="none"/>
      <path d="M 80.287,27.47 L 80.251,26.714 C 80.405,27.015 80.594,27.242 80.817,27.392 C 81.04,27.543 81.297,27.619 81.589,27.619 C 81.954,27.619 82.253,27.517 82.485,27.315 C 82.716,27.113 82.866,26.857 82.932,26.55 C 82.999,26.242 83.032,25.728 83.032,25.009 L 83.032,19.246 L 80.904,19.246 L 80.904,24.941 C 80.904,25.507 80.888,25.852 80.856,25.976 C 80.825,26.1 80.737,26.162 80.593,26.162 C 80.442,26.162 80.347,26.091 80.309,25.948 C 80.27,25.806 80.251,25.425 80.251,24.805 L 80.251,19.246 L 78.122,19.246 L 78.122,27.47 L 80.287,27.47 Z" marker-start="none" marker-end="none"/>
      <path d="M 85.003,29.28 L 85.003,28.381 C 85.003,27.914 84.956,27.529 84.861,27.225 C 84.766,26.921 84.602,26.665 84.369,26.457 C 84.135,26.248 83.871,26.106 83.576,26.032 L 83.576,26.757 C 83.786,26.894 83.906,27.08 83.934,27.315 L 83.576,27.315 L 83.576,29.28 L 85.003,29.28 Z" marker-start="none" marker-end="none"/>
      <path d="M 87.822,28.567 L 87.822,27.272 L 88.396,27.272 L 88.396,25.97 L 87.822,25.97 L 87.822,21.57 C 87.822,21.029 87.845,20.727 87.893,20.665 C 87.94,20.603 88.138,20.572 88.485,20.572 L 88.485,19.246 L 87.627,19.246 C 87.142,19.246 86.796,19.27 86.589,19.317 C 86.382,19.365 86.199,19.474 86.041,19.646 C 85.883,19.817 85.784,20.013 85.746,20.234 C 85.707,20.455 85.688,20.975 85.688,21.793 L 85.688,25.97 L 85.23,25.97 L 85.23,27.272 L 85.688,27.272 L 85.688,28.567 L 87.822,28.567 Z" marker-start="none" marker-end="none"/>
      <path d="M 92.896,29.28 L 92.896,26.906 C 93.071,27.145 93.267,27.324 93.483,27.442 C 93.699,27.56 93.934,27.619 94.186,27.619 C 94.478,27.619 94.731,27.565 94.945,27.457 C 95.159,27.35 95.323,27.199 95.435,27.005 C 95.547,26.811 95.615,26.621 95.638,26.435 C 95.661,26.249 95.672,25.852 95.672,25.245 L 95.672,21.539 C 95.672,20.936 95.638,20.486 95.569,20.191 C 95.501,19.895 95.34,19.639 95.087,19.422 C 94.834,19.205 94.534,19.097 94.186,19.097 C 93.937,19.097 93.704,19.161 93.488,19.289 C 93.272,19.417 93.075,19.609 92.896,19.866 L 92.759,19.246 L 90.767,19.246 L 90.767,29.28 L 92.896,29.28 Z M 93.544,25.133 C 93.544,25.559 93.521,25.837 93.475,25.967 C 93.43,26.097 93.34,26.162 93.207,26.162 C 93.077,26.162 92.992,26.105 92.954,25.992 C 92.915,25.878 92.896,25.592 92.896,25.133 L 92.896,21.588 C 92.896,21.146 92.918,20.863 92.962,20.739 C 93.005,20.615 93.092,20.553 93.222,20.553 C 93.356,20.553 93.443,20.617 93.483,20.746 C 93.523,20.874 93.544,21.181 93.544,21.669 L 93.544,25.133 Z" marker-start="none" marker-end="none"/>
      <path d="M 101.194,23.212 L 98.439,23.212 L 98.439,21.433 C 98.439,21.062 98.461,20.822 98.507,20.715 C 98.553,20.607 98.64,20.553 98.77,20.553 C 98.932,20.553 99.04,20.625 99.094,20.767 C 99.149,20.91 99.176,21.186 99.176,21.595 L 99.176,22.679 L 101.194,22.679 L 101.194,22.072 C 101.194,21.564 101.167,21.173 101.112,20.901 C 101.058,20.628 100.93,20.337 100.73,20.027 C 100.53,19.717 100.276,19.484 99.969,19.33 C 99.662,19.174 99.276,19.097 98.813,19.097 C 98.363,19.097 97.966,19.173 97.622,19.326 C 97.278,19.479 97.01,19.689 96.818,19.955 C 96.627,20.222 96.494,20.515 96.421,20.836 C 96.347,21.156 96.31,21.621 96.31,22.233 L 96.31,24.631 C 96.31,25.35 96.393,25.917 96.558,26.333 C 96.723,26.748 96.993,27.066 97.369,27.287 C 97.745,27.508 98.177,27.619 98.665,27.619 C 99.262,27.619 99.755,27.485 100.143,27.219 C 100.531,26.952 100.803,26.599 100.959,26.159 C 101.116,25.719 101.194,25.1 101.194,24.303 L 101.194,23.212 Z M 99.06,24.551 L 99.06,25.152 C 99.06,25.578 99.041,25.852 99.002,25.976 C 98.963,26.1 98.884,26.162 98.765,26.162 C 98.618,26.162 98.526,26.109 98.491,26.004 C 98.456,25.899 98.439,25.615 98.439,25.152 L 98.439,24.551 L 99.06,24.551 Z" marker-start="none" marker-end="none"/>
      <path d="M 105.693,24.284 L 103.696,24.284 L 103.696,24.836 C 103.696,25.472 103.759,25.963 103.883,26.308 C 104.008,26.653 104.258,26.958 104.634,27.222 C 105.01,27.486 105.498,27.619 106.099,27.619 C 106.819,27.619 107.362,27.469 107.727,27.169 C 108.092,26.87 108.312,26.502 108.385,26.066 C 108.459,25.63 108.496,24.733 108.496,23.373 L 108.496,19.246 L 106.425,19.246 L 106.425,19.977 C 106.295,19.684 106.128,19.464 105.922,19.317 C 105.717,19.17 105.472,19.097 105.187,19.097 C 104.815,19.097 104.473,19.22 104.163,19.466 C 103.852,19.712 103.696,20.25 103.696,21.08 L 103.696,21.756 C 103.696,22.371 103.779,22.791 103.944,23.014 C 104.109,23.237 104.518,23.497 105.172,23.795 C 105.87,24.117 106.244,24.334 106.294,24.445 C 106.343,24.557 106.367,24.784 106.368,25.127 C 106.367,25.557 106.34,25.837 106.286,25.967 C 106.231,26.097 106.141,26.162 106.014,26.162 C 105.87,26.162 105.781,26.108 105.746,25.998 C 105.711,25.889 105.693,25.604 105.693,25.146 L 105.693,24.284 Z M 106.368,23.156 C 106.027,22.863 105.829,22.617 105.775,22.419 C 105.72,22.221 105.693,21.936 105.693,21.564 C 105.693,21.138 105.717,20.863 105.764,20.739 C 105.812,20.615 105.906,20.553 106.046,20.553 C 106.179,20.553 106.266,20.602 106.307,20.699 C 106.347,20.796 106.367,21.051 106.368,21.465 L 106.368,23.156 Z" marker-start="none" marker-end="none"/>
      <path d="M 115.835,24.365 L 113.828,24.365 L 113.828,25.313 C 113.828,25.644 113.805,25.868 113.759,25.986 C 113.713,26.103 113.629,26.162 113.506,26.162 C 113.383,26.162 113.301,26.111 113.259,26.007 C 113.216,25.904 113.196,25.673 113.196,25.313 L 113.196,21.433 C 113.196,21.14 113.227,20.92 113.29,20.773 C 113.353,20.627 113.447,20.553 113.57,20.553 C 113.714,20.553 113.811,20.63 113.862,20.783 C 113.913,20.936 113.938,21.225 113.938,21.65 L 113.938,22.63 L 115.835,22.63 C 115.831,21.973 115.811,21.48 115.774,21.152 C 115.738,20.823 115.62,20.486 115.421,20.141 C 115.223,19.796 114.964,19.536 114.644,19.36 C 114.325,19.185 113.93,19.097 113.459,19.097 C 112.858,19.097 112.382,19.218 112.031,19.46 C 111.68,19.701 111.431,20.04 111.286,20.476 C 111.14,20.912 111.067,21.531 111.067,22.332 L 111.067,24.669 C 111.067,25.367 111.127,25.894 111.246,26.249 C 111.366,26.604 111.62,26.921 112.01,27.2 C 112.4,27.479 112.874,27.619 113.433,27.619 C 113.988,27.619 114.462,27.48 114.855,27.203 C 115.248,26.927 115.51,26.577 115.64,26.156 C 115.77,25.734 115.835,25.138 115.835,24.365 Z" marker-start="none" marker-end="none"/>
      <path d="M 118.659,29.28 L 118.659,19.246 L 116.467,19.246 L 116.467,29.28 L 118.659,29.28 Z" marker-start="none" marker-end="none"/>
      <path d="M 124.239,24.582 L 124.239,22.568 C 124.239,21.828 124.207,21.286 124.144,20.941 C 124.081,20.596 123.945,20.274 123.738,19.974 C 123.531,19.675 123.265,19.453 122.94,19.311 C 122.615,19.168 122.242,19.097 121.82,19.097 C 121.35,19.097 120.951,19.158 120.624,19.28 C 120.298,19.402 120.044,19.585 119.863,19.831 C 119.682,20.077 119.553,20.375 119.476,20.724 C 119.399,21.073 119.36,21.597 119.36,22.295 L 119.36,24.402 C 119.36,25.166 119.43,25.764 119.571,26.193 C 119.711,26.623 119.964,26.968 120.329,27.228 C 120.695,27.489 121.162,27.619 121.731,27.619 C 122.209,27.619 122.619,27.535 122.961,27.368 C 123.303,27.2 123.568,26.982 123.754,26.714 C 123.94,26.445 124.067,26.168 124.136,25.883 C 124.204,25.598 124.239,25.164 124.239,24.582 Z M 122.11,25.202 C 122.11,25.623 122.091,25.889 122.052,25.998 C 122.013,26.108 121.931,26.162 121.805,26.162 C 121.678,26.162 121.594,26.108 121.552,25.998 C 121.509,25.889 121.489,25.623 121.489,25.202 L 121.489,21.489 C 121.489,21.101 121.509,20.848 121.552,20.73 C 121.594,20.612 121.676,20.553 121.799,20.553 C 121.926,20.553 122.009,20.607 122.05,20.715 C 122.09,20.822 122.11,21.053 122.11,21.409 L 122.11,25.202 Z" marker-start="none" marker-end="none"/>
      <path d="M 131.814,27.47 L 130.966,19.246 L 128.653,19.246 C 128.527,20.25 128.381,21.572 128.216,23.212 C 128.16,22.493 128.081,21.766 127.979,21.031 L 127.742,19.246 L 125.429,19.246 L 124.528,27.47 L 126.362,27.47 C 126.376,27.255 126.53,25.687 126.825,22.766 C 126.846,23.063 127.005,24.631 127.299,27.47 L 129.064,27.47 L 129.496,22.766 C 129.563,24.138 129.725,25.706 129.981,27.47 L 131.814,27.47 Z" marker-start="none" marker-end="none"/>
      <path d="M 134.327,27.47 L 134.291,26.714 C 134.445,27.015 134.634,27.242 134.857,27.392 C 135.08,27.543 135.337,27.619 135.629,27.619 C 135.994,27.619 136.293,27.517 136.525,27.315 C 136.756,27.113 136.906,26.857 136.972,26.55 C 137.039,26.242 137.072,25.728 137.072,25.009 L 137.072,19.246 L 134.944,19.246 L 134.944,24.941 C 134.944,25.507 134.928,25.852 134.896,25.976 C 134.865,26.1 134.777,26.162 134.633,26.162 C 134.482,26.162 134.387,26.091 134.349,25.948 C 134.31,25.806 134.291,25.425 134.291,24.805 L 134.291,19.246 L 132.162,19.246 L 132.162,27.47 L 134.327,27.47 Z" marker-start="none" marker-end="none"/>
      <path d="M 139.043,21.21 L 139.043,20.312 C 139.043,19.841 138.996,19.454 138.901,19.153 C 138.806,18.851 138.642,18.595 138.409,18.384 C 138.175,18.174 137.911,18.033 137.616,17.963 L 137.616,18.682 C 137.826,18.822 137.946,19.01 137.974,19.246 L 137.616,19.246 L 137.616,21.21 L 139.043,21.21 Z" marker-start="none" marker-end="none"/>
     </g>
     <g id="Group_6">
      <path d="M 89.58,13.798 L 88.594,3.764 L 85.823,3.764 C 85.57,5.305 85.347,7.057 85.154,9.019 C 85.066,8.181 84.861,6.429 84.538,3.764 L 81.782,3.764 L 80.792,13.798 L 82.947,13.798 L 83.173,10.296 L 83.405,6.918 C 83.486,8.666 83.69,10.959 84.016,13.798 L 86.324,13.798 C 86.355,13.504 86.436,12.401 86.566,10.488 L 86.808,6.677 C 86.931,9.102 87.137,11.476 87.425,13.798 L 89.58,13.798 Z" marker-start="none" marker-end="none"/>
      <path d="M 92.088,11.988 L 92.003,10.909 C 92.313,11.682 92.76,12.091 93.347,12.137 L 93.347,9.242 C 92.957,9.242 92.671,9.18 92.488,9.056 C 92.305,8.933 92.193,8.76 92.151,8.539 C 92.109,8.318 92.088,7.809 92.088,7.011 L 92.088,3.764 L 89.959,3.764 L 89.959,11.988 L 92.088,11.988 Z" marker-start="none" marker-end="none"/>
      <path d="M 96.013,13.798 L 96.013,12.49 L 93.821,12.49 L 93.821,13.798 L 96.013,13.798 Z M 96.013,11.988 L 96.013,3.764 L 93.821,3.764 L 93.821,11.988 L 96.013,11.988 Z" marker-start="none" marker-end="none"/>
      <path d="M 99.022,13.085 L 99.022,11.79 L 99.596,11.79 L 99.596,10.488 L 99.022,10.488 L 99.022,6.088 C 99.022,5.547 99.045,5.245 99.093,5.183 C 99.14,5.121 99.338,5.09 99.685,5.09 L 99.685,3.764 L 98.827,3.764 C 98.342,3.764 97.996,3.788 97.789,3.835 C 97.582,3.883 97.399,3.992 97.241,4.164 C 97.083,4.335 96.984,4.531 96.946,4.752 C 96.907,4.973 96.888,5.493 96.888,6.311 L 96.888,10.488 L 96.43,10.488 L 96.43,11.79 L 96.888,11.79 L 96.888,13.085 L 99.022,13.085 Z" marker-start="none" marker-end="none"/>
      <path d="M 104.886,7.73 L 102.131,7.73 L 102.131,5.951 C 102.131,5.58 102.153,5.34 102.199,5.233 C 102.245,5.125 102.332,5.071 102.462,5.071 C 102.624,5.071 102.732,5.143 102.786,5.285 C 102.841,5.428 102.868,5.704 102.868,6.113 L 102.868,7.197 L 104.886,7.197 L 104.886,6.59 C 104.886,6.082 104.859,5.691 104.804,5.419 C 104.75,5.146 104.622,4.855 104.422,4.545 C 104.222,4.235 103.968,4.002 103.661,3.848 C 103.354,3.692 102.968,3.615 102.505,3.615 C 102.055,3.615 101.658,3.691 101.314,3.844 C 100.97,3.997 100.702,4.207 100.51,4.473 C 100.319,4.74 100.186,5.033 100.113,5.354 C 100.039,5.674 100.002,6.139 100.002,6.751 L 100.002,9.149 C 100.002,9.868 100.085,10.435 100.25,10.851 C 100.415,11.266 100.685,11.584 101.061,11.805 C 101.437,12.026 101.869,12.137 102.357,12.137 C 102.954,12.137 103.447,12.003 103.835,11.737 C 104.223,11.47 104.495,11.117 104.651,10.677 C 104.808,10.237 104.886,9.618 104.886,8.821 L 104.886,7.73 Z M 102.752,9.069 L 102.752,9.67 C 102.752,10.096 102.733,10.37 102.694,10.494 C 102.655,10.618 102.576,10.68 102.457,10.68 C 102.31,10.68 102.218,10.627 102.183,10.522 C 102.148,10.417 102.131,10.133 102.131,9.67 L 102.131,9.069 L 102.752,9.069 Z" marker-start="none" marker-end="none"/>
      <path d="M 109.675,13.798 L 109.675,12.49 L 107.483,12.49 L 107.483,13.798 L 109.675,13.798 Z M 109.675,11.988 L 109.675,3.764 L 107.483,3.764 L 107.483,11.988 L 109.675,11.988 Z" marker-start="none" marker-end="none"/>
      <path d="M 112.684,13.085 L 112.684,11.79 L 113.258,11.79 L 113.258,10.488 L 112.684,10.488 L 112.684,6.088 C 112.684,5.547 112.707,5.245 112.755,5.183 C 112.802,5.121 113,5.09 113.347,5.09 L 113.347,3.764 L 112.489,3.764 C 112.004,3.764 111.658,3.788 111.451,3.835 C 111.244,3.883 111.061,3.992 110.903,4.164 C 110.745,4.335 110.646,4.531 110.608,4.752 C 110.569,4.973 110.55,5.493 110.55,6.311 L 110.55,10.488 L 110.092,10.488 L 110.092,11.79 L 110.55,11.79 L 110.55,13.085 L 112.684,13.085 Z" marker-start="none" marker-end="none"/>
      <path d="M 120.471,13.798 L 120.471,3.764 L 118.342,3.764 L 118.342,4.359 C 118.139,4.111 117.924,3.925 117.7,3.801 C 117.475,3.677 117.24,3.615 116.994,3.615 C 116.664,3.615 116.377,3.717 116.135,3.922 C 115.893,4.126 115.737,4.363 115.669,4.631 C 115.6,4.9 115.566,5.338 115.566,5.945 L 115.566,9.794 C 115.566,10.426 115.6,10.874 115.669,11.139 C 115.737,11.403 115.894,11.636 116.14,11.836 C 116.386,12.036 116.68,12.137 117.02,12.137 C 117.284,12.137 117.525,12.081 117.744,11.969 C 117.964,11.858 118.163,11.69 118.342,11.467 L 118.342,13.798 L 120.471,13.798 Z M 118.342,9.918 C 118.342,10.22 118.32,10.422 118.277,10.525 C 118.233,10.629 118.146,10.68 118.016,10.68 C 117.889,10.68 117.804,10.634 117.76,10.541 C 117.716,10.448 117.695,10.24 117.695,9.918 L 117.695,5.89 C 117.695,5.555 117.715,5.335 117.758,5.229 C 117.8,5.124 117.881,5.071 118,5.071 C 118.137,5.071 118.228,5.13 118.274,5.248 C 118.32,5.366 118.342,5.654 118.342,6.113 L 118.342,9.918 Z" marker-start="none" marker-end="none"/>
      <path d="M 126.051,9.1 L 126.051,7.086 C 126.051,6.346 126.019,5.804 125.956,5.459 C 125.893,5.114 125.757,4.792 125.55,4.492 C 125.343,4.193 125.077,3.971 124.752,3.829 C 124.427,3.686 124.054,3.615 123.632,3.615 C 123.162,3.615 122.763,3.676 122.436,3.798 C 122.11,3.92 121.856,4.103 121.675,4.349 C 121.494,4.595 121.365,4.893 121.288,5.242 C 121.211,5.591 121.172,6.115 121.172,6.813 L 121.172,8.92 C 121.172,9.684 121.242,10.282 121.383,10.711 C 121.523,11.141 121.776,11.486 122.141,11.746 C 122.507,12.007 122.974,12.137 123.543,12.137 C 124.021,12.137 124.431,12.053 124.773,11.886 C 125.115,11.718 125.38,11.5 125.566,11.232 C 125.752,10.963 125.879,10.686 125.948,10.401 C 126.016,10.116 126.051,9.682 126.051,9.1 Z M 123.922,9.72 C 123.922,10.141 123.903,10.407 123.864,10.516 C 123.825,10.626 123.743,10.68 123.617,10.68 C 123.49,10.68 123.406,10.626 123.364,10.516 C 123.321,10.407 123.301,10.141 123.301,9.72 L 123.301,6.007 C 123.301,5.619 123.321,5.366 123.364,5.248 C 123.406,5.13 123.488,5.071 123.611,5.071 C 123.738,5.071 123.821,5.125 123.862,5.233 C 123.902,5.34 123.922,5.571 123.922,5.927 L 123.922,9.72 Z" marker-start="none" marker-end="none"/>
      <path d="M 133.626,11.988 L 132.778,3.764 L 130.465,3.764 C 130.339,4.768 130.193,6.09 130.028,7.73 C 129.972,7.011 129.893,6.284 129.791,5.549 L 129.554,3.764 L 127.241,3.764 L 126.34,11.988 L 128.174,11.988 C 128.188,11.773 128.342,10.205 128.637,7.284 C 128.658,7.581 128.817,9.149 129.111,11.988 L 130.876,11.988 L 131.308,7.284 C 131.375,8.656 131.537,10.224 131.793,11.988 L 133.626,11.988 Z" marker-start="none" marker-end="none"/>
      <path d="M 136.139,11.988 L 136.103,11.232 C 136.257,11.533 136.446,11.76 136.669,11.91 C 136.892,12.061 137.149,12.137 137.441,12.137 C 137.806,12.137 138.105,12.035 138.337,11.833 C 138.568,11.631 138.718,11.375 138.784,11.068 C 138.851,10.76 138.884,10.246 138.884,9.527 L 138.884,3.764 L 136.756,3.764 L 136.756,9.459 C 136.756,10.025 136.74,10.37 136.708,10.494 C 136.677,10.618 136.589,10.68 136.445,10.68 C 136.294,10.68 136.199,10.609 136.161,10.466 C 136.122,10.324 136.103,9.943 136.103,9.323 L 136.103,3.764 L 133.974,3.764 L 133.974,11.988 L 136.139,11.988 Z" marker-start="none" marker-end="none"/>
     </g>
    </g>
    <g id="Group_7" fill-rule="nonzero" stroke-linejoin="round" stroke-linecap="round" stroke="none" stroke-width="1.707" fill="#ffffff" stroke-miterlimit="79.8403193612775">
     <g id="Group_8">
      <path d="M 28.518,89.882 L 28.518,84.414 L 22.637,84.414 L 22.637,62.56 L 12.733,62.56 L 12.733,84.414 L 6.875,84.414 L 6.875,89.882 L 28.518,89.882 Z" marker-start="none" marker-end="none"/>
      <path d="M 30.777,89.882 L 37.787,89.882 C 42.461,89.882 45.625,89.752 47.279,89.493 C 48.934,89.235 50.283,88.574 51.326,87.511 C 52.369,86.448 52.89,84.752 52.89,82.423 C 52.89,80.296 52.521,78.867 51.785,78.136 C 51.047,77.404 49.597,76.966 47.433,76.82 C 49.392,76.471 50.71,76.004 51.384,75.419 C 52.059,74.834 52.479,74.297 52.643,73.808 C 52.808,73.318 52.89,71.971 52.89,69.766 L 52.89,62.56 L 43.692,62.56 L 43.692,71.639 C 43.692,73.101 43.531,74.007 43.21,74.356 C 42.888,74.704 42.045,74.879 40.681,74.879 L 40.681,62.56 L 30.777,62.56 L 30.777,89.882 Z M 40.681,85.207 L 40.681,79.132 C 41.794,79.132 42.575,79.242 43.022,79.461 C 43.469,79.68 43.692,80.392 43.692,81.596 L 43.692,83.098 C 43.692,83.964 43.477,84.532 43.045,84.802 C 42.614,85.072 41.826,85.207 40.681,85.207 Z" marker-start="none" marker-end="none"/>
      <path d="M 66.628,89.882 L 66.628,62.56 L 56.724,62.56 L 56.724,89.882 L 66.628,89.882 Z" marker-start="none" marker-end="none"/>
      <path d="M 70.603,89.882 L 80.483,89.882 C 83.604,89.882 85.968,89.707 87.576,89.359 C 89.183,89.01 90.481,88.304 91.469,87.241 C 92.457,86.178 92.951,84.465 92.952,82.102 C 92.951,80.504 92.602,79.391 91.904,78.761 C 91.206,78.131 89.83,77.647 87.776,77.309 C 90.066,76.938 91.618,76.322 92.434,75.461 C 93.249,74.601 93.658,73.281 93.657,71.504 L 93.657,68.972 C 93.658,67.128 93.363,65.76 92.775,64.871 C 92.187,63.982 91.25,63.375 89.964,63.049 C 88.678,62.723 86.043,62.56 82.059,62.56 L 70.603,62.56 L 70.603,89.882 Z M 80.507,85.207 L 80.507,79.132 C 80.93,79.143 81.26,79.149 81.495,79.149 C 82.467,79.149 83.086,79.32 83.353,79.663 C 83.62,80.007 83.753,80.988 83.753,82.608 C 83.753,83.463 83.643,84.062 83.424,84.406 C 83.204,84.749 82.918,84.965 82.565,85.055 C 82.212,85.145 81.526,85.196 80.507,85.207 Z M 80.507,74.879 L 80.507,67.234 C 81.903,67.268 82.793,67.426 83.177,67.707 C 83.561,67.988 83.753,68.68 83.753,69.783 L 83.753,72.331 C 83.753,73.501 83.58,74.21 83.236,74.457 C 82.89,74.705 81.981,74.845 80.507,74.879 Z" marker-start="none" marker-end="none"/>
      <path d="M 114.312,89.882 L 119.981,62.56 L 109.842,62.56 L 109.348,67.47 L 105.795,67.47 L 105.207,62.56 L 94.951,62.56 L 99.985,89.882 L 114.312,89.882 Z M 109.065,72.314 C 108.564,75.408 108.062,79.227 107.56,83.772 C 106.556,78.552 105.928,74.733 105.678,72.314 L 109.065,72.314 Z" marker-start="none" marker-end="none"/>
      <path d="M 131.579,89.882 L 131.579,68.028 L 137.601,68.028 L 137.601,62.56 L 121.675,62.56 L 121.675,89.882 L 131.579,89.882 Z" marker-start="none" marker-end="none"/>
     </g>
    </g>
   </g>
  </g>
 </g>
</svg>
