<?xml version="1.0" standalone="no"?>
<!-- Generator: Xara Xtreme (www.xara.com), SVG filter version: 0.4 -->
<!DOCTYPE svg PUBLIC "-//W3C//DTD SVG 1.1//EN" "http://www.w3.org/Graphics/SVG/1.1/DTD/svg11.dtd">
<svg stroke-width="0.501" stroke-linejoin="bevel" fill-rule="evenodd" xmlns:xlink="http://www.w3.org/1999/xlink" xmlns="http://www.w3.org/2000/svg" version="1.1" width="144pt" height="216pt" viewBox="0 0 144 216">
 <defs>
  <marker id="DefaultArrow2" markerUnits="strokeWidth" viewBox="0 0 1 1" markerWidth="1" markerHeight="1" overflow="visible" orient="auto">
   <!-- REF_ARROW_STRAIGHT (-2) -->
   <g transform="scale(0.0092592592)">
    <!-- 1/108 -->
    <path d="M -9 54 L -9 -54 L 117 0 z"/>
   </g>
  </marker>
  <marker id="DefaultArrow3" markerUnits="strokeWidth" viewBox="0 0 1 1" markerWidth="1" markerHeight="1" overflow="visible" orient="auto">
   <!-- REF_ARROW_ANGLED -->
   <g transform="scale(0.0092592592)">
    <path d="M -27 54 L -9 0 L -27 -54 L 135 0 z"/>
   </g>
  </marker>
  <marker id="DefaultArrow4" markerUnits="strokeWidth" viewBox="0 0 1 1" markerWidth="1" markerHeight="1" overflow="visible" orient="auto">
   <!-- REF_ARROW_ROUNDED -->
   <g transform="scale(0.0092592592)">
    <path d="M -9,0 L -9,-45 C -9,-51.708 2.808,-56.580 9,-54 L 117,-9 C 120.916,-7.369 126.000,-4.242 126,0 C 126,4.242 120.916,7.369 117,9 L 9,54 C 2.808,56.580 -9,51.708 -9,45 z"/>
   </g>
  </marker>
  <marker id="DefaultArrow5" markerUnits="strokeWidth" viewBox="0 0 1 1" markerWidth="1" markerHeight="1" overflow="visible" orient="auto">
   <!-- REF_ARROW_SPOT -->
   <g transform="scale(0.0092592592)">
    <path d="M -54, 0 C -54,29.807 -29.807,54 0,54 C 29.807,54 54,29.807 54,0 C 54,-29.807 29.807,-54 0,-54 C -29.807,-54 -54,-29.807 -54,0 z"/>
   </g>
  </marker>
  <marker id="DefaultArrow6" markerUnits="strokeWidth" viewBox="0 0 1 1" markerWidth="1" markerHeight="1" overflow="visible" orient="auto">
   <!-- REF_ARROW_DIAMOND -->
   <g transform="scale(0.0092592592)">
    <path d="M -63,0 L 0,63 L 63,0 L 0,-63 z"/>
   </g>
  </marker>
  <marker id="DefaultArrow7" markerUnits="strokeWidth" viewBox="0 0 1 1" markerWidth="1" markerHeight="1" overflow="visible" orient="auto">
   <!-- REF_ARROW_FEATHER -->
   <g transform="scale(0.0092592592)">
    <path d="M 18,-54 L 108,-54 L 63,0 L 108,54 L 18, 54 L -36,0 z"/>
   </g>
  </marker>
  <marker id="DefaultArrow8" markerUnits="strokeWidth" viewBox="0 0 1 1" markerWidth="1" markerHeight="1" overflow="visible" orient="auto">
   <!-- REF_ARROW_FEATHER2 -->
   <g transform="scale(0.0092592592)">
    <path d="M -36,0 L 18,-54 L 54,-54 L 18,-18 L 27,-18 L 63,-54 L 99,-54 L 63,-18 L 72,-18 L 108,-54 L 144,-54 L 90,0 L 144,54 L 108,54 L 72,18 L 63,18 L 99,54 L 63,54 L 27,18 L 18,18 L 54,54 L 18,54 z"/>
   </g>
  </marker>
  <marker id="DefaultArrow9" markerUnits="strokeWidth" viewBox="0 0 1 1" markerWidth="1" markerHeight="1" overflow="visible" orient="auto">
   <!-- REF_ARROW_HOLLOWDIAMOND -->
   <g transform="scale(0.0092592592)">
    <path d="M 0,45 L -45,0 L 0, -45 L 45, 0 z M 0, 63 L-63, 0 L 0, -63 L 63, 0 z"/>
   </g>
  </marker>
  <linearGradient id="LinearGradient" gradientUnits="userSpaceOnUse" x1="0" y1="0" x2="189.75" y2="0" gradientTransform="translate(144.001 22.124) rotate(90)" spreadMethod="pad">
   <stop offset="0" stop-color="#bd9224"/>
   <stop offset="1" stop-color="#1f2444"/>
  </linearGradient>
  <linearGradient id="LinearGradient_1" gradientUnits="userSpaceOnUse" x1="0" y1="0" x2="88.485" y2="0" gradientTransform="translate(51.043 31.567) rotate(-8.74035) skewX(-1.85135)" spreadMethod="pad">
   <stop offset="0" stop-color="#5e697d"/>
   <stop offset="1" stop-color="#1f2444"/>
  </linearGradient>
  <linearGradient id="LinearGradient_2" gradientUnits="userSpaceOnUse" x1="0" y1="0" x2="69.902" y2="0" gradientTransform="translate(26.96 21.797) rotate(-2.79777) skewX(-0.598082)" spreadMethod="pad">
   <stop offset="0" stop-color="#505a70"/>
   <stop offset="1" stop-color="#cccccc"/>
  </linearGradient>
 </defs>
 <g id="Document" fill="none" stroke="black" font-family="Times New Roman" font-size="16" transform="scale(1 -1)">
  <g id="Spread" transform="translate(0 -216)">
   <g id="Layer 1">
    <g id="Group">
     <rect x="0.003" y="0.772" width="143.999" height="215.055" fill="url(#LinearGradient)" stroke="none" stroke-linecap="round" stroke-width="0.119" stroke-linejoin="miter" stroke-miterlimit="79.8403193612775"/>
     <path d="M 60.577,199.529 L 76.042,99.331" fill="none" stroke-width="0.317" stroke-linecap="round" stroke-linejoin="round" stroke-miterlimit="79.8403193612775"/>
     <rect x="0.001" y="0.176" width="144" height="20.732" stroke="none" fill="#1f2444" stroke-linecap="round" stroke-width="0.119" stroke-linejoin="miter" stroke-miterlimit="79.8403193612775"/>
     <path d="M 59.859,149.438 L 75.915,99.306" fill="none" stroke-width="0.317" stroke-linecap="round" stroke-linejoin="round" stroke-miterlimit="79.8403193612775"/>
     <path d="M 59.648,125.993 L 75.738,99.369" fill="none" stroke-width="0.317" stroke-linecap="round" stroke-linejoin="round" stroke-miterlimit="79.8403193612775"/>
     <path d="M 72.285,154.212 L 72.285,111.559 L 87.335,111.559 L 87.335,151.03 C 86.033,155.267 76.911,156.381 72.285,154.212 Z" stroke="none" fill="#3a000f" stroke-linecap="round" stroke-width="0.293" stroke-linejoin="miter" marker-start="none" marker-end="none" stroke-miterlimit="79.8403193612775"/>
     <path d="M 105.098,109.776 L 105.098,69.783 L 111.944,69.783 L 111.944,106.792 C 111.353,110.764 107.202,111.81 105.098,109.776 Z" stroke="none" fill="#150008" stroke-linecap="round" stroke-width="0.275" stroke-linejoin="miter" marker-start="none" marker-end="none" stroke-miterlimit="79.8403193612775"/>
     <path d="M 96.971,118.416 L 96.971,76.941 L 106.648,76.941 L 106.648,115.321 C 105.812,119.441 99.945,120.525 96.971,118.416 Z" stroke="none" fill="#21000b" stroke-linecap="round" stroke-width="0.285" stroke-linejoin="miter" marker-start="none" marker-end="none" stroke-miterlimit="79.8403193612775"/>
     <path d="M 85.42,132.218 L 85.42,90.077 L 98.332,90.077 L 98.332,129.074 C 97.215,133.26 89.388,134.361 85.42,132.218 Z" stroke="none" fill="#2d0008" stroke-linecap="round" stroke-width="0.29" stroke-linejoin="miter" marker-start="none" marker-end="none" stroke-miterlimit="79.8403193612775"/>
     <path d="M 105.1,92.858 L 105.1,52.863 L 111.947,52.863 L 111.947,89.873 C 111.356,93.846 107.205,94.891 105.1,92.858 Z" stroke="none" fill="#67001a" stroke-linecap="round" stroke-width="0.275" stroke-linejoin="miter" marker-start="none" marker-end="none" stroke-miterlimit="79.8403193612775"/>
     <path d="M 97.013,100.871 L 97.013,59.392 L 106.691,59.392 L 106.691,97.775 C 105.853,101.894 99.988,102.98 97.013,100.871 Z" stroke="none" fill="#730021" stroke-linecap="round" stroke-width="0.285" stroke-linejoin="miter" marker-start="none" marker-end="none" stroke-miterlimit="79.8403193612775"/>
     <path d="M 85.426,114.39 L 85.426,72.247 L 98.338,72.247 L 98.338,111.246 C 97.221,115.432 89.395,116.533 85.426,114.39 Z" stroke="none" fill="#810027" stroke-linecap="round" stroke-width="0.29" stroke-linejoin="miter" marker-start="none" marker-end="none" stroke-miterlimit="79.8403193612775"/>
     <path d="M 72.292,136.168 L 72.292,93.513 L 87.343,93.513 L 87.343,132.986 C 86.041,137.221 76.918,138.338 72.292,136.168 Z" stroke="none" fill="#910029" stroke-linecap="round" stroke-width="0.293" stroke-linejoin="miter" marker-start="none" marker-end="none" stroke-miterlimit="79.8403193612775"/>
     <path d="M 26.369,91.657 C 26.393,67.142 27.144,38.217 26.463,24.075 C 61.991,22.073 96.446,20.613 127.819,21.215 L 130.016,43.137 C 92.188,65.834 57.536,81.985 26.369,91.657 Z" stroke="none" fill="#2c2b26" stroke-linejoin="miter" marker-start="none" marker-end="none"/>
     <path d="M 26.394,91.628 C 19.598,87.495 16.01,82.73 13.852,78.076 C 17.558,65.25 23.134,55.53 26.852,35.703 L 26.394,91.628 Z" stroke="none" fill="#08080a" stroke-linejoin="miter" marker-start="none" marker-end="none"/>
     <path d="M 26.317,101.009 L 25.135,100.438 L 24.12,95.862 C 19.65,92.451 15.829,88.471 13.388,83.281 L 13.811,78.039 C 16.285,83.162 20.213,87.804 26.486,91.669 L 26.317,101.009 Z" stroke="none" fill="#8a7d74" stroke-linejoin="miter" marker-start="none" marker-end="none"/>
     <path d="M 48.389,88.489 L 85.225,88.341 L 92.487,85.363 L 91.959,83.426 L 48.521,84.767 L 48.389,88.489 Z" fill="#191919" stroke-linejoin="miter" stroke="#ff0000" marker-start="none" marker-end="none"/>
     <path d="M 55.488,84.887 L 104.887,85.032 L 104.278,58.017 L 55.488,84.887 Z" stroke="none" fill="#6c685e" stroke-linejoin="miter" marker-start="none" marker-end="none"/>
     <path d="M 104.783,82.939 C 114.82,73.815 125.497,63.933 130.156,61.198 L 130.05,45.73 L 104.252,58.842 L 104.783,82.939 Z" stroke="none" fill="#bab37f" stroke-linejoin="miter" marker-start="none" marker-end="none"/>
     <path d="M 65.409,96.978 L 65.409,102.221 L 70.901,101.982 L 72.379,99.956 L 80.619,99.719 L 80.513,100.909 L 85.159,101.028 L 88.223,98.645 L 88.434,92.568 L 65.514,93.045 L 65.409,96.978 Z" stroke="none" fill="#706f64" stroke-linejoin="miter" marker-start="none" marker-end="none"/>
     <path d="M 45.444,88.876 L 45.551,92.807 L 54.845,93.045 L 58.964,96.501 L 80.829,96.501 L 85.054,93.045 L 86.745,93.045 L 86.638,86.611 L 50.198,86.255 L 45.444,88.876 Z" stroke="none" fill="#8c847a" stroke-linejoin="miter" marker-start="none" marker-end="none"/>
     <path d="M 86.428,93.045 L 100.845,88.876 L 104.578,88.995 L 104.725,82.772 L 95.969,82.799 L 86.428,86.611 L 86.428,93.045 Z" stroke="none" fill="#d9d5b2" stroke-linejoin="miter" marker-start="none" marker-end="none"/>
     <path d="M 104.577,89.04 C 113.427,78.709 122.931,66.659 130.263,61.472 L 130.051,59.804 C 123.729,64.334 113.583,74.433 104.682,82.844 L 104.577,89.04 Z" stroke="none" fill="#be9885" stroke-linejoin="miter" marker-start="none" marker-end="none"/>
     <rect x="-0.666" y="-3.971" width="1.333" height="7.942" transform="translate(58.107 126.921) rotate(90)" stroke="none" fill="#432713" stroke-linejoin="miter"/>
     <rect x="-0.476" y="-2.534" width="0.953" height="5.069" transform="translate(58.698 151.13) rotate(90)" stroke="none" fill="#432713" stroke-linejoin="miter"/>
     <path d="M 26.589,101.091 L 56.84,125.492" fill="none" stroke-width="0.317" stroke-linecap="round" stroke-linejoin="round" stroke-miterlimit="79.8403193612775"/>
     <path d="M 26.758,101.281 L 57.514,149.32" fill="none" stroke-width="0.317" stroke-linecap="round" stroke-linejoin="round" stroke-miterlimit="79.8403193612775"/>
     <path d="M 26.42,101.281 L 59.374,199.837" fill="none" stroke-width="0.317" stroke-linecap="round" stroke-linejoin="round" stroke-miterlimit="79.8403193612775"/>
     <path d="M 57.347,141.314 L 54.136,127.588 L 51.6,86.984" fill="none" stroke-width="0.317" stroke-linecap="round" stroke-linejoin="round" stroke-miterlimit="79.8403193612775"/>
     <path d="M 59.713,141.314 L 61.825,128.159 L 63.936,81.264" fill="none" stroke-width="0.317" stroke-linecap="round" stroke-linejoin="round" stroke-miterlimit="79.8403193612775"/>
     <g id="Group_1" stroke-linejoin="miter" stroke-linecap="round" stroke="none" stroke-width="0.317" fill="#000000" stroke-miterlimit="79.8403193612775">
      <path d="M 60.388,95.942 L 60.388,93.083 L 61.908,93.083 L 61.908,95.942 L 60.388,95.942 Z" marker-start="none" marker-end="none"/>
      <path d="M 63.495,93.059 L 65.015,93.059 L 65.015,95.918 L 63.495,95.918 L 63.495,93.059 Z" marker-start="none" marker-end="none"/>
      <path d="M 66.603,93.036 L 68.123,93.036 L 68.123,95.895 L 66.603,95.895 L 66.603,93.036 Z" marker-start="none" marker-end="none"/>
      <path d="M 69.711,93.013 L 71.231,93.013 L 71.231,95.872 L 69.711,95.872 L 69.711,93.013 Z" marker-start="none" marker-end="none"/>
      <path d="M 72.818,92.989 L 74.338,92.989 L 74.338,95.848 L 72.818,95.848 L 72.818,92.989 Z" marker-start="none" marker-end="none"/>
      <path d="M 75.926,92.966 L 77.446,92.966 L 77.446,95.825 L 75.926,95.825 L 75.926,92.966 Z" marker-start="none" marker-end="none"/>
      <path d="M 79.034,95.802 L 79.034,92.943 L 80.554,92.943 L 80.554,95.802 L 79.034,95.802 Z" marker-start="none" marker-end="none"/>
     </g>
     <g id="Group_2" stroke-linejoin="miter" stroke-linecap="round" stroke="none" stroke-width="0.317" fill="#000000" stroke-miterlimit="79.8403193612775">
      <path d="M 65.857,101.591 L 65.857,100.162 L 66.491,100.162 L 66.491,101.591 L 65.857,101.591 Z" marker-start="none" marker-end="none"/>
      <path d="M 66.519,100.172 L 67.153,100.172 L 67.153,101.601 L 66.519,101.601 L 66.519,100.172 Z" marker-start="none" marker-end="none"/>
      <path d="M 67.182,100.182 L 67.816,100.182 L 67.816,101.611 L 67.182,101.611 L 67.182,100.182 Z" marker-start="none" marker-end="none"/>
      <path d="M 67.845,100.193 L 68.479,100.193 L 68.479,101.622 L 67.845,101.622 L 67.845,100.193 Z" marker-start="none" marker-end="none"/>
      <path d="M 68.508,100.203 L 69.142,100.203 L 69.142,101.632 L 68.508,101.632 L 68.508,100.203 Z" marker-start="none" marker-end="none"/>
      <path d="M 69.171,101.643 L 69.171,100.214 L 69.805,100.214 L 69.805,101.643 L 69.171,101.643 Z" marker-start="none" marker-end="none"/>
     </g>
     <g id="Group_3" stroke-linejoin="miter" stroke-linecap="round" stroke="none" stroke-width="0.317" fill="#000000" stroke-miterlimit="79.8403193612775">
      <path d="M 81.148,100.487 L 81.148,99.058 L 81.782,99.058 L 81.782,100.487 L 81.148,100.487 Z" marker-start="none" marker-end="none"/>
      <path d="M 81.81,99.068 L 82.444,99.068 L 82.444,100.497 L 81.81,100.497 L 81.81,99.068 Z" marker-start="none" marker-end="none"/>
      <path d="M 82.473,99.078 L 83.107,99.078 L 83.107,100.507 L 82.473,100.507 L 82.473,99.078 Z" marker-start="none" marker-end="none"/>
      <path d="M 83.136,99.089 L 83.77,99.089 L 83.77,100.518 L 83.136,100.518 L 83.136,99.089 Z" marker-start="none" marker-end="none"/>
      <path d="M 83.799,99.099 L 84.433,99.099 L 84.433,100.528 L 83.799,100.528 L 83.799,99.099 Z" marker-start="none" marker-end="none"/>
      <path d="M 84.462,100.539 L 84.462,99.11 L 85.096,99.11 L 85.096,100.539 L 84.462,100.539 Z" marker-start="none" marker-end="none"/>
     </g>
     <g id="Group_4" stroke-linejoin="miter" stroke-linecap="round" stroke="none" stroke-width="0.317" fill="#000000" stroke-miterlimit="79.8403193612775">
      <path d="M 68.657,98.791 L 68.657,96.885 L 69.554,96.885 L 69.554,98.791 L 68.657,98.791 Z" marker-start="none" marker-end="none"/>
      <path d="M 69.927,96.888 L 70.824,96.888 L 70.824,98.794 L 69.927,98.794 L 69.927,96.888 Z" marker-start="none" marker-end="none"/>
      <path d="M 71.198,96.892 L 72.095,96.892 L 72.095,98.798 L 71.198,98.798 L 71.198,96.892 Z" marker-start="none" marker-end="none"/>
      <path d="M 72.469,96.895 L 73.366,96.895 L 73.366,98.801 L 72.469,98.801 L 72.469,96.895 Z" marker-start="none" marker-end="none"/>
      <path d="M 73.74,96.899 L 74.637,96.899 L 74.637,98.805 L 73.74,98.805 L 73.74,96.899 Z" marker-start="none" marker-end="none"/>
      <path d="M 75.011,96.902 L 75.908,96.902 L 75.908,98.808 L 75.011,98.808 L 75.011,96.902 Z" marker-start="none" marker-end="none"/>
      <path d="M 76.282,96.906 L 77.179,96.906 L 77.179,98.812 L 76.282,98.812 L 76.282,96.906 Z" marker-start="none" marker-end="none"/>
      <path d="M 77.553,96.909 L 78.45,96.909 L 78.45,98.815 L 77.553,98.815 L 77.553,96.909 Z" marker-start="none" marker-end="none"/>
      <path d="M 78.824,98.819 L 78.824,96.913 L 79.721,96.913 L 79.721,98.819 L 78.824,98.819 Z" marker-start="none" marker-end="none"/>
     </g>
     <g id="Group_5" stroke-linejoin="miter" stroke-linecap="round" stroke="none" stroke-width="0.317" fill="#fffc00" stroke-miterlimit="79.8403193612775">
      <path d="M 60.709,82.995 L 60.709,79.718 L 63.508,79.718 L 63.508,82.995 L 60.709,82.995 Z" marker-start="none" marker-end="none"/>
      <path d="M 64.506,79.67 L 67.305,79.67 L 67.305,82.947 L 64.506,82.947 L 64.506,79.67 Z" marker-start="none" marker-end="none"/>
      <path d="M 68.304,79.622 L 71.103,79.622 L 71.103,82.899 L 68.304,82.899 L 68.304,79.622 Z" marker-start="none" marker-end="none"/>
      <path d="M 72.103,79.574 L 74.902,79.574 L 74.902,82.851 L 72.103,82.851 L 72.103,79.574 Z" marker-start="none" marker-end="none"/>
      <path d="M 75.9,79.526 L 78.699,79.526 L 78.699,82.803 L 75.9,82.803 L 75.9,79.526 Z" marker-start="none" marker-end="none"/>
      <path d="M 79.698,79.478 L 82.497,79.478 L 82.497,82.755 L 79.698,82.755 L 79.698,79.478 Z" marker-start="none" marker-end="none"/>
      <path d="M 83.497,82.707 L 83.497,79.43 L 86.296,79.43 L 86.296,82.707 L 83.497,82.707 Z" marker-start="none" marker-end="none"/>
     </g>
     <path d="M 26.251,101.091 L 28.448,100.709 L 30.475,95.181 C 49.983,87.36 71.852,78.063 95.373,67.729 C 94.896,65.397 95.575,63.714 96.893,62.392 L 102.132,59.681 C 103.302,59.886 103.362,61.766 103.146,63.537 C 116.6,53.215 124.656,48.649 130.016,46.951 L 130.016,43.52 C 124.609,43.329 110.751,54.194 102.808,58.58 C 77.346,71.367 51.882,82.832 26.42,91.559 L 26.251,101.091 Z" stroke="none" fill="#d8d3af" stroke-linejoin="miter" marker-start="none" marker-end="none"/>
     <rect x="-2.27" y="-4.03" width="4.541" height="8.061" transform="translate(100.449 80.334) rotate(90)" stroke="none" stroke-width="0.317" stroke-linecap="round" fill="#fffc00" stroke-linejoin="miter" stroke-miterlimit="79.8403193612775"/>
     <rect x="-2.27" y="-4.125" width="4.541" height="8.251" transform="translate(100.159 70.112) rotate(90)" stroke="none" stroke-width="0.317" stroke-linecap="round" fill="#fffc00" stroke-linejoin="miter" stroke-miterlimit="79.8403193612775"/>
     <path d="M 104.852,82.486 L 104.852,78.126 L 107.952,75.241 L 108.021,79.364 L 104.852,82.486 Z" stroke="none" stroke-width="0.317" stroke-linecap="round" fill="#fffc00" stroke-linejoin="miter" marker-start="none" marker-end="none" stroke-miterlimit="79.8403193612775"/>
     <path d="M 104.725,72.287 L 104.619,67.808 L 108.021,64.853 L 108.021,68.999 L 104.725,72.287 Z" stroke="none" stroke-width="0.317" stroke-linecap="round" fill="#fffc00" stroke-linejoin="miter" marker-start="none" marker-end="none" stroke-miterlimit="79.8403193612775"/>
     <g id="Group_6" stroke-linecap="round" stroke="none" stroke-width="0.293" fill="#fffc00" stroke-miterlimit="79.8403193612775">
      <path d="M 108.306,78.788 L 108.306,74.939 L 109.414,73.691 L 109.414,77.54 L 108.306,78.788 Z" stroke-linejoin="miter" marker-start="none" marker-end="none"/>
      <path d="M 110.423,72.877 L 111.462,71.718 L 111.462,75.409 L 110.423,76.568 L 110.423,72.877 Z" stroke-linejoin="miter" marker-start="none" marker-end="none"/>
      <path d="M 112.426,70.967 L 113.401,69.891 L 113.401,73.433 L 112.426,74.509 L 112.426,70.967 Z" stroke-linejoin="miter" marker-start="none" marker-end="none"/>
      <path d="M 114.321,69.188 L 115.236,68.19 L 115.236,71.593 L 114.321,72.591 L 114.321,69.188 Z" stroke-linejoin="miter" marker-start="none" marker-end="none"/>
      <path d="M 116.113,67.524 L 116.971,66.6 L 116.971,69.872 L 116.113,70.796 L 116.113,67.524 Z" stroke-linejoin="miter" marker-start="none" marker-end="none"/>
      <path d="M 117.813,65.968 L 118.618,65.113 L 118.618,68.262 L 117.813,69.117 L 117.813,65.968 Z" stroke-linejoin="miter" marker-start="none" marker-end="none"/>
      <path d="M 119.426,64.511 L 120.18,63.722 L 120.18,66.754 L 119.426,67.543 L 119.426,64.511 Z" stroke-linejoin="miter" marker-start="none" marker-end="none"/>
      <path d="M 120.962,63.143 L 121.668,62.416 L 121.668,65.338 L 120.962,66.065 L 120.962,63.143 Z" stroke-linejoin="miter" marker-start="none" marker-end="none"/>
      <path d="M 122.424,61.858 L 123.086,61.189 L 123.086,64.007 L 122.424,64.676 L 122.424,61.858 Z" stroke-linejoin="miter" marker-start="none" marker-end="none"/>
      <path d="M 123.824,60.653 L 124.442,60.04 L 124.442,62.759 L 123.824,63.372 L 123.824,60.653 Z" stroke-linejoin="miter" marker-start="none" marker-end="none"/>
      <path d="M 125.165,59.524 L 125.743,58.963 L 125.743,61.589 L 125.165,62.149 L 125.165,59.524 Z" stroke-linejoin="miter" marker-start="none" marker-end="none"/>
      <path d="M 126.46,58.472 L 126.998,57.961 L 126.998,60.497 L 126.46,61.008 L 126.46,58.472 Z" stroke-linejoin="miter" marker-start="none" marker-end="none"/>
      <path d="M 127.721,57.509 L 128.223,57.046 L 128.223,59.497 L 127.721,59.959 L 127.721,57.509 Z" stroke-linejoin="miter" marker-start="none" marker-end="none"/>
      <path d="M 128.996,59.059 L 128.996,56.689 L 129.463,56.272 L 129.463,58.642 L 128.996,59.059 Z" stroke-linejoin="miter" marker-start="none" marker-end="none"/>
      <path d="M 108.86,76.24 C 116.194,68.789 127.012,58.746 129.23,57.666" fill="none" stroke-linejoin="round"/>
     </g>
     <g id="Group_7" stroke-linecap="round" stroke="none" stroke-width="0.293" fill="#fffc00" stroke-miterlimit="79.8403193612775">
      <path d="M 108.286,68.575 L 108.286,64.725 L 109.391,63.628 L 109.391,67.478 L 108.286,68.575 Z" stroke-linejoin="miter" marker-start="none" marker-end="none"/>
      <path d="M 110.398,62.951 L 111.434,61.933 L 111.434,65.625 L 110.398,66.642 L 110.398,62.951 Z" stroke-linejoin="miter" marker-start="none" marker-end="none"/>
      <path d="M 112.396,61.309 L 113.368,60.366 L 113.368,63.909 L 112.396,64.852 L 112.396,61.309 Z" stroke-linejoin="miter" marker-start="none" marker-end="none"/>
      <path d="M 114.287,59.785 L 115.199,58.913 L 115.199,62.316 L 114.287,63.189 L 114.287,59.785 Z" stroke-linejoin="miter" marker-start="none" marker-end="none"/>
      <path d="M 116.076,58.366 L 116.931,57.559 L 116.931,60.831 L 116.076,61.638 L 116.076,58.366 Z" stroke-linejoin="miter" marker-start="none" marker-end="none"/>
      <path d="M 117.771,57.04 L 118.573,56.295 L 118.573,59.444 L 117.771,60.189 L 117.771,57.04 Z" stroke-linejoin="miter" marker-start="none" marker-end="none"/>
      <path d="M 119.382,55.801 L 120.133,55.115 L 120.133,58.147 L 119.382,58.834 L 119.382,55.801 Z" stroke-linejoin="miter" marker-start="none" marker-end="none"/>
      <path d="M 120.914,54.642 L 121.617,54.012 L 121.617,56.933 L 120.914,57.565 L 120.914,54.642 Z" stroke-linejoin="miter" marker-start="none" marker-end="none"/>
      <path d="M 122.373,53.556 L 123.031,52.978 L 123.031,55.796 L 122.373,56.374 L 122.373,53.556 Z" stroke-linejoin="miter" marker-start="none" marker-end="none"/>
      <path d="M 123.767,52.542 L 124.383,52.013 L 124.383,54.732 L 123.767,55.261 L 123.767,52.542 Z" stroke-linejoin="miter" marker-start="none" marker-end="none"/>
      <path d="M 125.106,51.595 L 125.681,51.114 L 125.681,53.738 L 125.106,54.221 L 125.106,51.595 Z" stroke-linejoin="miter" marker-start="none" marker-end="none"/>
      <path d="M 126.395,50.721 L 126.931,50.284 L 126.931,52.82 L 126.395,53.257 L 126.395,50.721 Z" stroke-linejoin="miter" marker-start="none" marker-end="none"/>
      <path d="M 127.65,49.928 L 128.15,49.535 L 128.15,51.985 L 127.65,52.379 L 127.65,49.928 Z" stroke-linejoin="miter" marker-start="none" marker-end="none"/>
      <path d="M 128.912,51.66 L 128.912,49.29 L 129.376,48.937 L 129.376,51.306 L 128.912,51.66 Z" stroke-linejoin="miter" marker-start="none" marker-end="none"/>
      <path d="M 108.838,66.102 C 116.147,59.649 126.934,51.077 129.145,50.298" fill="none" stroke-linejoin="round"/>
     </g>
     <ellipse rx="2.042" ry="1.439" transform="translate(113.47 79.341) rotate(144.645) skewX(-44.5328)" stroke="none" fill="#d9d5b2" stroke-linecap="round" stroke-linejoin="miter" stroke-width="0.285" stroke-miterlimit="79.8403193612775"/>
     <ellipse rx="1.723" ry="1.156" transform="translate(113.394 78.964) rotate(148.062) skewX(-42.3579)" stroke="none" fill="#6c685e" stroke-linecap="round" stroke-linejoin="miter" stroke-width="0.22" stroke-miterlimit="79.8403193612775"/>
     <ellipse rx="1.76" ry="1.195" transform="translate(116.89 75.635) rotate(147.267) skewX(-42.8654)" stroke="none" fill="#d9d5b2" stroke-linecap="round" stroke-linejoin="miter" stroke-width="0.23" stroke-miterlimit="79.8403193612775"/>
     <ellipse rx="1.493" ry="0.955" transform="translate(116.821 75.331) rotate(150.517) skewX(-40.9263)" stroke="none" fill="#6c685e" stroke-linecap="round" stroke-linejoin="miter" stroke-width="0.178" stroke-miterlimit="79.8403193612775"/>
     <g id="Group_8" stroke-linecap="round" stroke="none" fill="#fffc00">
      <path d="M 57.95,66.182 C 83.213,62.132 111.398,40.685 128.308,38.541" fill="none" stroke-linejoin="round" stroke-width="0.317" stroke-miterlimit="79.8403193612775"/>
      <path d="M 58.071,67.314 C 58.408,67.264 58.627,66.714 58.56,66.089 C 58.493,65.463 58.164,64.998 57.828,65.049 C 57.491,65.099 57.272,65.649 57.339,66.274 C 57.406,66.9 57.735,67.365 58.071,67.314 Z" stroke-linejoin="miter" stroke-width="0.158" marker-start="none" marker-end="none" stroke-miterlimit="79.8403193612775"/>
      <path d="M 62.21,64.199 C 62.538,64.149 62.858,64.607 62.923,65.224 C 62.988,65.84 62.775,66.382 62.447,66.431 C 62.12,66.481 61.8,66.023 61.734,65.406 C 61.669,64.79 61.882,64.248 62.21,64.199 Z" stroke-width="0.157" stroke-linejoin="miter" marker-start="none" marker-end="none" stroke-miterlimit="79.8403193612775"/>
      <path d="M 66.364,63.128 C 66.683,63.079 66.994,63.53 67.058,64.139 C 67.121,64.746 66.914,65.28 66.594,65.329 C 66.276,65.379 65.964,64.927 65.901,64.319 C 65.837,63.712 66.045,63.177 66.364,63.128 Z" stroke-width="0.155" stroke-linejoin="miter" marker-start="none" marker-end="none" stroke-miterlimit="79.8403193612775"/>
      <path d="M 70.306,61.903 C 70.617,61.854 70.92,62.3 70.982,62.899 C 71.044,63.498 70.842,64.025 70.531,64.074 C 70.22,64.122 69.917,63.677 69.855,63.077 C 69.793,62.478 69.995,61.951 70.306,61.903 Z" stroke-width="0.154" stroke-linejoin="miter" marker-start="none" marker-end="none" stroke-miterlimit="79.8403193612775"/>
      <path d="M 74.054,60.577 C 74.356,60.529 74.652,60.968 74.712,61.56 C 74.772,62.151 74.575,62.671 74.272,62.718 C 73.97,62.766 73.674,62.327 73.614,61.735 C 73.554,61.145 73.751,60.624 74.054,60.577 Z" stroke-width="0.152" stroke-linejoin="miter" marker-start="none" marker-end="none" stroke-miterlimit="79.8403193612775"/>
      <path d="M 77.625,59.189 C 77.92,59.141 78.208,59.575 78.267,60.159 C 78.325,60.742 78.133,61.255 77.838,61.302 C 77.543,61.35 77.255,60.916 77.196,60.332 C 77.138,59.749 77.33,59.236 77.625,59.189 Z" stroke-width="0.151" stroke-linejoin="miter" marker-start="none" marker-end="none" stroke-miterlimit="79.8403193612775"/>
      <path d="M 81.03,57.761 C 81.318,57.714 81.598,58.143 81.656,58.719 C 81.713,59.294 81.526,59.801 81.238,59.848 C 80.95,59.894 80.67,59.466 80.612,58.89 C 80.555,58.315 80.742,57.808 81.03,57.761 Z" stroke-width="0.149" stroke-linejoin="miter" marker-start="none" marker-end="none" stroke-miterlimit="79.8403193612775"/>
      <path d="M 84.292,56.326 C 84.572,56.28 84.846,56.703 84.902,57.272 C 84.958,57.84 84.775,58.341 84.494,58.387 C 84.214,58.433 83.94,58.01 83.884,57.441 C 83.829,56.873 84.011,56.372 84.292,56.326 Z" stroke-width="0.148" stroke-linejoin="miter" marker-start="none" marker-end="none" stroke-miterlimit="79.8403193612775"/>
      <path d="M 87.417,54.888 C 87.69,54.842 87.957,55.26 88.012,55.822 C 88.066,56.383 87.888,56.877 87.614,56.923 C 87.341,56.968 87.074,56.551 87.019,55.989 C 86.965,55.428 87.143,54.933 87.417,54.888 Z" stroke-width="0.146" stroke-linejoin="miter" marker-start="none" marker-end="none" stroke-miterlimit="79.8403193612775"/>
      <path d="M 90.42,53.464 C 90.687,53.418 90.948,53.831 91.001,54.386 C 91.054,54.94 90.88,55.429 90.613,55.474 C 90.346,55.519 90.086,55.107 90.032,54.552 C 89.98,53.997 90.153,53.508 90.42,53.464 Z" stroke-width="0.144" stroke-linejoin="miter" marker-start="none" marker-end="none" stroke-miterlimit="79.8403193612775"/>
      <path d="M 93.313,52.065 C 93.573,52.021 93.827,52.428 93.879,52.977 C 93.931,53.525 93.761,54.008 93.501,54.052 C 93.24,54.097 92.986,53.689 92.934,53.141 C 92.883,52.593 93.052,52.11 93.313,52.065 Z" stroke-width="0.143" stroke-linejoin="miter" marker-start="none" marker-end="none" stroke-miterlimit="79.8403193612775"/>
      <path d="M 96.102,50.697 C 96.356,50.653 96.604,51.055 96.655,51.598 C 96.705,52.139 96.539,52.617 96.285,52.661 C 96.031,52.705 95.783,52.302 95.732,51.76 C 95.682,51.218 95.847,50.741 96.102,50.697 Z" stroke-width="0.141" stroke-linejoin="miter" marker-start="none" marker-end="none" stroke-miterlimit="79.8403193612775"/>
      <path d="M 98.796,49.363 C 99.045,49.32 99.287,49.718 99.336,50.254 C 99.385,50.79 99.224,51.262 98.975,51.306 C 98.727,51.349 98.485,50.951 98.436,50.415 C 98.387,49.879 98.548,49.407 98.796,49.363 Z" stroke-width="0.14" stroke-linejoin="miter" marker-start="none" marker-end="none" stroke-miterlimit="79.8403193612775"/>
      <path d="M 101.406,48.072 C 101.649,48.029 101.885,48.422 101.933,48.952 C 101.981,49.482 101.824,49.949 101.581,49.992 C 101.339,50.035 101.103,49.642 101.054,49.111 C 101.006,48.582 101.164,48.115 101.406,48.072 Z" stroke-width="0.138" stroke-linejoin="miter" marker-start="none" marker-end="none" stroke-miterlimit="79.8403193612775"/>
      <path d="M 103.936,46.826 C 104.173,46.783 104.403,47.173 104.451,47.697 C 104.497,48.221 104.343,48.683 104.107,48.726 C 103.87,48.768 103.639,48.379 103.592,47.854 C 103.545,47.33 103.699,46.868 103.936,46.826 Z" stroke-width="0.137" stroke-linejoin="miter" marker-start="none" marker-end="none" stroke-miterlimit="79.8403193612775"/>
      <path d="M 106.396,45.631 C 106.627,45.589 106.852,45.974 106.899,46.493 C 106.944,47.011 106.794,47.469 106.563,47.511 C 106.331,47.553 106.106,47.168 106.06,46.649 C 106.014,46.131 106.165,45.673 106.396,45.631 Z" stroke-width="0.135" stroke-linejoin="miter" marker-start="none" marker-end="none" stroke-miterlimit="79.8403193612775"/>
      <path d="M 108.789,44.491 C 109.015,44.45 109.235,44.831 109.28,45.344 C 109.325,45.857 109.178,46.31 108.952,46.352 C 108.726,46.393 108.506,46.012 108.461,45.499 C 108.416,44.986 108.563,44.533 108.789,44.491 Z" stroke-width="0.134" stroke-linejoin="miter" marker-start="none" marker-end="none" stroke-miterlimit="79.8403193612775"/>
      <path d="M 111.122,43.409 C 111.343,43.368 111.558,43.745 111.602,44.253 C 111.646,44.761 111.502,45.209 111.282,45.251 C 111.061,45.292 110.846,44.914 110.802,44.406 C 110.758,43.899 110.902,43.451 111.122,43.409 Z" stroke-width="0.132" stroke-linejoin="miter" marker-start="none" marker-end="none" stroke-miterlimit="79.8403193612775"/>
      <path d="M 113.403,42.393 C 113.619,42.352 113.829,42.726 113.872,43.229 C 113.914,43.732 113.774,44.175 113.558,44.217 C 113.342,44.257 113.132,43.884 113.089,43.381 C 113.047,42.878 113.187,42.434 113.403,42.393 Z" stroke-width="0.13" stroke-linejoin="miter" marker-start="none" marker-end="none" stroke-miterlimit="79.8403193612775"/>
      <path d="M 115.633,41.443 C 115.844,41.403 116.049,41.773 116.091,42.271 C 116.133,42.769 115.995,43.208 115.785,43.249 C 115.574,43.289 115.368,42.919 115.326,42.421 C 115.285,41.924 115.422,41.484 115.633,41.443 Z" stroke-width="0.129" stroke-linejoin="miter" marker-start="none" marker-end="none" stroke-miterlimit="79.8403193612775"/>
      <path d="M 117.819,40.57 C 118.026,40.53 118.226,40.896 118.268,41.389 C 118.308,41.882 118.174,42.317 117.968,42.358 C 117.762,42.398 117.561,42.031 117.52,41.538 C 117.479,41.045 117.614,40.61 117.819,40.57 Z" stroke-width="0.127" stroke-linejoin="miter" marker-start="none" marker-end="none" stroke-miterlimit="79.8403193612775"/>
      <path d="M 119.969,39.779 C 120.171,39.739 120.366,40.102 120.407,40.591 C 120.446,41.079 120.315,41.51 120.114,41.55 C 119.912,41.59 119.716,41.227 119.676,40.738 C 119.636,40.25 119.767,39.819 119.969,39.779 Z" stroke-width="0.126" stroke-linejoin="miter" marker-start="none" marker-end="none" stroke-miterlimit="79.8403193612775"/>
      <path d="M 122.082,39.079 C 122.279,39.04 122.471,39.399 122.51,39.883 C 122.549,40.367 122.421,40.794 122.224,40.834 C 122.026,40.873 121.835,40.514 121.795,40.03 C 121.757,39.546 121.885,39.119 122.082,39.079 Z" stroke-width="0.124" stroke-linejoin="miter" marker-start="none" marker-end="none" stroke-miterlimit="79.8403193612775"/>
      <path d="M 124.163,38.486 C 124.356,38.447 124.544,38.803 124.582,39.283 C 124.62,39.762 124.495,40.186 124.302,40.225 C 124.109,40.264 123.922,39.908 123.883,39.428 C 123.845,38.949 123.971,38.525 124.163,38.486 Z" stroke-width="0.123" stroke-linejoin="miter" marker-start="none" marker-end="none" stroke-miterlimit="79.8403193612775"/>
      <path d="M 126.216,38.016 C 126.406,37.978 126.589,38.331 126.626,38.806 C 126.663,39.281 126.541,39.701 126.352,39.74 C 126.163,39.778 125.98,39.425 125.942,38.95 C 125.906,38.475 126.028,38.055 126.216,38.016 Z" stroke-width="0.121" stroke-linejoin="miter" marker-start="none" marker-end="none" stroke-miterlimit="79.8403193612775"/>
      <path d="M 128.374,39.395 C 128.558,39.356 128.678,38.94 128.642,38.469 C 128.605,37.998 128.426,37.648 128.241,37.686 C 128.057,37.725 127.937,38.141 127.973,38.612 C 128.01,39.083 128.189,39.433 128.374,39.395 Z" stroke-linejoin="miter" stroke-width="0.119" marker-start="none" marker-end="none" stroke-miterlimit="79.8403193612775"/>
     </g>
     <g id="Group_9" stroke-linecap="round" stroke="none">
      <path d="M 55.422,49.978 C 75.915,48.31 112.46,31.63 127.248,30.915" fill="none" stroke-linejoin="round" stroke-width="0.317" stroke-miterlimit="79.8403193612775"/>
      <path d="M 55.405,51.001 C 55.746,51.156 56.031,50.824 56.041,50.26 C 56.051,49.695 55.782,49.111 55.44,48.956 C 55.099,48.801 54.814,49.133 54.804,49.697 C 54.794,50.262 55.063,50.846 55.405,51.001 Z" stroke-linejoin="miter" fill="#fffc00" stroke-width="0.119" marker-start="none" marker-end="none" stroke-miterlimit="79.8403193612775"/>
      <path d="M 59.619,48.464 C 59.953,48.617 60.215,49.192 60.206,49.748 C 60.196,50.303 59.918,50.629 59.585,50.477 C 59.251,50.324 58.989,49.75 58.998,49.194 C 59.008,48.639 59.286,48.312 59.619,48.464 Z" fill="#fffc00" stroke-width="0.118" stroke-linejoin="miter" marker-start="none" marker-end="none" stroke-miterlimit="79.8403193612775"/>
      <path d="M 63.623,47.754 C 63.948,47.904 64.205,48.47 64.195,49.018 C 64.186,49.564 63.914,49.886 63.589,49.735 C 63.264,49.585 63.007,49.019 63.017,48.472 C 63.026,47.926 63.298,47.604 63.623,47.754 Z" fill="#fffc00" stroke-width="0.117" stroke-linejoin="miter" marker-start="none" marker-end="none" stroke-miterlimit="79.8403193612775"/>
      <path d="M 67.462,46.911 C 67.779,47.059 68.03,47.616 68.02,48.155 C 68.011,48.693 67.746,49.01 67.429,48.862 C 67.111,48.714 66.861,48.157 66.87,47.618 C 66.879,47.08 67.144,46.763 67.462,46.911 Z" fill="#fffc00" stroke-width="0.116" stroke-linejoin="miter" marker-start="none" marker-end="none" stroke-miterlimit="79.8403193612775"/>
      <path d="M 71.151,45.995 C 71.461,46.141 71.705,46.689 71.696,47.22 C 71.688,47.75 71.429,48.062 71.119,47.917 C 70.808,47.771 70.564,47.222 70.573,46.691 C 70.582,46.161 70.841,45.849 71.151,45.995 Z" fill="#fffc00" stroke-width="0.114" stroke-linejoin="miter" marker-start="none" marker-end="none" stroke-miterlimit="79.8403193612775"/>
      <path d="M 74.7,45.034 C 75.003,45.177 75.241,45.718 75.233,46.241 C 75.224,46.763 74.971,47.07 74.668,46.927 C 74.365,46.783 74.127,46.243 74.135,45.72 C 74.144,45.197 74.397,44.89 74.7,45.034 Z" fill="#fffc00" stroke-width="0.113" stroke-linejoin="miter" marker-start="none" marker-end="none" stroke-miterlimit="79.8403193612775"/>
      <path d="M 78.122,44.05 C 78.418,44.191 78.651,44.724 78.642,45.239 C 78.634,45.754 78.387,46.057 78.091,45.915 C 77.795,45.774 77.562,45.241 77.57,44.726 C 77.579,44.211 77.826,43.908 78.122,44.05 Z" fill="#fffc00" stroke-width="0.112" stroke-linejoin="miter" marker-start="none" marker-end="none" stroke-miterlimit="79.8403193612775"/>
      <path d="M 81.424,43.055 C 81.713,43.195 81.941,43.72 81.933,44.228 C 81.925,44.735 81.683,45.034 81.394,44.894 C 81.105,44.754 80.877,44.229 80.885,43.721 C 80.893,43.214 81.135,42.915 81.424,43.055 Z" fill="#fffc00" stroke-width="0.11" stroke-linejoin="miter" marker-start="none" marker-end="none" stroke-miterlimit="79.8403193612775"/>
      <path d="M 84.617,42.065 C 84.9,42.203 85.122,42.72 85.114,43.221 C 85.106,43.721 84.87,44.016 84.588,43.878 C 84.305,43.741 84.082,43.223 84.09,42.722 C 84.098,42.222 84.334,41.927 84.617,42.065 Z" fill="#fffc00" stroke-width="0.109" stroke-linejoin="miter" marker-start="none" marker-end="none" stroke-miterlimit="79.8403193612775"/>
      <path d="M 87.708,41.086 C 87.984,41.221 88.202,41.732 88.194,42.226 C 88.186,42.719 87.955,43.01 87.679,42.874 C 87.403,42.738 87.185,42.228 87.193,41.734 C 87.201,41.24 87.432,40.95 87.708,41.086 Z" fill="#fffc00" stroke-width="0.108" stroke-linejoin="miter" marker-start="none" marker-end="none" stroke-miterlimit="79.8403193612775"/>
      <path d="M 90.7,40.122 C 90.97,40.256 91.183,40.759 91.176,41.247 C 91.168,41.733 90.942,42.02 90.672,41.886 C 90.402,41.752 90.19,41.248 90.197,40.761 C 90.205,40.274 90.43,39.988 90.7,40.122 Z" fill="#fffc00" stroke-width="0.106" stroke-linejoin="miter" marker-start="none" marker-end="none" stroke-miterlimit="79.8403193612775"/>
      <path d="M 93.604,39.18 C 93.868,39.312 94.076,39.809 94.069,40.29 C 94.062,40.77 93.841,41.053 93.577,40.921 C 93.313,40.789 93.105,40.292 93.112,39.811 C 93.12,39.331 93.34,39.048 93.604,39.18 Z" fill="#fffc00" stroke-width="0.105" stroke-linejoin="miter" marker-start="none" marker-end="none" stroke-miterlimit="79.8403193612775"/>
      <path d="M 96.422,38.26 C 96.68,38.391 96.884,38.881 96.876,39.355 C 96.869,39.829 96.653,40.108 96.395,39.978 C 96.137,39.847 95.934,39.357 95.941,38.882 C 95.948,38.409 96.164,38.13 96.422,38.26 Z" fill="#fffc00" stroke-width="0.104" stroke-linejoin="miter" marker-start="none" marker-end="none" stroke-miterlimit="79.8403193612775"/>
      <path d="M 99.159,37.368 C 99.411,37.497 99.61,37.981 99.603,38.449 C 99.596,38.917 99.385,39.192 99.132,39.064 C 98.88,38.935 98.681,38.451 98.688,37.983 C 98.695,37.515 98.906,37.24 99.159,37.368 Z" fill="#fffc00" stroke-width="0.102" stroke-linejoin="miter" marker-start="none" marker-end="none" stroke-miterlimit="79.8403193612775"/>
      <path d="M 101.819,36.507 C 102.066,36.634 102.261,37.112 102.254,37.574 C 102.247,38.036 102.041,38.308 101.793,38.181 C 101.546,38.054 101.352,37.576 101.359,37.113 C 101.365,36.652 101.572,36.38 101.819,36.507 Z" fill="#fffc00" stroke-width="0.101" stroke-linejoin="miter" marker-start="none" marker-end="none" stroke-miterlimit="79.8403193612775"/>
      <path d="M 104.41,35.679 C 104.651,35.805 104.842,36.277 104.835,36.733 C 104.828,37.189 104.626,37.458 104.384,37.332 C 104.143,37.206 103.952,36.735 103.959,36.278 C 103.965,35.822 104.168,35.554 104.41,35.679 Z" fill="#fffc00" stroke-width="0.1" stroke-linejoin="miter" marker-start="none" marker-end="none" stroke-miterlimit="79.8403193612775"/>
      <path d="M 106.934,34.887 C 107.17,35.011 107.357,35.477 107.35,35.927 C 107.344,36.378 107.146,36.643 106.909,36.519 C 106.673,36.395 106.486,35.929 106.493,35.478 C 106.499,35.028 106.697,34.762 106.934,34.887 Z" fill="#fffc00" stroke-width="0.098" stroke-linejoin="miter" marker-start="none" marker-end="none" stroke-miterlimit="79.8403193612775"/>
      <path d="M 109.395,34.133 C 109.626,34.255 109.809,34.716 109.803,35.161 C 109.796,35.606 109.602,35.868 109.371,35.745 C 109.14,35.623 108.957,35.162 108.963,34.717 C 108.97,34.272 109.163,34.01 109.395,34.133 Z" fill="#fffc00" stroke-width="0.097" stroke-linejoin="miter" marker-start="none" marker-end="none" stroke-miterlimit="79.8403193612775"/>
      <path d="M 111.797,33.42 C 112.023,33.541 112.202,33.996 112.196,34.436 C 112.19,34.876 112,35.135 111.773,35.013 C 111.547,34.892 111.368,34.437 111.374,33.998 C 111.381,33.558 111.57,33.299 111.797,33.42 Z" fill="#fffc00" stroke-width="0.096" stroke-linejoin="miter" marker-start="none" marker-end="none" stroke-miterlimit="79.8403193612775"/>
      <path d="M 114.142,32.755 C 114.364,32.874 114.538,33.324 114.533,33.758 C 114.527,34.193 114.341,34.449 114.119,34.329 C 113.897,34.209 113.723,33.76 113.729,33.325 C 113.734,32.891 113.92,32.635 114.142,32.755 Z" fill="#fffc00" stroke-width="0.094" stroke-linejoin="miter" marker-start="none" marker-end="none" stroke-miterlimit="79.8403193612775"/>
      <path d="M 116.438,32.138 C 116.655,32.256 116.826,32.7 116.82,33.13 C 116.815,33.559 116.633,33.812 116.415,33.694 C 116.199,33.575 116.027,33.131 116.033,32.702 C 116.039,32.272 116.221,32.019 116.438,32.138 Z" fill="#fffc00" stroke-width="0.093" stroke-linejoin="miter" marker-start="none" marker-end="none" stroke-miterlimit="79.8403193612775"/>
      <path d="M 118.684,31.577 C 118.897,31.694 119.064,32.134 119.059,32.558 C 119.053,32.983 118.875,33.233 118.662,33.115 C 118.45,32.998 118.282,32.559 118.288,32.135 C 118.293,31.71 118.472,31.46 118.684,31.577 Z" fill="#fffc00" stroke-width="0.092" stroke-linejoin="miter" marker-start="none" marker-end="none" stroke-miterlimit="79.8403193612775"/>
      <path d="M 120.887,31.084 C 121.095,31.2 121.259,31.634 121.253,32.054 C 121.248,32.473 121.073,32.72 120.865,32.605 C 120.657,32.489 120.493,32.055 120.499,31.635 C 120.504,31.215 120.678,30.968 120.887,31.084 Z" fill="#fffc00" stroke-width="0.09" stroke-linejoin="miter" marker-start="none" marker-end="none" stroke-miterlimit="79.8403193612775"/>
      <path d="M 123.048,30.67 C 123.251,30.785 123.412,31.214 123.407,31.629 C 123.401,32.044 123.23,32.289 123.026,32.174 C 122.823,32.06 122.662,31.63 122.668,31.215 C 122.673,30.8 122.844,30.556 123.048,30.67 Z" fill="#fffc00" stroke-width="0.089" stroke-linejoin="miter" marker-start="none" marker-end="none" stroke-miterlimit="79.8403193612775"/>
      <path d="M 125.171,30.357 C 125.37,30.47 125.527,30.895 125.522,31.305 C 125.517,31.716 125.349,31.957 125.149,31.844 C 124.95,31.731 124.793,31.306 124.798,30.896 C 124.803,30.485 124.97,30.244 125.171,30.357 Z" fill="#fffc00" stroke-width="0.088" stroke-linejoin="miter" marker-start="none" marker-end="none" stroke-miterlimit="79.8403193612775"/>
      <path d="M 127.237,31.65 C 127.433,31.762 127.597,31.523 127.602,31.117 C 127.607,30.711 127.453,30.291 127.258,30.179 C 127.062,30.067 126.898,30.306 126.893,30.712 C 126.888,31.118 127.042,31.538 127.237,31.65 Z" stroke-linejoin="miter" fill="#fffc00" stroke-width="0.086" marker-start="none" marker-end="none" stroke-miterlimit="79.8403193612775"/>
     </g>
     <g id="Group_10" stroke-linecap="round" stroke="none">
      <path d="M 55.001,34.49 C 83.679,29.808 108.658,25.435 127.036,24.958" fill="none" stroke-linejoin="round" stroke-width="0.317" stroke-miterlimit="79.8403193612775"/>
      <path d="M 54.983,35.511 C 55.324,35.666 55.61,35.334 55.619,34.77 C 55.629,34.206 55.358,33.622 55.016,33.468 C 54.675,33.313 54.389,33.645 54.38,34.209 C 54.37,34.773 54.641,35.357 54.983,35.511 Z" stroke-linejoin="miter" fill="#fffc00" stroke-width="0.119" marker-start="none" marker-end="none" stroke-miterlimit="79.8403193612775"/>
      <path d="M 59.076,32.818 C 59.41,32.97 59.674,33.545 59.664,34.1 C 59.656,34.655 59.377,34.982 59.044,34.829 C 58.71,34.677 58.446,34.103 58.455,33.548 C 58.464,32.993 58.743,32.666 59.076,32.818 Z" fill="#fffc00" stroke-width="0.118" stroke-linejoin="miter" marker-start="none" marker-end="none" stroke-miterlimit="79.8403193612775"/>
      <path d="M 62.996,32.19 C 63.322,32.34 63.58,32.905 63.571,33.452 C 63.562,33.998 63.29,34.32 62.965,34.17 C 62.639,34.02 62.381,33.454 62.39,32.908 C 62.399,32.362 62.671,32.04 62.996,32.19 Z" fill="#fffc00" stroke-width="0.117" stroke-linejoin="miter" marker-start="none" marker-end="none" stroke-miterlimit="79.8403193612775"/>
      <path d="M 66.786,31.584 C 67.104,31.731 67.356,32.288 67.347,32.826 C 67.339,33.364 67.072,33.681 66.755,33.533 C 66.437,33.386 66.185,32.829 66.194,32.291 C 66.203,31.753 66.469,31.436 66.786,31.584 Z" fill="#fffc00" stroke-width="0.116" stroke-linejoin="miter" marker-start="none" marker-end="none" stroke-miterlimit="79.8403193612775"/>
      <path d="M 70.451,30.997 C 70.762,31.142 71.008,31.691 70.999,32.221 C 70.991,32.751 70.731,33.063 70.421,32.917 C 70.11,32.772 69.864,32.223 69.873,31.694 C 69.882,31.164 70.142,30.852 70.451,30.997 Z" fill="#fffc00" stroke-width="0.114" stroke-linejoin="miter" marker-start="none" marker-end="none" stroke-miterlimit="79.8403193612775"/>
      <path d="M 74,30.434 C 74.303,30.577 74.543,31.118 74.535,31.64 C 74.526,32.162 74.272,32.47 73.97,32.326 C 73.666,32.183 73.426,31.642 73.435,31.12 C 73.443,30.598 73.697,30.291 74,30.434 Z" fill="#fffc00" stroke-width="0.113" stroke-linejoin="miter" marker-start="none" marker-end="none" stroke-miterlimit="79.8403193612775"/>
      <path d="M 77.436,29.894 C 77.732,30.035 77.967,30.568 77.958,31.082 C 77.95,31.597 77.702,31.899 77.407,31.758 C 77.11,31.617 76.875,31.084 76.884,30.57 C 76.892,30.055 77.14,29.752 77.436,29.894 Z" fill="#fffc00" stroke-width="0.112" stroke-linejoin="miter" marker-start="none" marker-end="none" stroke-miterlimit="79.8403193612775"/>
      <path d="M 80.765,29.374 C 81.055,29.513 81.284,30.038 81.276,30.545 C 81.268,31.053 81.025,31.351 80.736,31.212 C 80.447,31.073 80.217,30.547 80.226,30.04 C 80.234,29.533 80.476,29.234 80.765,29.374 Z" fill="#fffc00" stroke-width="0.11" stroke-linejoin="miter" marker-start="none" marker-end="none" stroke-miterlimit="79.8403193612775"/>
      <path d="M 83.993,28.879 C 84.277,29.016 84.501,29.535 84.493,30.034 C 84.485,30.535 84.248,30.829 83.965,30.691 C 83.682,30.554 83.458,30.036 83.466,29.536 C 83.474,29.036 83.711,28.742 83.993,28.879 Z" fill="#fffc00" stroke-width="0.109" stroke-linejoin="miter" marker-start="none" marker-end="none" stroke-miterlimit="79.8403193612775"/>
      <path d="M 87.125,28.406 C 87.401,28.542 87.621,29.053 87.613,29.546 C 87.605,30.039 87.373,30.329 87.097,30.193 C 86.82,30.058 86.601,29.547 86.609,29.054 C 86.617,28.561 86.849,28.271 87.125,28.406 Z" fill="#fffc00" stroke-width="0.108" stroke-linejoin="miter" marker-start="none" marker-end="none" stroke-miterlimit="79.8403193612775"/>
      <path d="M 90.164,27.958 C 90.435,28.092 90.649,28.596 90.641,29.082 C 90.634,29.569 90.407,29.855 90.137,29.721 C 89.867,29.588 89.652,29.084 89.66,28.598 C 89.667,28.111 89.894,27.824 90.164,27.958 Z" fill="#fffc00" stroke-width="0.106" stroke-linejoin="miter" marker-start="none" marker-end="none" stroke-miterlimit="79.8403193612775"/>
      <path d="M 93.115,27.535 C 93.379,27.667 93.589,28.164 93.582,28.644 C 93.574,29.124 93.352,29.407 93.088,29.274 C 92.824,29.143 92.614,28.645 92.622,28.166 C 92.629,27.685 92.851,27.403 93.115,27.535 Z" fill="#fffc00" stroke-width="0.105" stroke-linejoin="miter" marker-start="none" marker-end="none" stroke-miterlimit="79.8403193612775"/>
      <path d="M 95.983,27.134 C 96.242,27.264 96.447,27.755 96.439,28.228 C 96.432,28.702 96.215,28.981 95.957,28.85 C 95.698,28.72 95.493,28.229 95.501,27.756 C 95.508,27.282 95.725,27.003 95.983,27.134 Z" fill="#fffc00" stroke-width="0.104" stroke-linejoin="miter" marker-start="none" marker-end="none" stroke-miterlimit="79.8403193612775"/>
      <path d="M 98.771,26.756 C 99.024,26.884 99.224,27.369 99.217,27.836 C 99.21,28.304 98.998,28.579 98.745,28.45 C 98.492,28.322 98.292,27.837 98.299,27.37 C 98.306,26.902 98.518,26.627 98.771,26.756 Z" fill="#fffc00" stroke-width="0.102" stroke-linejoin="miter" marker-start="none" marker-end="none" stroke-miterlimit="79.8403193612775"/>
      <path d="M 101.481,26.402 C 101.729,26.529 101.925,27.007 101.918,27.468 C 101.911,27.93 101.703,28.202 101.456,28.075 C 101.209,27.948 101.013,27.47 101.019,27.008 C 101.026,26.547 101.234,26.275 101.481,26.402 Z" fill="#fffc00" stroke-width="0.101" stroke-linejoin="miter" marker-start="none" marker-end="none" stroke-miterlimit="79.8403193612775"/>
      <path d="M 104.119,26.076 C 104.361,26.201 104.552,26.674 104.546,27.129 C 104.539,27.585 104.336,27.854 104.094,27.728 C 103.851,27.603 103.66,27.13 103.666,26.675 C 103.673,26.219 103.877,25.95 104.119,26.076 Z" fill="#fffc00" stroke-width="0.1" stroke-linejoin="miter" marker-start="none" marker-end="none" stroke-miterlimit="79.8403193612775"/>
      <path d="M 106.685,25.771 C 106.922,25.895 107.11,26.362 107.104,26.811 C 107.097,27.262 106.898,27.527 106.661,27.403 C 106.424,27.279 106.236,26.812 106.243,26.362 C 106.25,25.912 106.449,25.647 106.685,25.771 Z" fill="#fffc00" stroke-width="0.098" stroke-linejoin="miter" marker-start="none" marker-end="none" stroke-miterlimit="79.8403193612775"/>
      <path d="M 109.184,25.493 C 109.416,25.615 109.6,26.077 109.593,26.521 C 109.587,26.966 109.392,27.228 109.16,27.105 C 108.928,26.983 108.744,26.521 108.751,26.077 C 108.757,25.632 108.952,25.37 109.184,25.493 Z" fill="#fffc00" stroke-width="0.097" stroke-linejoin="miter" marker-start="none" marker-end="none" stroke-miterlimit="79.8403193612775"/>
      <path d="M 111.619,25.241 C 111.846,25.362 112.026,25.817 112.02,26.256 C 112.013,26.696 111.822,26.954 111.595,26.833 C 111.368,26.712 111.189,26.257 111.195,25.818 C 111.201,25.378 111.392,25.119 111.619,25.241 Z" fill="#fffc00" stroke-width="0.096" stroke-linejoin="miter" marker-start="none" marker-end="none" stroke-miterlimit="79.8403193612775"/>
      <path d="M 113.992,25.012 C 114.214,25.132 114.39,25.582 114.384,26.016 C 114.378,26.45 114.191,26.706 113.969,26.586 C 113.747,26.467 113.571,26.016 113.577,25.583 C 113.583,25.148 113.77,24.893 113.992,25.012 Z" fill="#fffc00" stroke-width="0.094" stroke-linejoin="miter" marker-start="none" marker-end="none" stroke-miterlimit="79.8403193612775"/>
      <path d="M 116.304,24.811 C 116.522,24.929 116.694,25.374 116.688,25.803 C 116.682,26.232 116.499,26.485 116.281,26.367 C 116.064,26.248 115.891,25.803 115.897,25.375 C 115.904,24.945 116.086,24.693 116.304,24.811 Z" fill="#fffc00" stroke-width="0.093" stroke-linejoin="miter" marker-start="none" marker-end="none" stroke-miterlimit="79.8403193612775"/>
      <path d="M 118.56,24.638 C 118.773,24.755 118.941,25.195 118.936,25.619 C 118.929,26.043 118.75,26.293 118.537,26.176 C 118.324,26.059 118.156,25.619 118.161,25.196 C 118.168,24.771 118.347,24.521 118.56,24.638 Z" fill="#fffc00" stroke-width="0.092" stroke-linejoin="miter" marker-start="none" marker-end="none" stroke-miterlimit="79.8403193612775"/>
      <path d="M 120.76,24.489 C 120.968,24.604 121.133,25.04 121.128,25.458 C 121.122,25.878 120.946,26.125 120.738,26.009 C 120.529,25.894 120.364,25.459 120.369,25.04 C 120.376,24.62 120.551,24.373 120.76,24.489 Z" fill="#fffc00" stroke-width="0.09" stroke-linejoin="miter" marker-start="none" marker-end="none" stroke-miterlimit="79.8403193612775"/>
      <path d="M 122.906,24.37 C 123.11,24.485 123.272,24.915 123.267,25.329 C 123.26,25.744 123.088,25.988 122.884,25.874 C 122.68,25.76 122.518,25.329 122.524,24.915 C 122.53,24.5 122.702,24.256 122.906,24.37 Z" fill="#fffc00" stroke-width="0.089" stroke-linejoin="miter" marker-start="none" marker-end="none" stroke-miterlimit="79.8403193612775"/>
      <path d="M 125.001,24.282 C 125.201,24.395 125.359,24.82 125.354,25.23 C 125.348,25.64 125.179,25.882 124.979,25.769 C 124.779,25.656 124.621,25.23 124.626,24.821 C 124.632,24.41 124.8,24.168 125.001,24.282 Z" fill="#fffc00" stroke-width="0.088" stroke-linejoin="miter" marker-start="none" marker-end="none" stroke-miterlimit="79.8403193612775"/>
      <path d="M 127.025,25.693 C 127.221,25.805 127.386,25.566 127.392,25.16 C 127.397,24.755 127.242,24.334 127.046,24.222 C 126.85,24.11 126.685,24.349 126.679,24.755 C 126.674,25.16 126.829,25.581 127.025,25.693 Z" stroke-linejoin="miter" fill="#fffc00" stroke-width="0.086" marker-start="none" marker-end="none" stroke-miterlimit="79.8403193612775"/>
     </g>
     <text xml:space="preserve" transform="matrix(0.931458 -0.363831 0 -1.07358 50.582 79.961)" font-size="2.101" fill="#ffffff" stroke="none" stroke-linecap="round" stroke-linejoin="round" font-family="Arial" stroke-width="0.159" stroke-miterlimit="79.8403193612775"/>
     <text xml:space="preserve" transform="matrix(0.931458 -0.363831 0 -1.07358 50.582 79.961) scale(1.39618 1)" font-size="2.101" fill="#ffffff" stroke="none" stroke-linecap="round" stroke-linejoin="round" font-family="Arial" stroke-width="0.159"><tspan><tspan x="0" y="0">TIT</tspan><tspan x="2.99531750819672" y="0">ANIC</tspan></tspan><tspan/></text>
     <path d="M 26.591,24.005 L 26.695,19.24 L 127.885,18.763 L 127.885,21.146 L 26.591,24.005 Z" stroke="none" fill="#6f0014" stroke-linejoin="miter" stroke-width="0.119" stroke-linecap="round" marker-start="none" marker-end="none" stroke-miterlimit="79.8403193612775"/>
     <path d="M 63.19,17.745 C 65.389,19.831 68.858,20.488 74.703,18.461 C 83.47,19.058 88.676,20.066 91.602,18.581 C 96.145,19.652 100.654,19.808 105.017,18.581 C 112.094,19.652 115.51,19.812 120.756,18.819 C 126.249,19.295 129.84,19.652 131.952,18.461 L 138.501,16.555 L 63.19,17.745 Z" stroke="none" fill="url(#LinearGradient_1)" stroke-linejoin="miter" stroke-width="0.119" stroke-linecap="round" marker-start="none" marker-end="none" stroke-miterlimit="79.8403193612775"/>
     <path d="M 26.749,18.937 C 41.959,22.035 43.438,25.491 62.345,18.581 C 74.395,16.823 85.484,16.149 96.779,15.244 C 84.756,14.769 72.726,14.293 57.275,14.171 C 50.299,17.009 41.06,18.962 26.749,18.937 Z" stroke="none" fill="url(#LinearGradient_2)" stroke-linejoin="miter" stroke-width="0.119" stroke-linecap="round" marker-start="none" marker-end="none" stroke-miterlimit="79.8403193612775"/>
     <path d="M 59.206,83.361 L 60.727,200.79 L 58.867,200.6 L 55.995,84.314 L 59.206,83.361 Z" stroke="none" fill="#3c260f" stroke-linejoin="miter" marker-start="none" marker-end="none"/>
     <rect x="31.137" y="183.503" width="82.351" height="27.069" stroke="none" fill="#ffffff" stroke-linejoin="miter"/>
     <g id="Group_11" fill-rule="nonzero" stroke-linejoin="round" stroke-linecap="round" stroke="none" stroke-width="0.541" fill="#000000" stroke-miterlimit="79.8403193612775">
      <path d="M 30.504,183.372 L 30.504,210.966 L 52.507,210.966 L 52.507,183.372 L 30.504,183.372 Z M 47.307,188.573 L 51.943,188.573 L 51.943,190.942 L 50.472,190.942 L 50.472,195.997 C 50.472,197.299 50.088,198.26 49.318,198.878 C 48.55,199.497 47.667,199.806 46.67,199.806 C 44.919,199.806 43.717,199.017 43.064,197.438 C 42.801,198.235 42.336,198.83 41.666,199.22 C 40.994,199.611 40.259,199.806 39.458,199.806 C 37.92,199.806 36.8,199.18 36.097,197.926 L 36.097,199.587 L 31.485,199.587 L 31.485,197.193 L 32.933,197.193 L 32.933,190.942 L 31.46,190.942 L 31.46,188.573 L 38.206,188.573 L 38.206,190.942 L 36.097,190.942 L 36.097,194.8 C 36.097,195.565 36.261,196.192 36.587,196.681 C 36.914,197.169 37.463,197.413 38.231,197.413 C 38.853,197.413 39.323,197.21 39.641,196.803 C 39.96,196.396 40.12,195.72 40.12,194.776 L 40.12,188.573 L 44.756,188.573 L 44.756,190.942 L 43.285,190.942 L 43.285,194.8 C 43.285,195.565 43.451,196.192 43.787,196.681 C 44.123,197.169 44.666,197.413 45.418,197.413 C 46.04,197.413 46.51,197.21 46.829,196.803 C 47.147,196.396 47.307,195.72 47.307,194.776 L 47.307,188.573 Z" marker-start="none" marker-end="none"/>
      <path d="M 51.992,183.372 L 51.992,210.966 L 65.312,210.966 L 65.312,183.372 L 51.992,183.372 Z M 58.664,199.831 C 56.669,199.831 55.181,199.253 54.2,198.097 C 53.218,196.941 52.727,195.557 52.727,193.946 C 52.727,192.171 53.263,190.791 54.334,189.807 C 55.405,188.822 56.792,188.329 58.492,188.329 C 60.258,188.329 61.714,188.85 62.858,189.892 C 64.003,190.934 64.576,192.326 64.576,194.068 C 64.576,195.614 64.089,196.961 63.116,198.109 C 62.143,199.257 60.659,199.831 58.664,199.831 Z M 58.59,190.747 C 57.723,190.747 57.073,191.072 56.64,191.723 C 56.207,192.375 55.99,193.172 55.99,194.117 C 55.99,195.158 56.223,195.968 56.689,196.546 C 57.156,197.124 57.797,197.413 58.614,197.413 C 59.367,197.413 60.005,197.153 60.528,196.632 C 61.051,196.111 61.312,195.289 61.312,194.165 C 61.312,193.107 61.064,192.273 60.564,191.662 C 60.067,191.052 59.408,190.747 58.59,190.747 Z" marker-start="none" marker-end="none"/>
      <path d="M 64.819,183.372 L 64.819,210.966 L 77.036,210.966 L 77.036,183.372 L 64.819,183.372 Z M 65.948,188.573 L 75.613,188.573 L 76.3,192.432 L 73.798,192.676 L 73.282,190.942 L 69.725,190.942 L 75.834,197.926 L 75.588,199.587 L 65.874,199.587 L 65.482,195.728 L 67.763,195.533 L 68.253,197.218 L 71.565,197.218 L 65.629,190.234 L 65.948,188.573 Z" marker-start="none" marker-end="none"/>
      <path d="M 76.522,210.966 L 83.072,210.966 L 83.072,183.372 L 76.522,183.372 L 76.522,210.966 Z M 78.214,195.631 L 81.501,195.631 L 81.501,199.587 L 78.214,199.587 L 78.214,195.631 Z M 78.214,188.573 L 81.501,188.573 L 81.501,192.529 L 78.214,192.529 L 78.214,188.573 Z" marker-start="none" marker-end="none"/>
      <path d="M 82.606,183.372 L 82.606,210.966 L 92.32,210.966 L 92.32,183.372 L 82.606,183.372 Z M 91.706,205.374 L 88.592,205.374 L 83.808,188.573 L 86.923,188.573 L 91.706,205.374 Z" marker-start="none" marker-end="none"/>
      <path d="M 91.829,183.372 L 91.829,210.966 L 101.543,210.966 L 101.543,183.372 L 91.829,183.372 Z M 100.929,205.374 L 97.814,205.374 L 93.031,188.573 L 96.146,188.573 L 100.929,205.374 Z" marker-start="none" marker-end="none"/>
      <path d="M 101.052,183.372 L 101.052,210.966 L 113.979,210.966 L 113.979,183.372 L 101.052,183.372 Z M 102.965,198.805 L 102.475,195.948 L 105.002,195.679 L 105.419,197.242 C 105.68,197.372 105.946,197.458 106.216,197.499 C 106.485,197.539 106.784,197.56 107.111,197.56 C 108.011,197.56 108.538,197.291 108.693,196.754 C 108.849,196.217 108.927,195.663 108.927,195.093 L 108.927,194.727 C 108.42,194.792 107.815,194.825 107.111,194.825 C 105.852,194.825 104.678,194.605 103.591,194.165 C 102.503,193.726 101.96,192.831 101.96,191.479 C 101.96,190.323 102.327,189.509 103.064,189.037 C 103.8,188.565 104.568,188.329 105.369,188.329 C 106.269,188.329 107.009,188.557 107.589,189.013 C 108.17,189.469 108.616,189.973 108.927,190.527 L 108.927,190.503 C 109.09,189.054 109.899,188.329 111.354,188.329 C 112.041,188.329 112.704,188.5 113.342,188.842 L 113.317,190.503 C 113.153,190.454 112.998,190.429 112.851,190.429 C 112.345,190.429 112.091,190.714 112.091,191.284 L 112.091,196.07 C 112.091,197.324 111.657,198.26 110.791,198.878 C 109.924,199.497 108.894,199.806 107.7,199.806 C 106.801,199.806 106.028,199.737 105.381,199.599 C 104.736,199.46 103.93,199.196 102.965,198.805 Z M 108.927,193.067 C 108.844,192.204 108.563,191.573 108.079,191.174 C 107.597,190.775 107.078,190.576 106.523,190.576 C 106.048,190.576 105.713,190.698 105.517,190.942 C 105.321,191.186 105.223,191.487 105.223,191.846 C 105.223,192.448 105.434,192.851 105.86,193.054 C 106.285,193.258 106.776,193.36 107.331,193.36 C 107.594,193.36 107.86,193.343 108.129,193.311 C 108.399,193.278 108.664,193.246 108.927,193.213 L 108.927,193.067 Z" marker-start="none" marker-end="none"/>
     </g>
     <g id="Group_12" fill-rule="nonzero" stroke-linejoin="round" stroke-linecap="round" stroke="none" stroke-width="0.338" fill="#ffffff" stroke-miterlimit="79.8403193612775">
      <g id="Group_13">
       <path d="M 10.341,174.517 C 10.685,174.751 11.048,174.918 11.432,175.02 C 11.815,175.121 12.223,175.172 12.655,175.172 C 14.217,175.172 14.999,174.416 14.999,172.902 L 14.999,169.673 C 14.999,169.185 15.185,168.942 15.559,168.942 C 15.726,168.942 15.873,168.972 16.001,169.033 L 16.016,168.332 C 15.75,168.18 15.465,168.104 15.161,168.104 C 14.384,168.104 13.986,168.561 13.967,169.475 L 13.967,169.505 C 13.76,169.14 13.468,168.815 13.09,168.53 C 12.712,168.246 12.257,168.104 11.726,168.104 C 11.294,168.104 10.854,168.241 10.407,168.515 C 9.96,168.789 9.737,169.287 9.737,170.008 C 9.737,170.861 10.063,171.422 10.717,171.691 C 11.37,171.96 12.065,172.095 12.802,172.095 C 12.999,172.095 13.198,172.09 13.399,172.08 C 13.601,172.07 13.79,172.054 13.967,172.034 L 13.967,172.643 C 13.967,173.131 13.866,173.527 13.665,173.832 C 13.463,174.136 13.068,174.289 12.478,174.289 C 11.997,174.289 11.574,174.197 11.211,174.014 L 10.96,172.841 L 10.105,172.948 L 10.341,174.517 Z M 13.967,170.8 L 13.967,171.318 C 13.78,171.328 13.584,171.343 13.377,171.364 C 13.171,171.384 12.96,171.394 12.743,171.394 C 12.252,171.394 11.808,171.315 11.41,171.158 C 11.012,171.001 10.813,170.658 10.813,170.13 C 10.813,169.693 10.945,169.394 11.211,169.231 C 11.476,169.069 11.751,168.987 12.036,168.987 C 12.488,168.987 12.913,169.15 13.311,169.475 C 13.709,169.8 13.928,170.242 13.967,170.8 Z" marker-start="none" marker-end="none"/>
       <path d="M 23.812,171.836 C 23.812,171.237 23.711,170.65 23.509,170.076 C 23.308,169.503 22.989,169.03 22.551,168.66 C 22.114,168.289 21.537,168.104 20.82,168.104 C 19.827,168.104 19.105,168.485 18.653,169.246 L 18.653,165.88 L 20.171,165.88 L 20.171,165.011 L 16.457,165.011 L 16.457,165.88 L 17.621,165.88 L 17.621,174.167 L 16.442,174.167 L 16.442,175.035 L 18.653,175.035 L 18.653,173.618 C 18.849,174.025 19.134,174.385 19.508,174.7 C 19.881,175.015 20.372,175.172 20.982,175.172 C 21.827,175.172 22.51,174.878 23.03,174.289 C 23.551,173.7 23.812,172.882 23.812,171.836 Z M 22.721,171.745 C 22.721,172.557 22.529,173.179 22.146,173.611 C 21.763,174.042 21.286,174.258 20.716,174.258 C 20.127,174.258 19.64,174.017 19.257,173.535 C 18.874,173.052 18.673,172.552 18.653,172.034 L 18.653,171.029 C 18.653,170.46 18.844,169.983 19.228,169.597 C 19.611,169.211 20.073,169.018 20.613,169.018 C 21.35,169.018 21.886,169.292 22.22,169.84 C 22.554,170.389 22.721,171.024 22.721,171.745 Z" marker-start="none" marker-end="none"/>
       <path d="M 31.916,171.836 C 31.916,171.237 31.815,170.65 31.613,170.076 C 31.412,169.503 31.093,169.03 30.655,168.66 C 30.218,168.289 29.641,168.104 28.924,168.104 C 27.931,168.104 27.209,168.485 26.757,169.246 L 26.757,165.88 L 28.275,165.88 L 28.275,165.011 L 24.561,165.011 L 24.561,165.88 L 25.725,165.88 L 25.725,174.167 L 24.546,174.167 L 24.546,175.035 L 26.757,175.035 L 26.757,173.618 C 26.953,174.025 27.238,174.385 27.612,174.7 C 27.985,175.015 28.476,175.172 29.086,175.172 C 29.931,175.172 30.614,174.878 31.134,174.289 C 31.655,173.7 31.916,172.882 31.916,171.836 Z M 30.825,171.745 C 30.825,172.557 30.633,173.179 30.25,173.611 C 29.867,174.042 29.39,174.258 28.82,174.258 C 28.231,174.258 27.744,174.017 27.361,173.535 C 26.978,173.052 26.777,172.552 26.757,172.034 L 26.757,171.029 C 26.757,170.46 26.948,169.983 27.332,169.597 C 27.715,169.211 28.177,169.018 28.717,169.018 C 29.454,169.018 29.99,169.292 30.324,169.84 C 30.658,170.389 30.825,171.024 30.825,171.745 Z" marker-start="none" marker-end="none"/>
       <path d="M 36.099,168.256 L 32.768,168.256 L 32.768,169.124 L 33.918,169.124 L 33.918,177.868 L 32.753,177.868 L 32.753,178.737 L 34.949,178.737 L 34.949,169.124 L 36.099,169.124 L 36.099,168.256 Z" marker-start="none" marker-end="none"/>
       <path d="M 37.943,176.787 L 37.943,178.173 L 39.063,178.173 L 39.063,176.787 L 37.943,176.787 Z M 40.227,168.256 L 36.896,168.256 L 36.896,169.124 L 38.046,169.124 L 38.046,174.167 L 36.867,174.167 L 36.867,175.035 L 39.078,175.035 L 39.078,169.124 L 40.227,169.124 L 40.227,168.256 Z" marker-start="none" marker-end="none"/>
       <path d="M 46.828,170.541 C 46.739,169.952 46.481,169.399 46.054,168.881 C 45.626,168.363 44.961,168.104 44.057,168.104 C 43.153,168.104 42.43,168.406 41.89,169.01 C 41.349,169.614 41.079,170.46 41.079,171.547 C 41.079,172.481 41.335,173.319 41.846,174.06 C 42.357,174.801 43.123,175.172 44.145,175.172 C 44.577,175.172 44.975,175.121 45.339,175.02 C 45.702,174.918 46.051,174.735 46.385,174.471 L 46.636,172.841 L 45.781,172.735 L 45.53,173.877 C 45.137,174.131 44.671,174.258 44.13,174.258 C 43.433,174.258 42.931,173.999 42.627,173.481 C 42.322,172.963 42.17,172.339 42.17,171.607 C 42.17,170.795 42.342,170.16 42.686,169.703 C 43.03,169.246 43.526,169.018 44.174,169.018 C 45.157,169.018 45.747,169.592 45.943,170.739 L 46.828,170.541 Z" marker-start="none" marker-end="none"/>
       <path d="M 48.521,174.517 C 48.865,174.751 49.228,174.918 49.612,175.02 C 49.995,175.121 50.403,175.172 50.835,175.172 C 52.397,175.172 53.179,174.416 53.179,172.902 L 53.179,169.673 C 53.179,169.185 53.365,168.942 53.739,168.942 C 53.906,168.942 54.053,168.972 54.181,169.033 L 54.196,168.332 C 53.93,168.18 53.645,168.104 53.341,168.104 C 52.564,168.104 52.166,168.561 52.147,169.475 L 52.147,169.505 C 51.94,169.14 51.648,168.815 51.27,168.53 C 50.892,168.246 50.437,168.104 49.906,168.104 C 49.474,168.104 49.034,168.241 48.587,168.515 C 48.14,168.789 47.917,169.287 47.917,170.008 C 47.917,170.861 48.243,171.422 48.897,171.691 C 49.55,171.96 50.245,172.095 50.982,172.095 C 51.179,172.095 51.378,172.09 51.579,172.08 C 51.781,172.07 51.97,172.054 52.147,172.034 L 52.147,172.643 C 52.147,173.131 52.046,173.527 51.845,173.832 C 51.643,174.136 51.248,174.289 50.658,174.289 C 50.177,174.289 49.754,174.197 49.391,174.014 L 49.14,172.841 L 48.285,172.948 L 48.521,174.517 Z M 52.147,170.8 L 52.147,171.318 C 51.96,171.328 51.764,171.343 51.557,171.364 C 51.351,171.384 51.14,171.394 50.923,171.394 C 50.432,171.394 49.988,171.315 49.59,171.158 C 49.192,171.001 48.993,170.658 48.993,170.13 C 48.993,169.693 49.125,169.394 49.391,169.231 C 49.656,169.069 49.931,168.987 50.216,168.987 C 50.668,168.987 51.093,169.15 51.491,169.475 C 51.889,169.8 52.108,170.242 52.147,170.8 Z" marker-start="none" marker-end="none"/>
       <path d="M 59.84,170.084 C 59.663,168.764 58.97,168.104 57.761,168.104 C 57.103,168.104 56.599,168.297 56.251,168.683 C 55.902,169.069 55.727,169.592 55.727,170.252 L 55.727,174.182 L 54.666,174.182 L 54.666,175.035 L 55.727,175.035 L 55.727,177.213 L 56.759,177.213 L 56.759,175.035 L 59.324,175.035 L 59.324,174.182 L 56.759,174.182 L 56.759,170.389 C 56.759,169.983 56.845,169.655 57.017,169.406 C 57.189,169.157 57.472,169.033 57.865,169.033 C 58.12,169.033 58.358,169.114 58.579,169.277 C 58.801,169.439 58.96,169.795 59.058,170.343 L 59.84,170.084 Z" marker-start="none" marker-end="none"/>
       <path d="M 61.463,176.787 L 61.463,178.173 L 62.583,178.173 L 62.583,176.787 L 61.463,176.787 Z M 63.747,168.256 L 60.416,168.256 L 60.416,169.124 L 61.566,169.124 L 61.566,174.167 L 60.387,174.167 L 60.387,175.035 L 62.598,175.035 L 62.598,169.124 L 63.747,169.124 L 63.747,168.256 Z" marker-start="none" marker-end="none"/>
       <path d="M 71.055,171.653 C 71.055,170.627 70.76,169.779 70.171,169.109 C 69.581,168.439 68.78,168.104 67.768,168.104 C 66.776,168.104 65.997,168.429 65.432,169.079 C 64.867,169.729 64.584,170.566 64.584,171.592 C 64.584,172.577 64.86,173.423 65.41,174.129 C 65.96,174.834 66.766,175.187 67.827,175.187 C 68.898,175.187 69.704,174.84 70.244,174.144 C 70.785,173.448 71.055,172.618 71.055,171.653 Z M 69.964,171.668 C 69.964,172.44 69.775,173.067 69.397,173.55 C 69.019,174.032 68.485,174.273 67.798,174.273 C 67.11,174.273 66.582,174.025 66.213,173.527 C 65.845,173.029 65.66,172.405 65.66,171.653 C 65.66,170.912 65.842,170.287 66.206,169.779 C 66.569,169.272 67.1,169.018 67.798,169.018 C 68.495,169.018 69.031,169.269 69.404,169.772 C 69.778,170.275 69.964,170.907 69.964,171.668 Z" marker-start="none" marker-end="none"/>
       <path d="M 79.916,168.256 L 76.6,168.256 L 76.6,169.124 L 77.735,169.124 L 77.735,172.278 C 77.735,173.009 77.592,173.524 77.307,173.824 C 77.022,174.124 76.659,174.273 76.216,174.273 C 75.627,174.273 75.153,174.073 74.794,173.672 C 74.435,173.27 74.246,172.811 74.227,172.293 L 74.227,169.124 L 75.376,169.124 L 75.376,168.256 L 72.045,168.256 L 72.045,169.124 L 73.195,169.124 L 73.195,174.167 L 72.016,174.167 L 72.016,175.035 L 74.227,175.035 L 74.227,173.832 C 74.698,174.725 75.465,175.172 76.526,175.172 C 77.165,175.172 77.7,174.969 78.133,174.563 C 78.565,174.157 78.781,173.502 78.781,172.598 L 78.781,169.124 L 79.916,169.124 L 79.916,168.256 Z" marker-start="none" marker-end="none"/>
       <path d="M 89.28,170.221 C 89.28,169.561 89.012,169.043 88.477,168.667 C 87.941,168.292 87.28,168.104 86.494,168.104 C 86.033,168.104 85.573,168.167 85.116,168.294 C 84.659,168.421 84.288,168.581 84.003,168.774 L 84.21,170.313 L 85.035,170.221 L 84.991,169.322 C 85.443,169.099 85.929,168.987 86.45,168.987 C 86.912,168.987 87.322,169.081 87.681,169.269 C 88.04,169.457 88.219,169.744 88.219,170.13 C 88.219,170.506 88.081,170.77 87.806,170.922 C 87.531,171.074 87.19,171.186 86.782,171.257 C 86.374,171.328 85.964,171.415 85.551,171.516 C 85.138,171.618 84.794,171.793 84.519,172.042 C 84.244,172.29 84.107,172.679 84.107,173.207 C 84.107,173.928 84.362,174.436 84.873,174.73 C 85.384,175.025 85.939,175.172 86.539,175.172 C 86.991,175.172 87.416,175.111 87.814,174.989 C 88.211,174.867 88.548,174.72 88.823,174.548 L 88.985,172.963 L 88.13,172.857 L 87.968,173.953 C 87.556,174.177 87.108,174.289 86.627,174.289 C 86.214,174.289 85.875,174.207 85.61,174.045 C 85.345,173.882 85.212,173.628 85.212,173.283 C 85.212,172.928 85.35,172.676 85.625,172.529 C 85.9,172.382 86.239,172.275 86.642,172.209 C 87.045,172.143 87.447,172.059 87.85,171.958 C 88.253,171.856 88.592,171.676 88.867,171.417 C 89.142,171.158 89.28,170.759 89.28,170.221 Z" marker-start="none" marker-end="none"/>
       <path d="M 96.267,170.206 C 96.178,169.627 95.898,169.132 95.427,168.721 C 94.955,168.309 94.316,168.104 93.51,168.104 C 92.587,168.104 91.84,168.403 91.27,169.003 C 90.7,169.602 90.415,170.45 90.415,171.547 C 90.415,172.603 90.685,173.471 91.226,174.151 C 91.766,174.832 92.498,175.172 93.422,175.172 C 94.326,175.172 95.014,174.878 95.485,174.289 C 95.957,173.7 96.198,173.004 96.208,172.202 C 96.208,171.938 96.178,171.668 96.119,171.394 L 91.506,171.394 C 91.565,169.81 92.258,169.018 93.584,169.018 C 94.105,169.018 94.513,169.145 94.807,169.399 C 95.102,169.652 95.299,169.988 95.397,170.404 L 96.267,170.206 Z M 95.117,172.186 C 95.166,172.694 95.051,173.171 94.771,173.618 C 94.491,174.065 94.031,174.289 93.393,174.289 C 92.783,174.289 92.336,174.08 92.051,173.664 C 91.766,173.248 91.589,172.755 91.521,172.186 L 95.117,172.186 Z" marker-start="none" marker-end="none"/>
       <path d="M 100.972,175.157 C 101.444,175.157 101.817,175.04 102.092,174.807 L 102.343,173.1 L 101.503,172.994 L 101.252,174.151 C 101.085,174.212 100.918,174.243 100.751,174.243 C 100.368,174.243 100.048,174.078 99.793,173.748 C 99.537,173.418 99.41,172.989 99.41,172.461 L 99.41,169.124 L 100.928,169.124 L 100.928,168.256 L 97.228,168.256 L 97.228,169.124 L 98.378,169.124 L 98.378,174.167 L 97.199,174.167 L 97.199,175.035 L 99.351,175.035 L 99.351,173.816 C 99.478,174.192 99.687,174.509 99.977,174.768 C 100.267,175.027 100.599,175.157 100.972,175.157 Z" marker-start="none" marker-end="none"/>
       <path d="M 110.345,174.167 L 109.549,174.167 L 107.146,168.256 L 106.35,168.256 L 103.845,174.167 L 103.078,174.167 L 103.078,175.035 L 106.1,175.035 L 106.1,174.167 L 104.965,174.167 L 106.793,169.703 L 106.881,169.703 L 108.517,174.167 L 107.471,174.167 L 107.471,175.035 L 110.345,175.035 L 110.345,174.167 Z" marker-start="none" marker-end="none"/>
       <path d="M 112.022,176.787 L 112.022,178.173 L 113.142,178.173 L 113.142,176.787 L 112.022,176.787 Z M 114.306,168.256 L 110.975,168.256 L 110.975,169.124 L 112.125,169.124 L 112.125,174.167 L 110.946,174.167 L 110.946,175.035 L 113.157,175.035 L 113.157,169.124 L 114.306,169.124 L 114.306,168.256 Z" marker-start="none" marker-end="none"/>
       <path d="M 120.907,170.541 C 120.818,169.952 120.56,169.399 120.133,168.881 C 119.705,168.363 119.04,168.104 118.136,168.104 C 117.232,168.104 116.509,168.406 115.969,169.01 C 115.428,169.614 115.158,170.46 115.158,171.547 C 115.158,172.481 115.414,173.319 115.925,174.06 C 116.436,174.801 117.202,175.172 118.224,175.172 C 118.656,175.172 119.054,175.121 119.418,175.02 C 119.781,174.918 120.13,174.735 120.464,174.471 L 120.715,172.841 L 119.86,172.735 L 119.609,173.877 C 119.216,174.131 118.75,174.258 118.209,174.258 C 117.512,174.258 117.01,173.999 116.706,173.481 C 116.401,172.963 116.249,172.339 116.249,171.607 C 116.249,170.795 116.421,170.16 116.765,169.703 C 117.109,169.246 117.605,169.018 118.253,169.018 C 119.236,169.018 119.826,169.592 120.022,170.739 L 120.907,170.541 Z" marker-start="none" marker-end="none"/>
       <path d="M 127.818,170.206 C 127.729,169.627 127.449,169.132 126.978,168.721 C 126.506,168.309 125.867,168.104 125.061,168.104 C 124.138,168.104 123.391,168.403 122.821,169.003 C 122.251,169.602 121.966,170.45 121.966,171.547 C 121.966,172.603 122.236,173.471 122.777,174.151 C 123.317,174.832 124.049,175.172 124.973,175.172 C 125.877,175.172 126.565,174.878 127.036,174.289 C 127.508,173.7 127.749,173.004 127.759,172.202 C 127.759,171.938 127.729,171.668 127.67,171.394 L 123.057,171.394 C 123.116,169.81 123.809,169.018 125.135,169.018 C 125.656,169.018 126.064,169.145 126.358,169.399 C 126.653,169.652 126.85,169.988 126.948,170.404 L 127.818,170.206 Z M 126.668,172.186 C 126.717,172.694 126.602,173.171 126.322,173.618 C 126.042,174.065 125.582,174.289 124.944,174.289 C 124.334,174.289 123.887,174.08 123.602,173.664 C 123.317,173.248 123.14,172.755 123.072,172.186 L 126.668,172.186 Z" marker-start="none" marker-end="none"/>
       <path d="M 134.218,170.221 C 134.218,169.561 133.95,169.043 133.415,168.667 C 132.879,168.292 132.218,168.104 131.432,168.104 C 130.971,168.104 130.511,168.167 130.054,168.294 C 129.597,168.421 129.226,168.581 128.941,168.774 L 129.148,170.313 L 129.973,170.221 L 129.929,169.322 C 130.381,169.099 130.867,168.987 131.388,168.987 C 131.85,168.987 132.26,169.081 132.619,169.269 C 132.978,169.457 133.157,169.744 133.157,170.13 C 133.157,170.506 133.019,170.77 132.744,170.922 C 132.469,171.074 132.128,171.186 131.72,171.257 C 131.312,171.328 130.902,171.415 130.489,171.516 C 130.076,171.618 129.732,171.793 129.457,172.042 C 129.182,172.29 129.045,172.679 129.045,173.207 C 129.045,173.928 129.3,174.436 129.811,174.73 C 130.322,175.025 130.877,175.172 131.477,175.172 C 131.929,175.172 132.354,175.111 132.752,174.989 C 133.149,174.867 133.486,174.72 133.761,174.548 L 133.923,172.963 L 133.068,172.857 L 132.906,173.953 C 132.494,174.177 132.046,174.289 131.565,174.289 C 131.152,174.289 130.813,174.207 130.548,174.045 C 130.283,173.882 130.15,173.628 130.15,173.283 C 130.15,172.928 130.288,172.676 130.563,172.529 C 130.838,172.382 131.177,172.275 131.58,172.209 C 131.983,172.143 132.385,172.059 132.788,171.958 C 133.191,171.856 133.53,171.676 133.805,171.417 C 134.08,171.158 134.218,170.759 134.218,170.221 Z" marker-start="none" marker-end="none"/>
      </g>
     </g>
     <g id="Group_14" fill-rule="nonzero" stroke-linejoin="round" stroke-linecap="round" stroke="none" stroke-width="0.321" fill="#ffffff" stroke-miterlimit="79.8403193612775">
      <g id="Group_15">
       <path d="M 53.74,10.882 C 53.546,10.384 53.22,9.859 52.76,9.308 C 52.301,8.757 51.414,7.84 50.099,6.555 L 49.983,6.44 C 49.693,6.124 49.502,5.906 49.41,5.786 C 49.318,5.667 49.219,5.516 49.112,5.334 L 49.025,5.147 L 48.996,5.089 L 48.938,5.046 C 48.919,5.037 48.895,5.051 48.866,5.089 C 48.856,5.099 48.851,5.108 48.851,5.118 L 48.866,5.204 L 48.895,5.29 L 49.083,5.75 C 49.112,5.827 49.156,5.971 49.214,6.182 C 49.34,6.632 49.465,7.164 49.591,7.777 L 49.722,8.496 C 49.741,8.63 49.784,8.793 49.852,8.985 C 49.852,8.994 49.934,9.205 50.099,9.617 L 50.244,9.977 L 50.36,10.235 L 50.07,9.862 C 49.364,8.97 48.868,8.371 48.583,8.065 C 48.298,7.758 47.855,7.341 47.256,6.814 L 46.995,6.599 L 46.472,6.153 L 46.385,6.081 L 46.052,5.765 L 45.892,5.607 C 45.805,5.52 45.723,5.427 45.646,5.326 C 45.568,5.226 45.515,5.147 45.486,5.089 L 45.428,4.946 C 45.38,4.926 45.346,4.917 45.327,4.917 C 45.278,4.936 45.259,4.974 45.268,5.032 C 45.278,5.099 45.317,5.223 45.385,5.405 L 45.457,5.564 L 45.544,5.722 L 45.66,5.952 L 45.921,6.426 L 46.023,6.599 L 46.676,7.619 C 46.966,8.06 47.193,8.439 47.357,8.755 C 47.522,9.071 47.657,9.349 47.763,9.588 C 47.928,10.01 48.039,10.35 48.097,10.609 C 48.155,10.868 48.184,11.093 48.184,11.285 C 48.184,11.582 48.104,11.812 47.945,11.975 C 47.785,12.138 47.57,12.219 47.299,12.219 C 47.232,12.219 47.157,12.212 47.074,12.197 C 46.992,12.183 46.927,12.171 46.879,12.162 C 46.598,12.094 46.277,11.934 45.914,11.68 C 45.551,11.426 45.232,11.122 44.957,10.767 C 44.681,10.413 44.466,10.053 44.311,9.689 C 44.156,9.325 44.079,9.018 44.079,8.769 C 44.079,8.117 44.374,7.792 44.964,7.792 C 45.061,7.792 45.177,7.806 45.312,7.835 L 45.66,7.95 C 45.767,7.998 45.873,8.06 45.979,8.137 C 46.086,8.213 46.168,8.28 46.226,8.338 L 46.472,8.582 L 46.487,8.611 L 46.545,8.611 L 46.545,8.539 C 46.535,8.491 46.499,8.431 46.436,8.359 C 46.373,8.288 46.236,8.161 46.023,7.979 C 45.655,7.672 45.312,7.48 44.993,7.404 C 44.935,7.384 44.865,7.37 44.783,7.36 C 44.7,7.351 44.63,7.346 44.572,7.346 C 44.263,7.346 44.011,7.432 43.818,7.605 C 43.625,7.777 43.528,8.017 43.528,8.324 C 43.528,8.592 43.559,8.839 43.622,9.064 C 43.685,9.289 43.818,9.584 44.021,9.948 C 44.185,10.264 44.413,10.571 44.703,10.868 C 45.631,11.855 46.54,12.348 47.43,12.348 C 47.526,12.358 47.594,12.363 47.633,12.363 C 48.068,12.363 48.409,12.231 48.655,11.967 C 48.902,11.704 49.025,11.347 49.025,10.897 C 49.025,10.839 49.025,10.782 49.025,10.724 C 49.006,10.638 48.996,10.576 48.996,10.537 C 48.948,10.144 48.796,9.706 48.539,9.222 C 48.283,8.738 47.855,8.113 47.256,7.346 L 46.559,6.455 L 46.487,6.354 C 47.086,6.776 47.672,7.274 48.242,7.849 C 48.813,8.424 49.398,9.114 49.997,9.919 L 50.07,10.005 L 50.505,10.609 C 50.65,10.81 50.783,10.983 50.904,11.127 C 51.025,11.27 51.153,11.419 51.288,11.572 L 51.361,11.644 L 51.477,11.759 L 51.506,11.788 L 51.564,11.831 L 51.636,11.802 L 51.607,11.745 L 51.564,11.673 C 51.37,11.452 51.225,11.22 51.129,10.976 C 51.032,10.731 50.928,10.305 50.817,9.696 C 50.706,9.088 50.604,8.628 50.512,8.316 C 50.42,8.005 50.278,7.614 50.084,7.145 L 49.91,6.714 L 49.78,6.412 L 50.128,6.757 L 50.476,7.116 L 50.969,7.634 C 51.714,8.419 52.26,9.066 52.608,9.574 C 52.918,10.024 53.106,10.401 53.174,10.702 C 53.242,11.004 53.275,11.218 53.275,11.342 C 53.275,11.582 53.184,11.702 53,11.702 L 52.913,11.702 C 52.855,11.749 52.826,11.793 52.826,11.831 C 52.835,11.927 52.869,12.023 52.927,12.118 L 53.014,12.219 C 53.111,12.315 53.232,12.363 53.377,12.363 C 53.57,12.363 53.72,12.267 53.827,12.075 C 53.885,11.97 53.914,11.831 53.914,11.658 C 53.914,11.524 53.904,11.407 53.885,11.306 C 53.865,11.206 53.817,11.064 53.74,10.882 Z" marker-start="none" marker-end="none"/>
       <path d="M 55.32,6.929 L 55.291,6.886 L 55.117,6.67 L 55.045,6.584 L 54.711,6.225 L 54.406,5.88 L 54.363,5.837 L 54.145,5.635 C 53.681,5.243 53.222,5.003 52.767,4.917 C 52.651,4.898 52.569,4.888 52.521,4.888 C 52.463,4.888 52.351,4.9 52.187,4.924 C 52.023,4.948 51.873,5.041 51.737,5.204 C 51.602,5.367 51.534,5.568 51.534,5.808 C 51.534,5.98 51.568,6.148 51.636,6.311 C 51.752,6.589 51.936,6.881 52.187,7.188 C 52.438,7.495 52.729,7.765 53.057,8 C 53.386,8.235 53.691,8.405 53.971,8.51 C 54.155,8.577 54.317,8.625 54.457,8.654 C 54.597,8.683 54.721,8.697 54.827,8.697 C 54.924,8.697 54.996,8.692 55.045,8.683 C 55.248,8.635 55.349,8.515 55.349,8.324 C 55.349,8.218 55.306,8.094 55.219,7.95 C 55.122,7.825 55.001,7.705 54.856,7.59 C 54.653,7.437 54.392,7.284 54.073,7.13 C 53.754,6.977 53.454,6.862 53.173,6.785 L 52.695,6.656 L 52.622,6.541 C 52.506,6.34 52.419,6.129 52.361,5.909 C 52.342,5.813 52.332,5.746 52.332,5.707 C 52.332,5.391 52.554,5.233 52.999,5.233 C 53.164,5.233 53.328,5.271 53.492,5.348 C 53.657,5.425 53.836,5.54 54.029,5.693 L 54.276,5.909 L 54.392,6.024 L 54.624,6.268 L 54.754,6.426 L 54.943,6.642 C 55.02,6.718 55.074,6.776 55.103,6.814 C 55.132,6.862 55.165,6.91 55.204,6.958 L 55.277,7.073 L 55.306,7.102 L 55.378,7.073 L 55.32,6.929 Z M 54.551,8.568 C 54.474,8.549 54.389,8.51 54.298,8.453 C 54.206,8.395 54.073,8.285 53.899,8.122 L 53.492,7.749 L 53.405,7.648 L 52.999,7.174 L 52.753,6.814 C 52.965,6.843 53.183,6.9 53.405,6.987 C 53.841,7.159 54.194,7.38 54.464,7.648 L 54.74,7.979 C 54.837,8.151 54.885,8.271 54.885,8.338 C 54.895,8.405 54.885,8.453 54.856,8.482 C 54.788,8.568 54.687,8.597 54.551,8.568 Z" marker-start="none" marker-end="none"/>
       <path d="M 66.908,10.235 C 66.821,10.13 66.717,10.039 66.596,9.962 C 66.475,9.886 66.338,9.826 66.183,9.783 C 66.028,9.739 65.907,9.723 65.82,9.732 C 65.724,9.751 65.656,9.78 65.617,9.818 C 65.646,9.857 65.68,9.876 65.719,9.876 C 65.786,9.866 65.859,9.857 65.936,9.847 C 66.014,9.838 66.103,9.859 66.205,9.912 C 66.306,9.965 66.422,10.056 66.553,10.185 C 66.683,10.314 66.782,10.48 66.85,10.681 C 66.918,10.882 66.952,11.055 66.952,11.198 C 66.952,11.428 66.884,11.634 66.749,11.817 C 66.546,12.104 66.255,12.248 65.878,12.248 C 65.666,12.248 65.462,12.197 65.269,12.097 C 65.076,11.996 64.897,11.836 64.732,11.615 C 64.529,11.337 64.428,11.016 64.428,10.652 C 64.428,10.307 64.51,9.929 64.674,9.517 L 64.718,9.416 L 64.979,8.827 C 65.192,8.319 65.298,7.931 65.298,7.662 C 65.298,7.231 65.233,6.874 65.102,6.591 C 64.972,6.309 64.713,6.004 64.326,5.679 C 64.172,5.554 64,5.441 63.811,5.341 C 63.623,5.24 63.388,5.147 63.108,5.061 C 62.615,4.907 62.15,4.831 61.715,4.831 C 61.029,4.831 60.49,5.005 60.098,5.355 C 59.706,5.705 59.51,6.158 59.51,6.714 C 59.51,7.26 59.672,7.761 59.996,8.216 C 60.32,8.671 60.782,9.018 61.382,9.258 C 61.71,9.392 62.02,9.459 62.31,9.459 C 62.668,9.459 62.948,9.368 63.151,9.186 C 63.354,9.004 63.456,8.755 63.456,8.439 C 63.456,8.333 63.441,8.223 63.412,8.108 C 63.316,7.715 63.088,7.399 62.731,7.159 C 62.615,7.073 62.513,7.013 62.426,6.979 C 62.339,6.946 62.286,6.934 62.266,6.944 L 62.237,6.987 L 62.266,7.03 L 62.441,7.116 C 62.634,7.212 62.789,7.404 62.905,7.691 L 62.992,7.921 C 63.021,8.055 63.035,8.17 63.035,8.266 C 63.035,8.314 63.026,8.395 63.006,8.51 C 62.948,8.74 62.83,8.925 62.651,9.064 C 62.472,9.203 62.257,9.272 62.005,9.272 C 61.831,9.272 61.667,9.246 61.512,9.193 C 61.357,9.14 61.188,9.052 61.005,8.927 C 60.879,8.831 60.76,8.724 60.649,8.604 C 60.538,8.484 60.439,8.347 60.352,8.194 C 60.168,7.878 60.076,7.566 60.076,7.26 C 60.076,6.56 60.274,6.014 60.671,5.621 C 61.067,5.228 61.614,5.032 62.31,5.032 C 62.445,5.032 62.569,5.046 62.68,5.075 C 62.791,5.104 62.914,5.147 63.05,5.204 C 63.359,5.329 63.623,5.504 63.84,5.729 C 64.058,5.954 64.215,6.201 64.312,6.469 C 64.408,6.738 64.457,6.982 64.457,7.202 C 64.457,7.528 64.336,7.979 64.094,8.554 L 63.993,8.798 L 63.819,9.243 C 63.683,9.579 63.615,9.914 63.615,10.25 C 63.615,10.901 63.925,11.448 64.544,11.888 C 64.766,12.042 64.998,12.166 65.24,12.262 C 65.366,12.31 65.511,12.348 65.675,12.377 C 65.84,12.406 65.985,12.42 66.11,12.42 C 66.255,12.42 66.396,12.406 66.531,12.377 C 66.782,12.3 66.983,12.166 67.133,11.975 C 67.283,11.783 67.358,11.553 67.358,11.285 C 67.358,11.026 67.28,10.772 67.126,10.523 L 66.908,10.235 Z" marker-start="none" marker-end="none"/>
       <path d="M 70.807,6.944 L 70.763,6.872 L 70.589,6.642 L 70.517,6.555 L 70.371,6.397 L 70.168,6.182 L 69.994,6.009 L 69.777,5.794 L 69.356,5.405 L 68.848,5.089 C 68.665,4.974 68.481,4.917 68.297,4.917 C 68.104,4.917 67.952,4.981 67.84,5.111 C 67.729,5.24 67.693,5.41 67.732,5.621 C 67.751,5.803 67.814,5.983 67.92,6.16 C 68.026,6.337 68.23,6.603 68.529,6.958 C 68.732,7.188 68.892,7.394 69.008,7.576 C 69.124,7.758 69.204,7.907 69.247,8.022 C 69.291,8.137 69.303,8.237 69.284,8.324 C 69.245,8.439 69.158,8.477 69.022,8.439 C 68.906,8.41 68.807,8.376 68.725,8.338 C 68.643,8.3 68.52,8.223 68.355,8.108 L 67.935,7.763 C 67.557,7.418 67.287,7.121 67.122,6.872 L 65.846,5.003 L 64.976,5.003 L 68.95,10.853 C 69.076,11.026 69.139,11.17 69.139,11.285 C 69.139,11.323 69.129,11.371 69.11,11.428 L 69.994,11.428 C 70.014,11.4 70.023,11.371 70.023,11.342 C 70.023,11.313 70.023,11.289 70.023,11.27 C 70.023,11.174 69.951,11.021 69.806,10.81 L 67.673,7.677 L 67.848,7.835 C 68.167,8.113 68.435,8.316 68.653,8.446 C 68.87,8.575 69.095,8.669 69.327,8.726 C 69.424,8.745 69.487,8.755 69.516,8.755 C 69.69,8.755 69.825,8.707 69.922,8.611 C 70.019,8.515 70.067,8.386 70.067,8.223 C 70.067,8.031 70.021,7.854 69.929,7.691 C 69.837,7.528 69.608,7.231 69.24,6.8 L 69.022,6.512 C 68.877,6.311 68.771,6.158 68.703,6.052 C 68.607,5.899 68.544,5.774 68.515,5.679 C 68.476,5.592 68.481,5.511 68.529,5.434 C 68.578,5.358 68.65,5.319 68.747,5.319 C 68.824,5.31 68.931,5.338 69.066,5.405 C 69.201,5.473 69.361,5.583 69.545,5.736 L 69.719,5.894 L 69.907,6.067 L 70.081,6.239 L 70.255,6.426 C 70.313,6.493 70.396,6.589 70.502,6.714 C 70.579,6.8 70.637,6.876 70.676,6.944 C 70.715,7.011 70.753,7.059 70.792,7.087 C 70.802,7.087 70.811,7.092 70.821,7.102 L 70.865,7.059 L 70.807,6.944 Z" marker-start="none" marker-end="none"/>
       <path d="M 73.329,9.847 C 73.261,9.713 73.155,9.598 73.01,9.502 C 72.865,9.406 72.739,9.358 72.633,9.358 C 72.546,9.358 72.468,9.382 72.401,9.43 C 72.333,9.478 72.285,9.545 72.255,9.632 C 72.188,9.871 72.294,10.101 72.575,10.322 C 72.729,10.446 72.894,10.518 73.068,10.537 C 73.31,10.537 73.43,10.413 73.43,10.163 C 73.43,10.087 73.397,9.981 73.329,9.847 Z M 73.169,7.03 L 73.111,6.929 L 73.082,6.9 L 72.923,6.699 L 72.836,6.584 L 72.705,6.44 L 72.488,6.21 L 72.27,5.98 L 72.125,5.837 L 71.98,5.679 C 71.641,5.362 71.376,5.152 71.182,5.046 C 70.989,4.941 70.8,4.888 70.616,4.888 C 70.433,4.888 70.283,4.946 70.167,5.061 C 70.051,5.175 69.993,5.319 69.993,5.492 C 69.993,5.53 70.005,5.602 70.029,5.707 C 70.053,5.813 70.075,5.885 70.094,5.923 C 70.114,5.971 70.176,6.086 70.283,6.268 L 70.384,6.412 L 71.487,8.036 C 71.612,8.228 71.675,8.371 71.675,8.467 C 71.675,8.515 71.661,8.568 71.632,8.625 L 72.56,8.625 C 72.57,8.587 72.575,8.539 72.575,8.482 C 72.575,8.376 72.507,8.228 72.372,8.036 L 71.095,6.167 L 70.979,5.995 C 70.911,5.87 70.865,5.77 70.841,5.693 C 70.817,5.616 70.805,5.525 70.805,5.42 C 70.805,5.276 70.868,5.204 70.994,5.204 C 71.071,5.214 71.201,5.271 71.385,5.377 C 71.424,5.396 71.477,5.434 71.545,5.492 C 71.651,5.578 71.753,5.664 71.849,5.75 L 72.023,5.894 L 72.212,6.067 L 72.415,6.268 L 72.531,6.397 L 72.749,6.642 C 72.894,6.795 72.981,6.91 73.01,6.987 L 73.082,7.087 L 73.14,7.116 L 73.184,7.087 L 73.169,7.03 Z" marker-start="none" marker-end="none"/>
       <path d="M 76.117,6.254 C 75.855,5.928 75.57,5.662 75.261,5.456 C 74.951,5.25 74.656,5.113 74.376,5.046 C 74.096,4.979 73.863,4.946 73.68,4.946 C 73.419,4.946 73.201,5.037 73.027,5.219 L 72.969,5.29 L 72.925,5.348 L 70.982,2.502 L 70.111,2.502 L 74.013,8.237 C 74.071,8.314 74.11,8.376 74.129,8.424 C 74.168,8.491 74.173,8.558 74.144,8.625 L 75.029,8.625 C 75.048,8.558 75.048,8.496 75.029,8.439 C 75.009,8.381 74.946,8.276 74.84,8.122 L 74.608,7.777 C 74.637,7.806 74.683,7.852 74.746,7.914 C 74.809,7.976 74.917,8.07 75.072,8.194 L 75.217,8.295 L 75.464,8.467 C 75.648,8.592 75.81,8.669 75.95,8.697 C 76.09,8.726 76.175,8.74 76.204,8.74 C 76.407,8.74 76.569,8.666 76.69,8.518 C 76.81,8.369 76.871,8.161 76.871,7.892 C 76.871,7.796 76.864,7.693 76.849,7.583 C 76.835,7.473 76.76,7.286 76.624,7.023 C 76.489,6.759 76.32,6.503 76.117,6.254 Z M 75.768,8.467 C 75.662,8.448 75.585,8.424 75.536,8.395 L 75.377,8.295 L 75.29,8.237 C 75.145,8.132 75.031,8.038 74.949,7.957 C 74.867,7.876 74.724,7.72 74.521,7.49 L 74.245,7.174 L 74.173,7.087 L 74.042,6.915 L 73.854,6.656 L 73.607,6.297 L 73.462,6.081 C 73.346,5.909 73.274,5.777 73.245,5.686 C 73.216,5.595 73.211,5.506 73.23,5.42 C 73.278,5.18 73.428,5.061 73.68,5.061 C 73.834,5.061 74.008,5.123 74.202,5.247 C 74.328,5.324 74.448,5.415 74.565,5.52 C 74.681,5.626 74.821,5.774 74.985,5.966 L 75.275,6.297 C 75.488,6.584 75.643,6.809 75.739,6.972 C 75.836,7.135 75.913,7.284 75.972,7.418 C 76.03,7.552 76.073,7.681 76.102,7.806 C 76.131,7.931 76.146,8.036 76.146,8.122 C 76.146,8.228 76.109,8.312 76.037,8.374 C 75.964,8.436 75.875,8.467 75.768,8.467 Z" marker-start="none" marker-end="none"/>
       <path d="M 89.097,10.235 C 89.01,10.13 88.906,10.039 88.785,9.962 C 88.664,9.886 88.527,9.826 88.372,9.783 C 88.217,9.739 88.096,9.723 88.009,9.732 C 87.913,9.751 87.845,9.78 87.806,9.818 C 87.835,9.857 87.869,9.876 87.908,9.876 C 87.975,9.866 88.048,9.857 88.125,9.847 C 88.203,9.838 88.292,9.859 88.394,9.912 C 88.495,9.965 88.611,10.056 88.742,10.185 C 88.872,10.314 88.971,10.48 89.039,10.681 C 89.107,10.882 89.141,11.055 89.141,11.198 C 89.141,11.428 89.073,11.634 88.938,11.817 C 88.735,12.104 88.444,12.248 88.067,12.248 C 87.855,12.248 87.651,12.197 87.458,12.097 C 87.265,11.996 87.086,11.836 86.921,11.615 C 86.718,11.337 86.617,11.016 86.617,10.652 C 86.617,10.307 86.699,9.929 86.863,9.517 L 86.907,9.416 L 87.168,8.827 C 87.381,8.319 87.487,7.931 87.487,7.662 C 87.487,7.231 87.422,6.874 87.291,6.591 C 87.161,6.309 86.902,6.004 86.515,5.679 C 86.361,5.554 86.189,5.441 86,5.341 C 85.812,5.24 85.577,5.147 85.297,5.061 C 84.804,4.907 84.339,4.831 83.904,4.831 C 83.218,4.831 82.679,5.005 82.287,5.355 C 81.895,5.705 81.699,6.158 81.699,6.714 C 81.699,7.26 81.861,7.761 82.185,8.216 C 82.509,8.671 82.971,9.018 83.571,9.258 C 83.899,9.392 84.209,9.459 84.499,9.459 C 84.857,9.459 85.137,9.368 85.34,9.186 C 85.543,9.004 85.645,8.755 85.645,8.439 C 85.645,8.333 85.63,8.223 85.601,8.108 C 85.505,7.715 85.277,7.399 84.92,7.159 C 84.804,7.073 84.702,7.013 84.615,6.979 C 84.528,6.946 84.475,6.934 84.455,6.944 L 84.426,6.987 L 84.455,7.03 L 84.63,7.116 C 84.823,7.212 84.978,7.404 85.094,7.691 L 85.181,7.921 C 85.21,8.055 85.224,8.17 85.224,8.266 C 85.224,8.314 85.215,8.395 85.195,8.51 C 85.137,8.74 85.019,8.925 84.84,9.064 C 84.661,9.203 84.446,9.272 84.194,9.272 C 84.02,9.272 83.856,9.246 83.701,9.193 C 83.546,9.14 83.377,9.052 83.194,8.927 C 83.068,8.831 82.949,8.724 82.838,8.604 C 82.727,8.484 82.628,8.347 82.541,8.194 C 82.357,7.878 82.265,7.566 82.265,7.26 C 82.265,6.56 82.463,6.014 82.86,5.621 C 83.256,5.228 83.803,5.032 84.499,5.032 C 84.634,5.032 84.758,5.046 84.869,5.075 C 84.98,5.104 85.103,5.147 85.239,5.204 C 85.548,5.329 85.812,5.504 86.029,5.729 C 86.247,5.954 86.404,6.201 86.501,6.469 C 86.597,6.738 86.646,6.982 86.646,7.202 C 86.646,7.528 86.525,7.979 86.283,8.554 L 86.182,8.798 L 86.008,9.243 C 85.872,9.579 85.804,9.914 85.804,10.25 C 85.804,10.901 86.114,11.448 86.733,11.888 C 86.955,12.042 87.187,12.166 87.429,12.262 C 87.555,12.31 87.7,12.348 87.864,12.377 C 88.029,12.406 88.174,12.42 88.299,12.42 C 88.444,12.42 88.585,12.406 88.72,12.377 C 88.971,12.3 89.172,12.166 89.322,11.975 C 89.472,11.783 89.547,11.553 89.547,11.285 C 89.547,11.026 89.469,10.772 89.315,10.523 L 89.097,10.235 Z" marker-start="none" marker-end="none"/>
       <path d="M 91.98,7.777 L 89.543,4.184 L 89.311,3.882 C 89.021,3.527 88.712,3.242 88.383,3.027 C 88.054,2.811 87.699,2.65 87.317,2.545 C 86.935,2.44 86.628,2.387 86.396,2.387 L 86.28,2.387 L 86.135,2.387 L 86.004,2.401 C 85.724,2.449 85.518,2.538 85.388,2.667 C 85.257,2.797 85.216,2.933 85.264,3.077 C 85.313,3.211 85.395,3.302 85.511,3.35 C 85.55,3.36 85.598,3.364 85.656,3.364 C 85.801,3.364 85.888,3.312 85.917,3.206 L 85.917,3.149 L 85.917,3.106 L 85.845,3.034 L 85.801,2.919 C 85.753,2.756 85.854,2.631 86.106,2.545 L 86.207,2.502 C 86.246,2.492 86.304,2.487 86.381,2.487 C 86.507,2.487 86.703,2.528 86.969,2.61 C 87.235,2.691 87.484,2.832 87.716,3.034 C 87.948,3.235 88.233,3.551 88.572,3.982 L 88.804,4.284 L 88.833,4.342 L 90.037,6.11 C 89.853,5.899 89.659,5.712 89.456,5.549 C 89.321,5.434 89.248,5.372 89.239,5.362 C 89.181,5.324 89.084,5.262 88.949,5.175 C 88.639,5.003 88.407,4.917 88.252,4.917 C 88.069,4.917 87.921,4.972 87.81,5.082 C 87.699,5.192 87.643,5.343 87.643,5.535 C 87.643,5.602 87.648,5.65 87.658,5.679 C 87.667,5.774 87.687,5.856 87.716,5.923 C 87.745,5.99 87.788,6.083 87.846,6.203 C 87.904,6.323 87.938,6.388 87.948,6.397 C 88.025,6.531 88.132,6.694 88.267,6.886 L 89.007,7.979 C 89.152,8.189 89.224,8.3 89.224,8.309 C 89.282,8.405 89.302,8.51 89.282,8.625 L 90.196,8.625 C 90.196,8.53 90.182,8.448 90.153,8.381 C 90.124,8.314 90.046,8.189 89.921,8.007 L 89.065,6.742 L 88.833,6.412 L 88.76,6.282 L 88.702,6.182 L 88.572,5.894 C 88.562,5.875 88.543,5.825 88.514,5.743 C 88.484,5.662 88.47,5.612 88.47,5.592 C 88.451,5.497 88.47,5.425 88.528,5.377 C 88.586,5.329 88.663,5.314 88.76,5.334 C 88.934,5.353 89.152,5.463 89.413,5.664 C 89.539,5.75 89.732,5.937 89.993,6.225 L 90.37,6.685 L 91.197,7.907 C 91.294,8.041 91.364,8.153 91.407,8.244 C 91.451,8.335 91.482,8.415 91.502,8.482 L 91.502,8.625 L 92.357,8.625 C 92.357,8.472 92.343,8.362 92.314,8.295 C 92.285,8.228 92.174,8.055 91.98,7.777 Z" marker-start="none" marker-end="none"/>
       <path d="M 96.954,6.929 L 96.809,6.742 L 96.707,6.613 L 96.562,6.455 L 96.359,6.225 L 95.793,5.65 C 95.58,5.477 95.382,5.336 95.198,5.226 C 95.015,5.116 94.855,5.037 94.72,4.989 C 94.584,4.941 94.464,4.917 94.357,4.917 C 94.009,4.917 93.835,5.089 93.835,5.434 C 93.835,5.501 93.852,5.588 93.886,5.693 C 93.92,5.798 93.997,5.947 94.118,6.139 C 94.239,6.33 94.43,6.584 94.691,6.9 L 94.879,7.159 C 95.111,7.466 95.252,7.657 95.3,7.734 C 95.416,7.907 95.479,8.046 95.489,8.151 C 95.489,8.324 95.397,8.41 95.213,8.41 C 95.155,8.41 95.111,8.405 95.082,8.395 C 94.86,8.338 94.618,8.209 94.357,8.007 L 94.154,7.849 L 94.009,7.72 L 93.806,7.533 L 93.588,7.332 L 92.007,5.003 L 91.123,5.003 L 93.327,8.237 C 93.414,8.352 93.448,8.482 93.429,8.625 L 94.314,8.625 C 94.333,8.472 94.285,8.333 94.169,8.209 L 93.69,7.59 L 94.111,7.95 L 94.473,8.252 L 94.546,8.309 L 94.749,8.439 C 95.029,8.611 95.305,8.712 95.576,8.74 C 95.798,8.769 95.975,8.724 96.105,8.604 C 96.236,8.484 96.291,8.328 96.272,8.137 C 96.253,8.022 96.207,7.892 96.134,7.749 C 96.062,7.605 95.933,7.404 95.75,7.145 L 95.474,6.785 L 95.14,6.354 C 94.937,6.076 94.809,5.885 94.756,5.779 C 94.703,5.674 94.676,5.568 94.676,5.463 C 94.676,5.348 94.744,5.29 94.879,5.29 C 94.947,5.29 94.995,5.3 95.024,5.319 C 95.189,5.386 95.329,5.458 95.445,5.535 C 95.493,5.564 95.59,5.635 95.735,5.75 C 95.803,5.808 95.871,5.87 95.938,5.937 C 96.045,6.033 96.156,6.148 96.272,6.282 L 96.489,6.527 L 96.62,6.67 L 96.852,6.987 C 96.881,7.035 96.92,7.068 96.968,7.087 C 96.978,7.087 96.987,7.092 96.997,7.102 L 97.041,7.044 L 96.954,6.929 Z" marker-start="none" marker-end="none"/>
       <path d="M 100.246,6.958 L 100.217,6.915 L 100.014,6.642 L 99.985,6.584 L 99.665,6.225 L 99.549,6.11 L 99.288,5.851 C 98.979,5.544 98.718,5.329 98.505,5.204 C 98.292,5.08 98.082,4.993 97.874,4.946 C 97.666,4.898 97.48,4.874 97.316,4.874 C 96.706,4.874 96.402,5.18 96.402,5.794 C 96.402,5.937 96.414,6.055 96.438,6.146 C 96.462,6.237 96.518,6.369 96.605,6.541 C 96.692,6.714 96.813,6.9 96.967,7.102 C 97.093,7.255 97.161,7.336 97.171,7.346 C 97.238,7.423 97.325,7.504 97.432,7.59 C 97.78,7.926 98.13,8.187 98.483,8.374 C 98.836,8.561 99.1,8.664 99.274,8.683 C 99.448,8.702 99.583,8.712 99.68,8.712 C 99.786,8.712 99.898,8.692 100.014,8.654 C 100.197,8.577 100.289,8.477 100.289,8.352 C 100.289,8.285 100.26,8.213 100.202,8.137 L 100.115,8.007 L 99.97,7.878 C 99.951,7.859 99.912,7.849 99.854,7.849 L 99.84,7.921 L 99.84,8.05 C 99.84,8.127 99.825,8.189 99.796,8.237 L 99.752,8.338 C 99.656,8.462 99.549,8.525 99.433,8.525 C 99.211,8.525 98.94,8.352 98.621,8.007 L 98.331,7.691 L 98.157,7.49 C 97.944,7.26 97.78,7.047 97.664,6.85 C 97.548,6.654 97.449,6.455 97.366,6.254 C 97.284,6.052 97.238,5.909 97.229,5.822 C 97.171,5.401 97.374,5.19 97.838,5.19 C 98.031,5.19 98.242,5.25 98.469,5.37 C 98.696,5.489 98.95,5.679 99.23,5.937 L 99.433,6.124 L 99.593,6.282 L 99.752,6.44 C 99.936,6.661 100.067,6.838 100.144,6.972 C 100.173,7.03 100.212,7.073 100.26,7.102 L 100.275,7.116 L 100.304,7.087 L 100.246,6.958 Z" marker-start="none" marker-end="none"/>
      </g>
     </g>
     <rect x="-0.19" y="-8.956" width="0.38" height="17.913" transform="translate(30.82 7.438) rotate(90)" stroke="none" fill="#ffffff" stroke-linejoin="miter"/>
     <rect x="-0.19" y="-8.956" width="0.38" height="17.913" transform="translate(113.134 7.438) rotate(90)" stroke="none" fill="#ffffff" stroke-linejoin="miter"/>
     <path d="M 37.384,72.074 L 35.272,70.213 L 34.502,76.319 L 36.327,78.032 L 37.384,72.074 Z" fill="#191919" stroke-linejoin="miter" stroke="none" marker-start="none" marker-end="none"/>
    </g>
   </g>
  </g>
 </g>
</svg>
